%FSTAX23Y23*%
%MOIN*%
%SFA1B1*%

%IPPOS*%
%ADD9500C,0.012000*%
%ADD9501C,0.016000*%
%ADD9502C,0.024000*%
%ADD9503C,0.039000*%
%ADD9504C,0.063000*%
%ADD9505C,0.161000*%
%LNpendulum-1*%
%LPD*%
G54D9500*
X02705Y01004D03*
X02669Y00965D03*
X02799D03*
X0278Y00866D03*
X02811Y00823D03*
X0285Y00748D03*
X02902Y00697D03*
X0289Y00657D03*
X02921D03*
X02976Y0063D03*
Y00551D03*
X02921Y005D03*
X02953Y00709D03*
X02992Y00827D03*
X02937Y00886D03*
X02902Y00917D03*
X02291Y00972D03*
X0222D03*
X02173Y00894D03*
X02335Y0089D03*
X02528Y00882D03*
X02563Y0085D03*
X02598D03*
X02728Y0089D03*
Y0078D03*
X02744Y00681D03*
X02795Y00657D03*
X02827D03*
X02717Y0063D03*
Y00555D03*
X02634Y00591D03*
X02563D03*
X02575Y00516D03*
X02563Y00689D03*
X02673Y0072D03*
X03008Y00685D03*
X03031Y00709D03*
Y00827D03*
X03071D03*
X0313Y00984D03*
X03091Y00937D03*
X03209Y00961D03*
X03594Y01189D03*
X03622Y01315D03*
X03524Y0161D03*
X03417Y01504D03*
X03339Y01492D03*
X03283Y01512D03*
X0322Y01441D03*
X0311Y01472D03*
X03024Y01193D03*
Y01161D03*
X03043Y01098D03*
X03063Y01051D03*
X03028Y01024D03*
X0326Y01083D03*
X03236Y01146D03*
X03197Y0113D03*
X03325Y01254D03*
X03311Y01319D03*
X03366Y01386D03*
X03461Y01256D03*
X03437Y01083D03*
X03232Y01618D03*
X03201D03*
Y01661D03*
X03169D03*
X0311Y01665D03*
X03327Y01854D03*
Y0189D03*
X03406Y01835D03*
Y01799D03*
X02937Y01461D03*
X02913Y01516D03*
X0289Y01551D03*
X02858D03*
X02823Y01575D03*
X02764Y01705D03*
X02799Y01791D03*
X0265D03*
X02614Y01642D03*
X02543Y01689D03*
X02394Y01677D03*
X02272Y01669D03*
X02323Y01795D03*
X0248Y01433D03*
X02488Y01343D03*
X02567Y0126D03*
Y01217D03*
X02543Y01193D03*
X02528Y01106D03*
X02559Y0102D03*
X02886Y01028D03*
X02913Y01051D03*
X02909Y01161D03*
X02858Y01173D03*
X02803Y01161D03*
X02752Y01232D03*
X02724Y01295D03*
X02835Y01307D03*
X02921Y01236D03*
Y01705D03*
X02957Y01791D03*
X0276Y01437D03*
X02681Y01421D03*
X0263Y01406D03*
X02575Y01441D03*
X02319Y01177D03*
X02346Y01142D03*
X02256Y01035D03*
X02059Y01059D03*
Y01138D03*
X02138Y01224D03*
Y01295D03*
X02177Y01256D03*
X02055Y01339D03*
X0202Y01398D03*
X01984Y01339D03*
X01937Y01264D03*
G54D9501*
X04106Y01732D03*
X04039Y01949D03*
X03563Y01772D03*
Y01811D03*
Y0185D03*
X03831Y01732D03*
X039Y01691D03*
X03961Y01693D03*
Y01732D03*
Y01772D03*
X03213Y01969D03*
X03654Y02004D03*
X03627Y01948D03*
X02319Y01063D03*
X02984Y01988D03*
X01972Y01839D03*
X01555Y01929D03*
X01378Y01937D03*
X01642Y01945D03*
X01555Y02008D03*
Y02087D03*
X01614D03*
Y02126D03*
X01555Y02165D03*
X01575Y02244D03*
X01752Y02224D03*
X01835D03*
X01833Y02128D03*
X01783Y0213D03*
X01815Y02091D03*
X01776Y02008D03*
X01626Y02031D03*
X01228Y02063D03*
X01232Y02398D03*
X01358Y0248D03*
X01457D03*
X01496D03*
X01539D03*
X02008Y02244D03*
X02087Y02283D03*
X02165Y02323D03*
X02244D03*
X02323D03*
X02402Y02362D03*
X02441Y02441D03*
X0252D03*
X02598D03*
X02677D03*
X02756D03*
X02835D03*
X02913D03*
X02992D03*
X02984Y02283D03*
X03071Y02441D03*
X0315D03*
X03217D03*
Y02358D03*
X03213Y02283D03*
Y02205D03*
Y02126D03*
Y02047D03*
X03437Y02307D03*
X03425Y02114D03*
X03656Y02182D03*
X03629Y02383D03*
X04028Y0213D03*
X04228Y02154D03*
Y02232D03*
X04189Y02256D03*
X04192Y02204D03*
X04244Y0228D03*
X0415Y02394D03*
X04201Y02555D03*
X04118Y02697D03*
X04287D03*
X04457Y02343D03*
Y02299D03*
Y02252D03*
Y02205D03*
X04394Y02094D03*
X04268Y02016D03*
G54D9502*
X03789Y01969D03*
X03839D03*
X03888D03*
Y02067D03*
X03839D03*
X03789D03*
X0374D03*
Y02165D03*
X03789D03*
X03839D03*
X03888D03*
X03937D03*
Y02067D03*
Y02264D03*
X03888D03*
X03839D03*
X03789D03*
X0374D03*
X03789Y02362D03*
X03839D03*
X03888D03*
G54D9503*
X03571Y00961D03*
X03429D03*
X035Y0089D03*
X03429Y00819D03*
X03359Y0089D03*
X04035Y01567D03*
Y01425D03*
X04106Y01496D03*
X03965D03*
X035Y01031D03*
X01228Y02244D03*
Y02343D03*
G54D9504*
X0152Y02346D03*
X01705Y02343D03*
X0189D03*
X01445Y02718D03*
X01965D03*
G54D9505*
X02362Y00689D03*
X03189D03*
X04252Y01732D03*
X01307D03*
M02*