%FSTAX23Y23*%
%MOIN*%
%SFA1B1*%

%IPPOS*%
%AMD26*
4,1,8,0.003000,0.015000,-0.003000,0.015000,-0.006000,0.012000,-0.006000,-0.012000,-0.003000,-0.015000,0.003000,-0.015000,0.006000,-0.012000,0.006000,0.012000,0.003000,0.015000,0.0*
1,1,0.006000,0.003000,0.012000*
1,1,0.006000,-0.003000,0.012000*
1,1,0.006000,-0.003000,-0.012000*
1,1,0.006000,0.003000,-0.012000*
%
%AMD27*
4,1,8,-0.015000,0.003000,-0.015000,-0.003000,-0.012000,-0.006000,0.012000,-0.006000,0.015000,-0.003000,0.015000,0.003000,0.012000,0.006000,-0.012000,0.006000,-0.015000,0.003000,0.0*
1,1,0.006000,-0.012000,0.003000*
1,1,0.006000,-0.012000,-0.003000*
1,1,0.006000,0.012000,-0.003000*
1,1,0.006000,0.012000,0.003000*
%
%AMD28*
4,1,8,0.017500,0.011000,-0.017500,0.011000,-0.022500,0.006000,-0.022500,-0.006000,-0.017500,-0.011000,0.017500,-0.011000,0.022500,-0.006000,0.022500,0.006000,0.017500,0.011000,0.0*
1,1,0.010000,0.017500,0.006000*
1,1,0.010000,-0.017500,0.006000*
1,1,0.010000,-0.017500,-0.006000*
1,1,0.010000,0.017500,-0.006000*
%
%AMD29*
4,1,8,0.011000,-0.017500,0.011000,0.017500,0.006000,0.022500,-0.006000,0.022500,-0.011000,0.017500,-0.011000,-0.017500,-0.006000,-0.022500,0.006000,-0.022500,0.011000,-0.017500,0.0*
1,1,0.010000,0.006000,-0.017500*
1,1,0.010000,0.006000,0.017500*
1,1,0.010000,-0.006000,0.017500*
1,1,0.010000,-0.006000,-0.017500*
%
%AMD46*
4,1,8,0.039500,-0.029200,0.039500,0.029200,0.019700,0.049000,-0.019700,0.049000,-0.039500,0.029200,-0.039500,-0.029200,-0.019700,-0.049000,0.019700,-0.049000,0.039500,-0.029200,0.0*
%
%AMD47*
4,1,8,0.029200,0.039500,-0.029200,0.039500,-0.049000,0.019700,-0.049000,-0.019700,-0.029200,-0.039500,0.029200,-0.039500,0.049000,-0.019700,0.049000,0.019700,0.029200,0.039500,0.0*
%
%AMD50*
4,1,4,0.044400,0.000000,0.000000,0.044400,-0.044400,0.000000,0.000000,-0.044400,0.044400,0.000000,0.0*
%
%ADD10R,0.059000X0.059000*%
%ADD11R,0.134000X0.122000*%
%ADD12R,0.252000X0.394000*%
%ADD13O,0.079000X0.018000*%
%ADD14R,0.087000X0.079000*%
%ADD15R,0.167000X0.118000*%
%ADD16R,0.167000X0.150000*%
%ADD17R,0.051000X0.059000*%
%ADD18R,0.126000X0.071000*%
%ADD19R,0.071000X0.063000*%
%ADD20R,0.059000X0.051000*%
%ADD21R,0.110000X0.150000*%
%ADD22O,0.016000X0.085000*%
%ADD23O,0.016000X0.085000*%
%ADD24R,0.063000X0.071000*%
%ADD25R,0.024000X0.041000*%
G04~CAMADD=26~8~0.0~0.0~120.0~300.0~30.0~0.0~15~0.0~0.0~0.0~0.0~0~0.0~0.0~0.0~0.0~0~0.0~0.0~0.0~0.0~120.0~300.0*
%ADD26D26*%
G04~CAMADD=27~8~0.0~0.0~120.0~300.0~30.0~0.0~15~0.0~0.0~0.0~0.0~0~0.0~0.0~0.0~0.0~0~0.0~0.0~0.0~90.0~300.0~120.0*
%ADD27D27*%
G04~CAMADD=28~8~0.0~0.0~450.0~220.0~50.0~0.0~15~0.0~0.0~0.0~0.0~0~0.0~0.0~0.0~0.0~0~0.0~0.0~0.0~0.0~450.0~220.0*
%ADD28D28*%
G04~CAMADD=29~8~0.0~0.0~450.0~220.0~50.0~0.0~15~0.0~0.0~0.0~0.0~0~0.0~0.0~0.0~0.0~0~0.0~0.0~0.0~270.0~220.0~450.0*
%ADD29D29*%
%ADD30R,0.276000X0.157000*%
%ADD31R,0.055000X0.011000*%
%ADD32R,0.047000X0.028000*%
%ADD33R,0.102000X0.094000*%
%ADD34O,0.024000X0.059000*%
%ADD35R,0.110000X0.083000*%
%ADD36R,0.079000X0.024000*%
%ADD37C,0.079000*%
%ADD38C,0.016000*%
%ADD39C,0.008000*%
%ADD40C,0.020000*%
%ADD41C,0.039000*%
%ADD42C,0.012000*%
%ADD43C,0.059000*%
%ADD44R,0.079000X0.079000*%
%ADD45C,0.079000*%
G04~CAMADD=46~4~0.0~0.0~980.0~790.0~0.0~197.5~0~0.0~0.0~0.0~0.0~0~0.0~0.0~0.0~0.0~0~0.0~0.0~0.0~270.0~790.0~980.0*
%ADD46D46*%
G04~CAMADD=47~4~0.0~0.0~980.0~790.0~0.0~197.5~0~0.0~0.0~0.0~0.0~0~0.0~0.0~0.0~0.0~0~0.0~0.0~0.0~0.0~980.0~790.0*
%ADD47D47*%
%ADD48C,0.039000*%
%ADD49C,0.063000*%
G04~CAMADD=50~10~0.0~629.3~0.0~0.0~0.0~0.0~0~0.0~0.0~0.0~0.0~0~0.0~0.0~0.0~0.0~0~0.0~0.0~0.0~315.0~629.3~0.0*
%ADD50D50*%
%ADD51C,0.024000*%
%ADD52C,0.030000*%
%LNpendulum-1*%
%LPD*%
G36*
X0315Y01929D02*
D01*
X03307Y01772*
X03536*
X03537Y01765*
X0354Y01758*
X03544Y01753*
X0355Y01748*
X03556Y01746*
X03563Y01745*
X0357Y01746*
X03576Y01748*
X03582Y01753*
X03586Y01758*
X03589Y01765*
X0359Y01772*
X03589Y01779*
X03586Y01785*
X03585Y01787*
Y01796*
X03586Y01798*
X03589Y01804*
X0359Y01811*
X03589Y01818*
X03586Y01824*
X03585Y01826*
Y01836*
X03586Y01837*
X03589Y01843*
X0359Y0185*
X03589Y01857*
X03586Y01864*
X03583Y01868*
Y01927*
X03597*
X03603Y01928*
X03609*
X03614Y01925*
X0362Y01922*
X03627Y01921*
X03634Y01922*
X0364Y01925*
X03646Y01929*
X0365Y01934*
X03653Y01941*
X03654Y01948*
X03653Y01955*
X0365Y01961*
X03646Y01967*
X0364Y01971*
X03634Y01974*
X03627Y01975*
X0362Y01974*
X03617Y01981*
Y01982*
X03614Y01986*
X03617Y01991*
X03619Y01999*
X03617Y02007*
X03612Y02014*
X03605Y02019*
X03597Y0202*
X03583*
Y02029*
X03597*
X03605Y02031*
X03612Y02035*
X03617Y02042*
X03619Y0205*
X03701*
Y01957*
Y01898*
X0376*
Y01835*
X03917*
Y01898*
X03976*
Y01957*
Y0205*
X04059*
X0406Y02042*
X04065Y02035*
X04072Y02031*
X0408Y02029*
X04106*
X0411Y02028*
X04114*
Y0202*
X0408*
X04072Y02019*
X04065Y02014*
X0406Y02007*
X04059Y01999*
X0406Y01991*
X04063Y01986*
X0406Y01982*
X04059Y01973*
X04054Y01971*
X04053Y01972*
X04046Y01975*
X04039Y01976*
X04032Y01975*
X04026Y01972*
X0402Y01968*
X04016Y01962*
X04013Y01956*
Y01949*
Y01942*
X04016Y01935*
X0402Y0193*
X04026Y01926*
X04032Y01923*
X04039Y01922*
X04046Y01923*
X04053Y01926*
X04056Y01928*
X04074*
X0408Y01927*
X04114*
Y01892*
X04106Y0189*
X04099Y01886*
X04058Y01845*
X03992*
X03984Y01843*
X03977Y01838*
X03945Y01807*
X0394Y018*
X03939Y01791*
Y01788*
X03937Y01785*
X03935Y01779*
X03934Y01772*
X03935Y01765*
X03936Y01762*
X03933Y01758*
X03868*
Y01707*
X03873*
X03876Y01703*
X03874Y01698*
X03873Y01693*
X03268*
X0311Y0185*
X02717*
Y01929*
Y02126*
X02874*
X02953Y02205*
Y02362*
X0315*
Y01929*
G37*
G36*
X0272Y01634D02*
D01*
Y01629*
X02699Y01608*
X02697Y01604*
X02696Y01599*
Y01441*
X02691Y01439*
X02689Y0144*
X02681Y01441*
X02673Y0144*
X02668Y01442*
Y01443*
X02665Y01447*
X02661Y01449*
X02656Y0145*
X02592*
X02589Y01455*
X02582Y01459*
X02575Y01461*
X02567Y01459*
X02561Y01455*
X02556Y01449*
X02555Y01441*
X02556Y01433*
X02561Y01427*
X02567Y01422*
X02575Y01421*
X02582Y01422*
X02588Y01426*
X02616*
X02618Y01421*
X02616Y0142*
X02611Y01413*
X0261Y01407*
X02609*
Y01357*
Y01308*
X02611*
X02615Y0131*
X02618Y01311*
X02622Y0131*
X02625Y01308*
X02631Y01307*
X02637Y01308*
X02642Y01311*
X02645*
X0265Y01308*
X02656Y01307*
X02663Y01308*
X02666Y0131*
X02669Y01311*
X02673Y0131*
X02676Y01308*
X02682Y01307*
X02688Y01308*
X02693Y01311*
X02696*
X02702Y01308*
X02703*
X02705Y01304*
X02706Y01302*
X02704Y01295*
X02706Y01288*
X0271Y01281*
X02717Y01277*
X02724Y01275*
X02732Y01277*
X02739Y01281*
X02743Y01288*
X02744Y01295*
Y01299*
Y013*
X02745Y01304*
Y01307*
X0275Y0131*
X02753Y01308*
X02759Y01307*
X02765Y01308*
X02768Y0131*
X02772Y01311*
X02775Y0131*
X02778Y01308*
X02784Y01307*
X02791Y01308*
X02796Y01311*
X02799*
X02804Y01308*
X0281Y01307*
X02815*
X02816Y01299*
X0282Y01293*
X02827Y01289*
X02835Y01287*
X02842Y01289*
X02845Y0129*
X0285Y01288*
X02853Y01284*
X02873Y01263*
X02877Y01261*
X02882Y0126*
X02912*
X02913Y01255*
X02907Y0125*
X02903Y01244*
X02902Y0124*
X02941*
X0294Y01244*
X02935Y0125*
X02929Y01255*
X02931Y0126*
X0305*
X03075Y01235*
Y01073*
X0307Y0107*
X03063Y01071*
X03055Y0107*
X03049Y01065*
X03044Y01059*
X03043Y01051*
X03044Y01043*
X03049Y01037*
Y01033*
X03044Y01034*
X03042Y01038*
X03035Y01042*
X03028Y01044*
X0302Y01042*
X03013Y01038*
X03009Y01031*
X03007Y01024*
X03008Y01021*
X03003Y01016*
X02907*
X02905Y01021*
X02906Y01028*
X02909Y01031*
Y01051*
X02917*
Y01032*
X02921Y01033*
X02928Y01037*
X02932Y01043*
X02933Y0105*
X02938Y01049*
X02944Y0105*
X02949Y01054*
X02953Y01059*
X02954Y01065*
Y01087*
X03027*
X03029Y01084*
X03036Y0108*
X03043Y01078*
X03051Y0108*
X03057Y01084*
X03062Y01091*
X03063Y01098*
X03062Y01106*
X03057Y01113*
X03051Y01117*
X03043Y01118*
X03036Y01117*
X03029Y01113*
X03028Y01111*
X02954*
Y01134*
X02953Y0114*
X02949Y01145*
X02944Y01149*
X02938Y0115*
X02932Y01149*
X0293Y01147*
X02926Y01151*
X02928Y01154*
X02929Y01157*
X02909*
Y01165*
X02929*
X02928Y01169*
X02924Y01176*
X02917Y0118*
X02919Y01185*
X02975*
X03005Y01155*
Y01154*
X03009Y01147*
X03016Y01143*
X03024Y01141*
X03031Y01143*
X03038Y01147*
X03042Y01154*
X03044Y01161*
X03042Y01169*
X03039Y01174*
X03038Y01177*
X03039Y01181*
X03042Y01185*
X03044Y01193*
X03042Y01201*
X03038Y01207*
X03031Y01211*
X0303Y01212*
X0302Y01221*
X03016Y01224*
X03012Y01225*
X02943*
X0294Y0123*
X02941Y01232*
X02902*
Y0123*
X029Y01225*
X02791*
X02787Y01224*
X02783Y01221*
X02775Y01213*
X02769Y01207*
X02764Y01209*
Y01217*
X02766Y01218*
X02771Y01225*
X02772Y01232*
X02771Y0124*
X02766Y01246*
X0276Y01251*
X02752Y01252*
X02744Y01251*
X02738Y01246*
X02733Y0124*
X02732Y01232*
X02733Y01225*
X02738Y01218*
X0274Y01217*
Y01206*
X02699Y01165*
X02698Y01163*
X02697*
X02692*
X02691Y01165*
X02663Y01193*
X02659Y01195*
X02655Y01196*
X02581*
X02579Y01201*
X02581Y01202*
X02585Y01209*
X02586Y01213*
X02567*
Y0122*
X02586*
X02585Y01224*
X02581Y01231*
X02575Y01235*
X02572Y01236*
Y01241*
X02575*
X02581Y01246*
X02585Y01252*
X02586Y01256*
X02548*
Y01252*
X02553Y01246*
X02559Y01241*
X02562*
Y01236*
X02559Y01235*
X02553Y01231*
X02548Y01224*
X02547Y01217*
X02546Y01215*
X02544Y01214*
X02542Y01213*
X02536Y01211*
X02529Y01207*
X02525Y01201*
X02523Y01193*
X02525Y01185*
X02529Y01179*
X02536Y01174*
X02543Y01173*
X02547Y01174*
X02548Y01173*
X02552Y01172*
X0265*
X02667Y01154*
Y01152*
X02664Y0115*
X02662Y01149*
X02656Y0115*
X0265Y01149*
X02645Y01145*
X02642*
X02637Y01149*
X02631Y0115*
X02625Y01149*
X02622Y01147*
X02618Y01146*
X02615Y01147*
X02611Y01149*
X02605Y0115*
X02599Y01149*
X02594Y01145*
X0259Y0114*
X02589Y01134*
Y01111*
X02547*
X02546Y01114*
X02542Y0112*
X02535Y01125*
X02528Y01126*
X0252Y01125*
X02513Y0112*
X02509Y01114*
X02507Y01106*
X02509Y01099*
X02513Y01092*
X02516Y01091*
Y00898*
X02513Y00896*
X02509Y0089*
X02507Y00882*
X02509Y00874*
X02513Y00868*
X0252Y00863*
X02528Y00862*
X02535Y00863*
X02542Y00868*
X02546Y00874*
X02551Y00872*
Y00866*
X02549Y00865*
X02544Y00858*
X02543Y0085*
X02544Y00843*
X02549Y00836*
X02555Y00832*
X02563Y0083*
X02571Y00832*
X02577Y00836*
X02578Y00838*
X02583*
X02584Y00836*
X02591Y00832*
X02598Y0083*
X02606Y00832*
X02613Y00836*
X02617Y00843*
X02618Y0085*
X02617Y00858*
X02613Y00865*
X0261Y00866*
Y00889*
X02667Y00945*
X02669Y00944*
X02677Y00946*
X02683Y0095*
X02688Y00957*
X02693Y00955*
Y0085*
X02694Y00846*
X02696Y00842*
X027Y00838*
X02704Y00835*
X02709Y00834*
X0271*
X02714Y0083*
Y00824*
X02715Y00821*
X02714Y00818*
Y00794*
X0271Y00787*
X02708Y0078*
X0271Y00772*
X02714Y00765*
X02721Y00761*
X02728Y00759*
X02736Y00761*
X02743Y00765*
Y00766*
X02745Y00769*
X02749Y00766*
X02753*
X02759*
X02763*
X02766Y00768*
X02768Y00766*
X02773*
X02779*
X02783*
X02785Y00768*
X02788Y00766*
X02792*
X02798*
X02802*
X02805Y00768*
X02808Y00766*
X02812*
X02818*
X02822*
X02825Y00768*
X02827Y00766*
X02832*
X02833*
X02835Y00761*
X02832Y00756*
X0283Y00748*
X02832Y0074*
X02836Y00734*
X02843Y00729*
X0285Y00728*
X02858Y00729*
X02865Y00734*
X02869Y0074*
X0287Y00748*
X02869Y00756*
X02865Y00762*
X02862Y00764*
Y00813*
X02865*
X02869Y00814*
X02873Y00816*
X02875Y0082*
X02876Y00824*
Y0083*
X02875Y00834*
X02874Y00837*
X02875Y00839*
X02876Y00844*
Y00849*
X02875Y00854*
X02874Y00856*
X02875Y00859*
X02876Y00863*
Y00869*
X02875Y00873*
X02873Y00877*
X02869Y00879*
X02865Y0088*
X02854*
X02853*
X02847*
X02846Y00884*
Y00885*
X02848Y00888*
X02849Y00893*
Y00901*
X02835*
Y00905*
X02831*
Y00928*
X02827Y00932*
Y00937*
X02886*
X02888Y00932*
X02887*
X02883Y00925*
X02882Y00921*
X02921*
X0292Y00925*
X02916Y00932*
X02915*
X02917Y00937*
X0298*
Y00842*
X02978Y00841*
X02974Y00834*
X02972Y00827*
X02974Y00819*
X02978Y00813*
X02984Y00808*
X02992Y00807*
X03Y00808*
X03006Y00813*
X03009Y00816*
X03015*
X03017Y00813*
X03024Y00808*
X03031Y00807*
X03039Y00808*
X03046Y00813*
X03048Y00816*
X03054*
X03057Y00813*
X03063Y00808*
X03071Y00807*
X03079Y00808*
X03085Y00813*
X03089Y00819*
X03091Y00827*
X03089Y00834*
X03085Y00841*
X03083Y00842*
Y00912*
X03088Y00917*
X03091*
X03098Y00918*
X03105Y00923*
X03109Y00929*
X03111Y00937*
X03109Y00945*
X03105Y00951*
X031Y00954*
X03099Y0096*
X0311Y00971*
X03116Y0097*
X03122Y00966*
X0313Y00964*
X03138Y00966*
X03144Y0097*
X03148Y00977*
X0315Y00984*
X03148Y00992*
X03144Y00998*
X03138Y01003*
X0313Y01004*
X03126*
X03124Y01008*
X03127Y01011*
X03129Y01015*
Y01016*
X03135Y01017*
X03189Y00963*
Y00961*
X0319Y00953*
X03194Y00946*
X03201Y00942*
X03209Y00941*
X03216Y00942*
X03223Y00946*
X03227Y00953*
X03229Y00961*
X03227Y00968*
X03223Y00975*
X03216Y00979*
X03209Y00981*
X03206Y0098*
X03146Y0104*
Y01268*
X03145Y01272*
X03142Y01276*
X03053Y01366*
X03049Y01368*
X03044Y01369*
X02954*
Y01392*
X02953Y01398*
X02949Y01403*
X02944Y01407*
X02938Y01408*
X02932Y01407*
X02927Y01403*
X02924*
X02919Y01407*
X02912Y01408*
X02906Y01407*
X02901Y01403*
X02898*
X02893Y01407*
X02887Y01408*
X02881Y01407*
X02875Y01403*
X02873*
X02867Y01407*
X02861Y01408*
X02855Y01407*
X0285Y01403*
X02847*
X02842Y01407*
X02836Y01408*
X02829Y01407*
X02827Y01405*
X02822Y01408*
Y01453*
X02898*
Y01497*
X02903Y01499*
X02906Y01497*
X02913Y01496*
X02921Y01497*
X02924Y01499*
X02929Y01497*
Y01479*
X02923Y01475*
X02918Y01468*
X02917Y01461*
X02918Y01453*
X02923Y01446*
X02929Y01442*
X02937Y01441*
X02945Y01442*
X02951Y01446*
X02955Y01453*
X03008*
Y01531*
X03268*
X0327Y01526*
X03269*
X03265Y01519*
X03263Y01512*
X03265Y01504*
X03269Y01498*
X03268Y01496*
X03267Y01494*
Y01444*
Y01394*
X03269Y01395*
X03274Y01398*
X03277*
X03282Y01395*
X03288Y01393*
X03295Y01395*
X03297Y01396*
X03302Y01394*
Y01391*
X03303Y01386*
X03305Y01382*
X0335Y01338*
X03354Y01335*
X03358Y01334*
X03601*
X03607Y01328*
X03604Y01323*
X03602Y01315*
X03604Y01307*
X03608Y01301*
X03614Y01296*
X03622Y01295*
X0363Y01296*
X03636Y01301*
X03641Y01307*
X03642Y01315*
X03641Y01323*
X03636Y01329*
X03634Y01331*
X03633Y01335*
X03631Y01339*
X03615Y01355*
X03611Y01358*
X03606*
X03363*
X0336Y01362*
X03362Y01367*
X03366Y01366*
X03374Y01367*
X0338Y01372*
X03385Y01378*
X03386Y01386*
Y01389*
X0339Y01394*
X03391Y01393*
X03397Y01395*
X034Y01397*
X03404Y01398*
X03407Y01397*
X0341Y01395*
X03416Y01393*
X03422Y01395*
X03428Y01398*
X03431Y01403*
X03432Y01409*
Y01478*
X03431Y01484*
X03429Y01488*
X03432Y0149*
X03436Y01496*
X03437Y01504*
X03436Y01512*
X03432Y01518*
X03425Y01522*
X03417Y01524*
X0341Y01522*
X03403Y01518*
X03399Y01512*
X03397Y01504*
X03398Y01498*
X03396Y01494*
X03395*
X03391*
X03385Y01493*
X03379Y0149*
X03377*
X03371Y01493*
X03365Y01494*
X03359Y01493*
X03358*
X03357Y015*
X03353Y01506*
X03346Y01511*
X03339Y01512*
X03331Y01511*
X03324Y01506*
X0332Y015*
X03319Y01493*
X03314Y01494*
X03309*
X03304Y01496*
Y01507*
X03303Y01512*
X03304*
X03302Y01519*
X03298Y01526*
X03297*
X03298Y01531*
X03938*
X0394Y01526*
X03937Y01524*
X0393Y01516*
X03926Y01506*
X03925Y01496*
X03926Y01486*
X0393Y01476*
X03937Y01468*
X03945Y01462*
X03954Y01458*
X03965Y01456*
X03975Y01458*
X03985Y01462*
X03993Y01468*
X03999Y01476*
X04003Y01486*
X04004Y01496*
X04003Y01506*
X03999Y01516*
X03993Y01524*
X0399Y01526*
X03991Y01531*
X04018*
X04025Y01528*
X04035Y01527*
X04046Y01528*
X04053Y01531*
X04079*
X04081Y01527*
X0405Y01496*
X04106Y0144*
X04162Y01496*
X04131Y01527*
X04133Y01531*
X04269*
X04271Y01527*
X03217Y00472*
X03044*
Y00693*
X03046Y00694*
X0305Y00701*
X03052Y00709*
X0305Y00716*
X03046Y00723*
X03039Y00727*
X03031Y00729*
X03024Y00727*
X03017Y00723*
X03013Y00716*
X03012Y00709*
X0301Y00708*
X03008Y00705*
X03Y00704*
X02994Y00699*
X02989Y00693*
X02988Y00685*
X02989Y00677*
X02994Y00671*
X02996Y00669*
Y00655*
X02995Y00654*
X02993Y0065*
Y00649*
X02987Y00646*
X02984Y00648*
X0298Y00649*
Y0063*
Y00611*
X02984*
X02987Y00613*
X02992Y00611*
Y00571*
X02987Y00568*
X02984Y0057*
X0298*
Y00551*
Y00532*
X02984Y00533*
X02987Y00535*
X02992Y00532*
Y00485*
X02991Y00484*
X02941*
X02938Y00489*
X0294Y00492*
X02941Y005*
X0294Y00508*
X02937Y00512*
X02936Y00517*
X02939Y00521*
X0294Y00526*
Y00561*
Y00563*
X02942Y00567*
X02943Y00568*
X02947Y00569*
X02952Y00572*
X02955Y00576*
X02956Y00581*
Y00592*
X02955Y00597*
X02954Y00598*
X02957Y00602*
X0296Y00606*
X02961Y0061*
Y00611*
X02966Y00613*
X02969Y00611*
X02972*
Y0063*
Y00649*
X02969Y00648*
X02966Y00647*
X02961Y00649*
Y0069*
X02967Y00694*
X02971Y00701*
X02973Y00709*
X02971Y00716*
X02967Y00723*
X0296Y00727*
X02953Y00729*
X02945Y00727*
X02939Y00723*
X02934Y00716*
X02933Y00709*
X02934Y00701*
X02937Y00697*
Y00677*
X02932Y00674*
X02929Y00676*
X02925Y00677*
Y00657*
X02917*
Y00677*
X02915Y00676*
X02913Y00681*
X02916Y00683*
X0292Y00689*
X02922Y00697*
X0292Y00705*
X02916Y00711*
X02909Y00715*
X02902Y00717*
X02894Y00715*
X02887Y00711*
X02883Y00705*
X02882Y00697*
X02877Y00693*
X0276*
X02758Y00695*
X02752Y007*
X02744Y00701*
X02736Y007*
X0273Y00695*
X02728Y00693*
X02722Y00692*
X02693Y0072*
X02692Y00728*
X02687Y00735*
X02681Y00739*
X02673Y00741*
X02666Y00739*
X02659Y00735*
X02541*
X02451Y00825*
X02376Y009*
X02372Y00903*
X02366Y00904*
X02349*
X02342Y00908*
X02335Y0091*
X02327Y00908*
X02323Y00906*
X02313*
Y0092*
X02274*
Y00863*
X02313*
Y00878*
X02319*
X0232Y00876*
X02327Y00871*
X02335Y0087*
X02342Y00871*
X02349Y00876*
X0236*
X02431Y00805*
X02525Y00711*
X0253Y00707*
X02535Y00706*
X02545*
X02548Y00701*
X02544Y00697*
X02543Y00689*
X02544Y00681*
X02549Y00675*
X02555Y0067*
X02563Y00669*
X02571Y0067*
X02577Y00675*
X02579Y00677*
X0266*
X02665Y00672*
Y00594*
X02666Y0059*
X02669Y00586*
X02677Y00578*
X0268Y00575*
X02685*
X02701*
X02703Y0057*
X02702Y00569*
X02698Y00563*
X02696Y00555*
X02698Y00547*
X02702Y00541*
X02709Y00537*
X02717Y00535*
X02724Y00537*
X02731Y00541*
X02735Y00547*
X02737Y00555*
X02735Y00563*
X02733Y00566*
X02737Y00569*
X02738*
X02742Y00568*
X02743Y00567*
X02745Y00563*
Y00561*
Y00526*
X02746Y00521*
X02749Y00517*
X02752Y00515*
Y00492*
X02753Y00488*
X02755Y00484*
X02762Y00477*
X0276Y00472*
X02362*
X01146Y01688*
X01148Y01693*
X01204*
X01209Y01682*
X01218Y01667*
X01229Y01654*
X01242Y01643*
X01257Y01634*
X01273Y01627*
X0129Y01623*
X01307Y01622*
X01324Y01623*
X01341Y01627*
X01357Y01634*
X01372Y01643*
X01385Y01654*
X01397Y01667*
X01404Y0168*
X01409Y01678*
Y01594*
X0141Y01587*
X01413Y01581*
X01417Y01575*
X01949Y01043*
X01955Y01039*
X01961Y01036*
X01969Y01035*
X0197*
X02044Y00962*
X0205Y00958*
X02057Y00956*
X02209*
X02213Y00954*
X02214*
X02231Y00936*
X02237Y00932*
X02244Y00931*
X02268*
X02275Y00932*
X0228Y00936*
X02298Y00954*
X02299*
X02306Y00958*
X0231Y00965*
X02311Y00969*
X02313*
Y01027*
X02279*
X02275Y01032*
X02276Y01035*
X02274Y01043*
X02273Y01046*
X02275Y01051*
X023*
X02303Y01047*
X0231Y01042*
X02319Y0104*
X02328Y01042*
X02335Y01047*
X0234Y01054*
X02342Y01063*
X0234Y01072*
X02335Y01079*
X02328Y01084*
X02319Y01086*
X0231Y01084*
X02303Y01079*
X023Y01075*
X02197*
Y011*
Y01104*
Y0113*
X02209*
Y01104*
X02276*
Y01179*
X02209*
Y01154*
X02197*
Y01179*
X0213*
Y01104*
Y011*
Y01026*
X02194*
X02197*
X02199Y01021*
Y00992*
X02065*
X02021Y01036*
X02023Y01041*
X02051*
X02055Y0104*
Y01026*
X02122*
Y01099*
Y01104*
Y01105*
Y01179*
X02055*
Y01157*
X02051Y01156*
X02045Y01152*
X02041Y01145*
X02039Y01138*
X02041Y0113*
X02045Y01124*
X02051Y01119*
X02055*
Y01105*
Y011*
Y01099*
Y01078*
X02051*
Y01077*
X01992*
X01988Y01083*
X01725Y01345*
X01727Y0135*
X01963*
Y0134*
X01964Y01339*
X01966Y01331*
X01967Y01328*
X01968*
X01971Y01322*
X01991Y01302*
X01997Y01298*
X02004Y01297*
X02031*
X02038Y01298*
X02044Y01302*
X02062Y0132*
X02063*
X02069Y01324*
X02074Y01331*
X02075Y01339*
X02076Y0134*
X02077*
Y01397*
X02041*
X0204Y01398*
X02038Y01405*
X02034Y01412*
X02027Y01416*
X0202Y01418*
X02012Y01416*
X02005Y01412*
X02001Y01405*
X02Y01398*
X01999Y01397*
X01963*
Y01386*
X01685*
X01465Y01606*
Y01693*
X02264*
Y01688*
X02257Y01683*
X02253Y01677*
X02252Y01673*
X02291*
X0229Y01677*
X02286Y01683*
X02279Y01688*
Y01693*
X02315*
Y01638*
X02402*
Y01659*
X02408Y01663*
X02412Y01669*
X02414Y01677*
X02412Y01685*
X0241Y01688*
X02413Y01693*
X02508*
X0251Y01688*
X02472Y0165*
X02469Y01646*
X02468Y01642*
Y01449*
X02466Y01447*
X02462Y01441*
X0246Y01433*
X02462Y01425*
X02466Y01419*
X02473Y01415*
X0248Y01413*
X02488Y01415*
X02495Y01419*
X02499Y01425*
X025Y01433*
X02499Y01441*
X02495Y01447*
X02492Y01449*
Y01637*
X0253Y01674*
X02536Y0167*
X02543Y01669*
X02551Y0167*
X02557Y01675*
X02562Y01681*
X02563Y01689*
X02567Y01692*
X02571Y01691*
Y01634*
X02596*
X026Y01628*
X02606Y01623*
X02614Y01622*
X02622Y01623*
X02628Y01628*
X02633Y01634*
X02657*
Y01693*
X0272*
Y01634*
G37*
G36*
X01428Y02515D02*
X01419Y02511D01*
X01412Y02506*
X01406Y02498*
X01402Y0249*
X01401Y0248*
Y0189*
X01181*
Y02189*
X01227*
X01228*
X0123*
X0126*
X01266Y0219*
X01271Y02193*
X01275Y02199*
X01276Y02205*
Y02216*
X01282Y0223*
X01284Y02244*
X01282Y02258*
X01276Y02272*
Y02273*
Y02283*
X01275Y0229*
X01271Y02295*
X01266Y02298*
X0126Y023*
X0124*
X01227Y02301*
X01181*
Y0252*
X01427*
X01428Y02515*
G37*
G36*
X01024Y02362D02*
X01102Y02283D01*
X0126*
Y02205*
X01024*
X00866Y02362*
Y02406*
Y02677*
X01024*
Y02362*
G37*
G36*
X03268Y0189D02*
X03212D01*
X03166Y01936*
Y02362*
X03164Y02368*
X03161Y02374*
X03156Y02377*
X0315Y02378*
X02953*
X02947Y02377*
X02941Y02374*
X02938Y02368*
X02937Y02362*
Y02211*
X02867Y02142*
X02717*
X0271Y02141*
X02705Y02137*
X02702Y02132*
X027Y02126*
Y01929*
Y0189*
X02363*
Y01909*
X02366Y01916*
X02367Y01923*
Y01959*
X02366Y01966*
X02363Y01973*
X02358Y01978*
X02353Y01983*
X02346Y01986*
X02339Y01987*
X02332Y01986*
X02325Y01983*
X02324Y01982*
X02319Y01984*
Y02008*
X02318Y02014*
X02315Y02019*
X02309Y02023*
X02303Y02024*
X02126*
Y02165*
X01929*
Y02147*
X01906*
X01904Y02148*
X01895Y0215*
X01854*
X01848Y02155*
X01841Y02158*
X01833Y02159*
X01825Y02158*
X01817Y02155*
X01811Y0215*
X01806Y02143*
X01803Y02136*
X01802Y02128*
X01803Y0212*
X01802Y02118*
X018Y02117*
X01793Y02112*
X01788Y02106*
X01785Y02099*
X01784Y02091*
X01785Y02083*
X01788Y02075*
X01789*
X01783Y02069*
X0177*
Y02085*
Y02105*
Y02147*
X01683*
Y02146*
X01637*
X01636Y02148*
X0163Y02153*
X01622Y02156*
X01614Y02157*
X01606Y02156*
X01599Y02153*
X01592Y02148*
X01588Y02141*
X01584Y02134*
X01583Y02126*
X01584Y02118*
X01588Y02111*
X01591Y02106*
X01588Y02102*
X01584Y02095*
X01583Y02087*
X01584Y02079*
X01588Y02071*
X01592Y02065*
X01599Y0206*
X01604Y02053*
X01599Y02047*
X01596Y02039*
X01595Y02031*
X01596Y02024*
X01599Y02016*
X01604Y0201*
X01611Y02005*
X01618Y02002*
X01626Y02001*
X01634Y02002*
X01641Y02005*
X01648Y0201*
X01653Y02016*
X01656Y02024*
X01657Y02031*
X01656Y02039*
X01654Y02043*
X01657Y02047*
X01683*
Y02046*
Y02026*
X0177*
Y02029*
X01791*
X01799Y02031*
X01806Y02035*
X01822Y02051*
X01826Y02049*
Y01933*
X01828Y01924*
X01833Y01916*
X01855Y01894*
X01853Y0189*
X01473*
Y02294*
X01477Y02296*
X01492Y02281*
X01547*
X01575Y02309*
Y02384*
X01547Y02411*
X01492*
X01477Y02397*
X01473Y02399*
Y02445*
X01539*
X01549Y02446*
X01557Y02449*
X01565Y02455*
X0157Y02462*
X01574Y02471*
X01575Y0248*
X01574Y0249*
X0157Y02498*
X01565Y02506*
X01557Y02511*
X01549Y02515*
X01539Y02516*
X01543Y0252*
X01588*
X01634Y02474*
Y02283*
X01635Y02277*
X01638Y02272*
X01643Y02269*
X0165Y02267*
X01764*
X0177Y02269*
X01775Y02272*
X01779Y02277*
X0178Y02283*
Y0252*
X01819*
Y02283*
X0182Y02277*
X01823Y02272*
X01829Y02269*
X01835Y02267*
X01957*
X0196Y02268*
X01963Y02269*
X01966Y0227*
X01968Y02272*
X0197Y02275*
X01972Y02277*
Y02278*
X02058Y02504*
X02106*
Y02484*
X02224*
Y02504*
X02264*
Y02484*
X02382*
Y02504*
X02874*
X0288Y02505*
X02885Y02508*
X02889Y02514*
X0289Y0252*
X03268*
Y0189*
G37*
G36*
X01764Y02283D02*
X0165D01*
Y0248*
X01587Y02543*
X01102*
Y02717*
X0138*
Y0269*
X01407Y02662*
X01482*
X0151Y0269*
Y02717*
X01764*
Y02283*
G37*
G36*
X03913Y02593D02*
X03957D01*
Y02583*
X03967*
Y02543*
X03992*
Y02542*
X04055Y02477*
X0411Y02421*
Y024*
X0408*
X04073Y02399*
X04068Y02395*
X04064Y02389*
X04063Y02383*
X04064Y02376*
X04068Y02371*
Y02369*
X04064Y02364*
X04063Y02357*
X04064Y02351*
X04068Y02345*
Y02344*
X04064Y02338*
X04063Y02332*
X04064Y02325*
X04068Y02319*
Y02318*
X04064Y02313*
X04063Y02306*
X04064Y02299*
X04068Y02294*
Y02293*
X04064Y02287*
X04063Y02281*
X04064Y02274*
X04068Y02268*
Y02267*
X04064Y02262*
X04063Y02255*
X04064Y02248*
X04068Y02243*
Y02242*
X04066Y02239*
X04073*
X0408Y02238*
X0411*
Y02221*
X0408*
X04073Y0222*
Y02219*
X04066*
X04068Y02217*
Y02216*
X04064Y0221*
X04063Y02204*
X04064Y02197*
X04062Y02193*
X03972*
Y02354*
Y02429*
X03913*
Y02492*
X03764*
Y02429*
X03705*
Y02354*
Y02193*
X03676*
X03673Y02198*
X03665Y02203*
X03656Y02205*
X03648Y02203*
X0364Y02198*
X03637Y02193*
X03615*
X03613Y02197*
X03615Y02204*
X03613Y0221*
X03609Y02216*
Y02217*
X03611Y02219*
X03604*
Y0222*
X03597Y02221*
X03567*
Y02238*
X03597*
X03604Y02239*
X03611*
X03609Y02242*
Y02243*
X03613Y02248*
X03615Y02255*
X03613Y02262*
X03609Y02267*
Y02268*
X03613Y02274*
X03615Y02281*
X03613Y02287*
X03609Y02293*
Y02294*
X03613Y02299*
X03615Y02306*
X03613Y02313*
X03609Y02318*
Y02319*
X03613Y02325*
X03615Y02332*
X03613Y02338*
X03609Y02344*
Y02345*
X03613Y02351*
X03615Y02357*
X03614Y0236*
X03618Y02363*
X0362Y02362*
X03629Y0236*
X03638Y02362*
X03645Y02367*
X0365Y02374*
X03652Y02383*
X0365Y02392*
X03645Y02399*
X03638Y02404*
X03629Y02406*
X0362Y02404*
X03613Y02399*
X03612*
X03603*
X03597Y024*
X03567*
Y02543*
X03593*
Y02583*
X03602*
Y02593*
X03646*
Y02614*
X03677*
Y02593*
X03764*
Y02614*
X03795*
Y02593*
X03882*
Y02614*
X03913*
Y02593*
G37*
G36*
X02303Y01902D02*
X01965D01*
Y02008*
X02303*
Y01902*
G37*
G36*
X02874Y0252D02*
X02047D01*
X01957Y02283*
X01835*
Y02717*
X019*
Y0269*
X01927Y02662*
X02002*
X0203Y0269*
Y02717*
X02874*
Y0252*
G37*
%LNpendulum-2*%
%LPC*%
G36*
X035Y01071D02*
X0349Y0107D01*
X0348Y01066*
X03475Y01062*
X035Y01037*
X03525Y01062*
X0352Y01066*
X0351Y0107*
X035Y01071*
G37*
G36*
X03929Y01345D02*
X03647Y01063D01*
X03697Y01013*
X03979Y01295*
X03929Y01345*
G37*
G36*
X03429Y01D02*
X03419Y00999D01*
X03409Y00995*
X03401Y00989*
X03395Y0098*
X03391Y00971*
X0339Y00961*
X03391Y0095*
X03395Y00941*
X03401Y00932*
X03409Y00926*
X03419Y00922*
X03429Y00921*
X03439Y00922*
X03449Y00926*
X03457Y00932*
X03464Y00941*
X03468Y0095*
X03469Y00961*
X03468Y00971*
X03464Y0098*
X03457Y00989*
X03449Y00995*
X03439Y00999*
X03429Y01*
G37*
G36*
X02839Y00927D02*
Y00908D01*
X02849*
Y00916*
X02848Y00921*
X02845Y00924*
X02842Y00927*
X02839*
G37*
G36*
X02238Y0092D02*
X02199D01*
Y00908*
X02188*
X02187*
X02181Y00912*
X02173Y00914*
X02166Y00912*
X02159Y00908*
X02155Y00901*
X02153Y00894*
X02155Y00886*
X02159Y0088*
X02166Y00875*
X02173Y00874*
X02181Y00875*
X02187Y0088*
X02188*
X02199*
Y00863*
X02238*
Y0092*
G37*
G36*
X0353Y01056D02*
X03505Y01031D01*
X0353Y01006*
X03534Y01011*
X03538Y01021*
X0354Y01031*
X03538Y01042*
X03534Y01051*
X0353Y01056*
G37*
G36*
X03469D02*
X03466Y01051D01*
X03462Y01042*
X0346Y01031*
X03462Y01021*
X03466Y01011*
X03469Y01006*
X03494Y01031*
X03469Y01056*
G37*
G36*
X035Y01026D02*
X03475Y01001D01*
X0348Y00997*
X0349Y00993*
X035Y00992*
X0351Y00993*
X0352Y00997*
X03525Y01001*
X035Y01026*
G37*
G36*
X02077Y01258D02*
X02061D01*
Y01233*
X02077*
Y01258*
G37*
G36*
X02053D02*
X02037D01*
Y01233*
X02053*
Y01258*
G37*
G36*
X02196Y01252D02*
X02181D01*
Y01237*
X02185*
X02191Y01242*
X02196Y01248*
Y01252*
G37*
G36*
X02173D02*
X02158D01*
X02159Y01248*
X02163Y01242*
X02169Y01237*
X02173*
Y01252*
G37*
G36*
X02142Y01244D02*
Y01228D01*
X02157*
X02156Y01232*
X02152Y01239*
X02145Y01243*
X02142Y01244*
G37*
G36*
X02134Y0122D02*
X02119D01*
Y01217*
X02124Y0121*
X0213Y01206*
X02134Y01205*
Y0122*
G37*
G36*
X02319Y01197D02*
X02311Y01196D01*
X02305Y01191*
X023Y01185*
X02299Y01179*
X02283*
Y01104*
X0235*
Y01122*
X02354Y01123*
X02361Y01128*
X02365Y01134*
X02367Y01142*
X02365Y01149*
X02361Y01156*
X02354Y0116*
X0235Y01161*
Y01179*
X02339*
X02337Y01185*
X02333Y01191*
X02327Y01196*
X02319Y01197*
G37*
G36*
X02134Y01244D02*
X0213Y01243D01*
X02124Y01239*
X02119Y01232*
Y01228*
X02134*
Y01244*
G37*
G36*
X02157Y0122D02*
X02142D01*
Y01205*
X02145Y01206*
X02152Y0121*
X02156Y01217*
X02157Y0122*
G37*
G36*
X03571Y01016D02*
X03515Y00961D01*
X03571Y00905*
X03626Y00961*
X03571Y01016*
G37*
G36*
X02636Y00622D02*
X02561D01*
Y0061*
X02555Y00609*
X02549Y00605*
X02544Y00598*
X02543Y00591*
X02544Y00583*
X02549Y00576*
X02555Y00572*
X02561Y00571*
Y00555*
X02636*
Y00571*
X02642Y00572*
X02648Y00576*
X02652Y00583*
X02654Y00591*
X02652Y00598*
X02648Y00605*
X02642Y00609*
X02636Y0061*
Y00622*
G37*
G36*
X02972Y0057D02*
X02969D01*
X02962Y00565*
X02958Y00559*
X02957Y00555*
X02972*
Y0057*
G37*
G36*
X03189Y008D02*
X03172Y00798D01*
X03155Y00794*
X03139Y00788*
X03124Y00778*
X03111Y00767*
X031Y00754*
X0309Y00739*
X03084Y00723*
X0308Y00706*
X03078Y00689*
X0308Y00672*
X03084Y00655*
X0309Y00639*
X031Y00624*
X03111Y00611*
X03124Y006*
X03139Y0059*
X03155Y00584*
X03172Y0058*
X03189Y00578*
X03206Y0058*
X03223Y00584*
X03239Y0059*
X03254Y006*
X03267Y00611*
X03278Y00624*
X03288Y00639*
X03294Y00655*
X03298Y00672*
X033Y00689*
X03298Y00706*
X03294Y00723*
X03288Y00739*
X03278Y00754*
X03267Y00767*
X03254Y00778*
X03239Y00788*
X03223Y00794*
X03206Y00798*
X03189Y008*
G37*
G36*
X02362D02*
X02345Y00798D01*
X02328Y00794*
X02312Y00788*
X02297Y00778*
X02284Y00767*
X02273Y00754*
X02264Y00739*
X02257Y00723*
X02253Y00706*
X02252Y00689*
X02253Y00672*
X02257Y00655*
X02264Y00639*
X02273Y00624*
X02284Y00611*
X02297Y006*
X02312Y0059*
X02328Y00584*
X02345Y0058*
X02362Y00578*
X0238Y0058*
X02396Y00584*
X02412Y0059*
X02427Y006*
X0244Y00611*
X02452Y00624*
X02461Y00639*
X02467Y00655*
X02471Y00672*
X02473Y00689*
X02471Y00706*
X02467Y00723*
X02461Y00739*
X02452Y00754*
X0244Y00767*
X02427Y00778*
X02412Y00788*
X02396Y00794*
X0238Y00798*
X02362Y008*
G37*
G36*
X02636Y0051D02*
X02602D01*
Y0048*
X02636*
Y0051*
G37*
G36*
X02594Y00547D02*
X02561D01*
Y0053*
X02556Y00523*
Y0052*
X02575*
Y00512*
X02556*
Y00508*
X02561Y00502*
Y00501*
Y0048*
X02594*
Y00514*
Y00547*
G37*
G36*
X02972D02*
X02957D01*
X02958Y00544*
X02962Y00537*
X02969Y00533*
X02972Y00532*
Y00547*
G37*
G36*
X02636D02*
X02602D01*
Y00518*
X02636*
Y00547*
G37*
G36*
X03429Y00859D02*
X03419Y00857D01*
X03409Y00854*
X03401Y00847*
X03395Y00839*
X03391Y00829*
X0339Y00819*
X03391Y00809*
X03395Y00799*
X03401Y00791*
X03409Y00785*
X03419Y00781*
X03429Y00779*
X03439Y00781*
X03449Y00785*
X03457Y00791*
X03464Y00799*
X03468Y00809*
X03469Y00819*
X03468Y00829*
X03464Y00839*
X03457Y00847*
X03449Y00854*
X03439Y00857*
X03429Y00859*
G37*
G36*
X02941Y00905D02*
Y0089D01*
X02956*
Y00894*
X02951Y009*
X02945Y00904*
X02941Y00905*
G37*
G36*
X02933D02*
X02929Y00904D01*
X02923Y009*
X02918Y00894*
Y0089*
X02933*
Y00905*
G37*
G36*
X02921Y00913D02*
X02906D01*
Y00898*
X02909Y00899*
X02916Y00903*
X0292Y0091*
X02921Y00913*
G37*
G36*
X02898D02*
X02882D01*
X02883Y0091*
X02887Y00903*
X02894Y00899*
X02898Y00898*
Y00913*
G37*
G36*
X03359Y0093D02*
X03348Y00928D01*
X03339Y00924*
X0333Y00918*
X03324Y0091*
X0332Y009*
X03319Y0089*
X0332Y0088*
X03324Y0087*
X0333Y00862*
X03339Y00855*
X03348Y00851*
X03359Y0085*
X03369Y00851*
X03378Y00855*
X03387Y00862*
X03393Y0087*
X03397Y0088*
X03398Y0089*
X03397Y009*
X03393Y0091*
X03387Y00918*
X03378Y00924*
X03369Y00928*
X03359Y0093*
G37*
G36*
X035D02*
X0349Y00928D01*
X0348Y00924*
X03472Y00918*
X03466Y0091*
X03462Y009*
X0346Y0089*
X03462Y0088*
X03466Y0087*
X03472Y00862*
X0348Y00855*
X0349Y00851*
X035Y0085*
X0351Y00851*
X0352Y00855*
X03528Y00862*
X03534Y0087*
X03538Y0088*
X0354Y0089*
X03538Y009*
X03534Y0091*
X03528Y00918*
X0352Y00924*
X0351Y00928*
X035Y0093*
G37*
G36*
X02956Y00882D02*
X02941D01*
Y00867*
X02945*
X02951Y00872*
X02956Y00878*
Y00882*
G37*
G36*
X02933D02*
X02918D01*
Y00878*
X02923Y00872*
X02929Y00867*
X02933*
Y00882*
G37*
G36*
X03106Y01492D02*
X03103Y01491D01*
X03096Y01487*
X03092Y0148*
X03091Y01476*
X03106*
Y01492*
G37*
G36*
X0313Y01469D02*
X03114D01*
Y01453*
X03118Y01454*
X03124Y01458*
X03129Y01465*
X0313Y01469*
G37*
G36*
X03259Y01494D02*
X03257Y01493D01*
X03254Y01491*
X0325Y0149*
X03246Y01491*
X03243Y01493*
X03241Y01494*
Y01444*
Y01394*
X03243Y01395*
X03246Y01397*
X0325Y01398*
X03254Y01397*
X03257Y01395*
X03259Y01394*
Y01444*
Y01494*
G37*
G36*
X03114Y01492D02*
Y01476D01*
X0313*
X03129Y0148*
X03124Y01487*
X03118Y01491*
X03114Y01492*
G37*
G36*
X04035Y01465D02*
X04025Y01464D01*
X04016Y0146*
X04007Y01453*
X04001Y01445*
X03997Y01436*
X03996Y01425*
X03997Y01415*
X04001Y01405*
X04007Y01397*
X04016Y01391*
X04025Y01387*
X04035Y01386*
X04046Y01387*
X04055Y01391*
X04064Y01397*
X0407Y01405*
X04074Y01415*
X04075Y01425*
X04074Y01436*
X0407Y01445*
X04064Y01453*
X04055Y0146*
X04046Y01464*
X04035Y01465*
G37*
G36*
X02601Y01407D02*
X02599D01*
X02594Y01403*
X0259Y01398*
X02589Y01392*
Y01361*
X02601*
Y01407*
G37*
G36*
X03106Y01469D02*
X03091D01*
X03092Y01465*
X03096Y01458*
X03103Y01454*
X03106Y01453*
Y01469*
G37*
G36*
X03233Y01494D02*
X03231Y01493D01*
X03226Y0149*
X03222Y01484*
X03221Y01478*
Y01462*
X0322Y01461*
X03213Y01459*
X03206Y01455*
X03202Y01449*
X03201Y01445*
X0322*
Y01437*
X03201*
X03202Y01433*
X03206Y01427*
X03213Y01422*
X0322Y01421*
X03221Y0142*
Y01409*
X03222Y01403*
X03226Y01398*
X03231Y01395*
X03233Y01394*
Y01444*
Y01494*
G37*
G36*
X02268Y01665D02*
X02252D01*
X02253Y01662*
X02257Y01655*
X02264Y01651*
X02268Y0165*
Y01665*
G37*
G36*
X03829Y02573D02*
X03795D01*
Y02543*
X03829*
Y02573*
G37*
G36*
X03764D02*
X0373D01*
Y02543*
X03764*
Y02573*
G37*
G36*
X03947D02*
X03913D01*
Y02543*
X03947*
Y02573*
G37*
G36*
X03882D02*
X03848D01*
Y02543*
X03882*
Y02573*
G37*
G36*
X02874Y02378D02*
X0252D01*
X02514Y02377*
X02508Y02374*
X0243Y02295*
X02395Y0226*
X02165*
X02159Y02259*
X02154Y02255*
X02151Y0225*
X02149Y02244*
Y02205*
Y02087*
X02151Y0208*
X02154Y02075*
X02159Y02072*
X02165Y02071*
X02395*
X02425Y02041*
Y01929*
X02426Y01923*
X0243Y01918*
X02435Y01914*
X02441Y01913*
X02598*
X02605Y01914*
X0261Y01918*
X02613Y01923*
X02614Y01929*
Y02119*
X02644Y02149*
X02835*
X0284Y0215*
X02841Y02151*
X02846Y02154*
X02885Y02193*
X02889Y02199*
Y022*
X0289Y02205*
Y02362*
X02889Y02368*
X02885Y02374*
X0288Y02377*
X02874Y02378*
G37*
G36*
X02291Y01665D02*
X02276D01*
Y0165*
X02279Y01651*
X02286Y01655*
X0229Y01662*
X02291Y01665*
G37*
G36*
X03711Y02573D02*
X03677D01*
Y02543*
X03711*
Y02573*
G37*
G36*
X03646D02*
X03612D01*
Y02543*
X03646*
Y02573*
G37*
G36*
X02077Y0129D02*
X02061D01*
Y01266*
X02077*
Y0129*
G37*
G36*
X02053D02*
X02037D01*
Y01266*
X02053*
Y0129*
G37*
G36*
X02157Y01291D02*
X02142D01*
Y01276*
X02145Y01277*
X02152Y01281*
X02156Y01288*
X02157Y01291*
G37*
G36*
X02134D02*
X02119D01*
Y01288*
X02124Y01281*
X0213Y01277*
X02134Y01276*
Y01291*
G37*
G36*
X02181Y01275D02*
Y0126D01*
X02196*
Y01264*
X02191Y0127*
X02185Y01274*
X02181Y01275*
G37*
G36*
X02173D02*
X02169Y01274D01*
X02163Y0127*
X02159Y01264*
X02158Y0126*
X02173*
Y01275*
G37*
G36*
X02571Y01279D02*
Y01264D01*
X02586*
X02585Y01268*
X02581Y01274*
X02575Y01278*
X02571Y01279*
G37*
G36*
X02563D02*
X02559Y01278D01*
X02553Y01274*
X02548Y01268*
Y01264*
X02563*
Y01279*
G37*
G36*
X02002Y0129D02*
X01963D01*
Y01278*
X01951*
X01945Y01282*
X01937Y01284*
X01929Y01282*
X01923Y01278*
X01918Y01271*
X01917Y01264*
X01918Y01256*
X01923Y0125*
X01929Y01245*
X01937Y01244*
X01945Y01245*
X01951Y0125*
X01963*
Y01233*
X02002*
Y0129*
G37*
G36*
X02507Y01339D02*
X02492D01*
Y01323*
X02496Y01324*
X02502Y01328*
X02507Y01335*
Y01339*
G37*
G36*
X02484D02*
X02469D01*
X0247Y01335*
X02474Y01328*
X02481Y01324*
X02484Y01323*
Y01339*
G37*
G36*
X02492Y01362D02*
Y01346D01*
X02507*
Y0135*
X02502Y01357*
X02496Y01361*
X02492Y01362*
G37*
G36*
X02484D02*
X02481Y01361D01*
X02474Y01357*
X0247Y0135*
X02469Y01346*
X02484*
Y01362*
G37*
G36*
X02601Y01353D02*
X02589D01*
Y01323*
X0259Y01317*
X02594Y01311*
X02599Y01308*
X02601*
Y01353*
G37*
G36*
X03311Y01339D02*
X03303Y01337D01*
X03297Y01333*
X03292Y01327*
X03291Y01319*
Y01316*
X0328Y01305*
X03277Y01301*
X03276Y01296*
Y01236*
X03271Y01234*
X03269Y01235*
X03263Y01237*
X03257Y01235*
X03254Y01233*
X0325Y01232*
X03246Y01233*
X03243Y01235*
X03237Y01237*
X03231Y01235*
X03226Y01232*
X03222Y01227*
X03221Y0122*
Y01159*
X03218Y01153*
X03216Y01146*
Y01145*
X03211Y01143*
Y01144*
X03205Y01148*
X03197Y0115*
X03189Y01148*
X03183Y01144*
X03178Y01138*
X03177Y0113*
X03178Y01122*
X03183Y01116*
X03189Y01111*
X03197Y0111*
X03199*
X03208Y01102*
X03212Y01099*
X03217Y01098*
X03236*
X03241Y01099*
X03245Y01096*
X03241Y0109*
X0324Y01083*
X03241Y01075*
X03246Y01068*
X03252Y01064*
X0326Y01063*
X03268Y01064*
X03274Y01068*
X03275Y01071*
X03299*
X03304Y01072*
X03308Y01074*
X03348Y01115*
X0335Y01117*
X03355*
X03357Y01115*
X03397Y01074*
X03401Y01072*
X03406Y01071*
X03421*
X03423Y01068*
X03429Y01064*
X03437Y01063*
X03445Y01064*
X03451Y01068*
X03456Y01075*
X03457Y01083*
X03456Y0109*
X03451Y01097*
X03445Y01101*
X03437Y01103*
X03429Y01101*
X03423Y01097*
X03421Y01095*
X03411*
X03377Y01128*
Y01136*
X03382Y01138*
X03385Y01137*
X03391Y01136*
X03397Y01137*
X034Y01139*
X03404Y0114*
X03407Y01139*
X0341Y01137*
X03416Y01136*
X03422Y01137*
X03428Y0114*
X03431Y01145*
X03432Y01152*
Y01174*
X03581*
X03587Y0117*
X03594Y01169*
X03602Y0117*
X03609Y01175*
X03613Y01181*
X03615Y01189*
X03613Y01197*
X03609Y01203*
X03602Y01208*
X03594Y01209*
X03587Y01208*
X0358Y01203*
X03577Y01198*
X03432*
Y0122*
X03431Y01227*
X03428Y01232*
X03422Y01235*
X03416Y01237*
X03414Y01236*
X03411Y0124*
X03414Y01244*
X03445*
X03446Y01242*
X03453Y01237*
X03461Y01236*
X03468Y01237*
X03475Y01242*
X03479Y01248*
X03481Y01256*
X03479Y01264*
X03475Y0127*
X03468Y01274*
X03461Y01276*
X03453Y01274*
X03446Y0127*
X03445Y01268*
X03409*
X03405Y01267*
X03401Y01264*
X03382Y01246*
X0338Y01242*
X03379Y01237*
Y01236*
X03374Y01234*
X03371Y01235*
X03365Y01237*
X03359Y01235*
X03356Y01233*
X03352Y01232*
X03349Y01233*
X03346Y01235*
X03342Y01236*
X0334Y01241*
X03343Y01246*
X03345Y01254*
X03343Y01262*
X03339Y01268*
X03332Y01272*
X03325Y01274*
X03317Y01272*
X03311Y01268*
X03306Y01262*
X03305Y01257*
X033Y01258*
Y01291*
X03308Y01299*
X03311*
X03319Y013*
X03325Y01305*
X0333Y01311*
X03331Y01319*
X0333Y01327*
X03325Y01333*
X03319Y01337*
X03311Y01339*
G37*
G36*
X02134Y01315D02*
X0213Y01314D01*
X02124Y01309*
X02119Y01303*
Y01299*
X02134*
Y01315*
G37*
G36*
X02142D02*
Y01299D01*
X02157*
X02156Y01303*
X02152Y01309*
X02145Y01314*
X02142Y01315*
G37*
%LNpendulum-3*%
%LPD*%
G36*
X02874Y02205D02*
D01*
X02835Y02165*
X02638*
X02598Y02126*
Y01929*
X02441*
Y02047*
X02402Y02087*
X02165*
Y02205*
Y02244*
X02402*
X02441Y02283*
X0252Y02362*
X02874*
Y02205*
G37*
G54D10*
X03742Y01939D03*
X03935D03*
Y02392D03*
X03742D03*
G54D11*
X03839Y02423D03*
Y01907D03*
G54D12*
X03839Y02165D03*
G54D13*
X03567Y01948D03*
Y01973D03*
Y01999D03*
Y02076D03*
Y0205D03*
Y02025D03*
Y02178D03*
Y02204D03*
Y02229D03*
Y02153D03*
Y02127D03*
Y02101D03*
Y02332D03*
Y02357D03*
Y02383D03*
Y02306D03*
Y02281D03*
Y02255D03*
X0411D03*
Y02281D03*
Y02306D03*
Y02383D03*
Y02357D03*
Y02332D03*
Y02101D03*
Y02127D03*
Y02153D03*
Y02229D03*
Y02204D03*
Y02178D03*
Y02025D03*
Y0205D03*
Y02076D03*
Y01999D03*
Y01973D03*
Y01948D03*
G54D14*
X02165Y02421D03*
Y02539D03*
X02323D03*
Y02421D03*
G54D15*
X01188Y02638D03*
G54D16*
X00938Y02638D03*
G54D17*
X02089Y01142D03*
X02163D03*
Y01063D03*
X02089D03*
X02242Y01142D03*
X02317D03*
G54D18*
X02028Y01937D03*
Y02157D03*
G54D19*
X03602Y02693D03*
Y02583D03*
X0372Y02693D03*
Y02583D03*
X03839Y02693D03*
Y02583D03*
X03957Y02693D03*
Y02583D03*
X02358Y01677D03*
Y01787D03*
X02614Y01673D03*
Y01783D03*
X02764Y01673D03*
Y01783D03*
X02921Y01673D03*
Y01783D03*
G54D20*
X04154Y02695D03*
Y0262D03*
X04252Y02695D03*
Y0262D03*
X02598Y00589D03*
Y00514D03*
G54D21*
X02799Y02008D03*
X02516D03*
G54D22*
X03416Y01444D03*
X03391D03*
X03365D03*
X0334D03*
X03314D03*
X03288D03*
X03263D03*
X03237D03*
X03416Y01186D03*
X03391D03*
X03365D03*
X0334D03*
X03314D03*
X03288D03*
X03263D03*
X02861Y01357D03*
X02887D03*
X02912D03*
X02938D03*
X02861Y01099D03*
X02887D03*
X02912D03*
X02938D03*
X02836Y01357D03*
X0281D03*
X02784D03*
X02759D03*
X02733D03*
X02708D03*
X02682D03*
X02656D03*
X02631D03*
X02605D03*
X02836Y01099D03*
X0281D03*
X02784D03*
X02759D03*
X02733D03*
X02708D03*
X02682D03*
X02656D03*
X02631D03*
G54D23*
X03237Y01186D03*
X02605Y01099D03*
G54D24*
X02969Y01496D03*
X02858D03*
G54D25*
X02057Y01262D03*
X01982D03*
X02057Y01368D03*
X0202D03*
X01982D03*
X02293Y00892D03*
X02219D03*
X02293Y00998D03*
X02256D03*
X02219D03*
G54D26*
X02835Y00905D03*
X02815D03*
X02795D03*
X02776D03*
X02756D03*
Y00788D03*
X02776D03*
X02795D03*
X02815D03*
X02835D03*
G54D27*
X02853Y00846D03*
Y00866D03*
Y00827D03*
X02737D03*
Y00866D03*
Y00846D03*
G54D28*
X0276Y00587D03*
X02925D03*
G54D29*
X02921Y00543D03*
X0289D03*
X02858D03*
X02827D03*
X02795D03*
X02764D03*
Y0063D03*
X02795D03*
X02827D03*
X02858D03*
X0289D03*
X02921D03*
G54D30*
X02697Y02283D03*
Y02677D03*
G54D31*
X01727Y02126D03*
Y02106D03*
Y02087D03*
Y02047D03*
Y02067D03*
X01895D03*
Y02047D03*
Y02087D03*
Y02106D03*
Y02126D03*
G54D32*
X03904Y01732D03*
X04049D03*
G54D33*
X03335Y02283D03*
X03083D03*
X03335Y01988D03*
X03083D03*
G54D34*
X02339Y02153D03*
Y01941D03*
X02189D03*
X02239D03*
X02289D03*
Y02153D03*
X02239D03*
X02189D03*
G54D35*
X04484Y02041D03*
Y02683D03*
G54D36*
X0439Y02165D03*
Y02205D03*
Y02244D03*
Y02283D03*
Y02323D03*
Y02362D03*
Y02402D03*
Y02441D03*
Y0248D03*
Y0252D03*
Y02559D03*
G54D37*
X01227Y02246D02*
X01228Y02244D01*
X01097Y02246D02*
X01227D01*
X00938Y02405D02*
X01097Y02246D01*
X00938Y02405D02*
Y02638D01*
X01243Y02583D02*
X01342D01*
X01188Y02638D02*
X01243Y02583D01*
X0189Y02343D02*
Y02453D01*
X01705Y02343D02*
Y025D01*
X01622Y02583D02*
X01705Y025D01*
X02516Y0222D02*
X02579Y02283D01*
X02697*
X02575Y02677D02*
X02697D01*
X025Y02602D02*
X02575Y02677D01*
X02039Y02602D02*
X025D01*
X0189Y02453D02*
X02039Y02602D01*
X01342Y02583D02*
X01622D01*
X02516Y02008D02*
Y02161D01*
Y0222*
X03213Y02146D02*
X03315D01*
G54D38*
X04035Y01512D02*
Y01567D01*
X01972Y01839D02*
X02752D01*
X02799Y01886*
X04075Y01913D02*
X04189D01*
X03961Y01693D02*
Y01791D01*
X03641Y02101D02*
X03656Y02117D01*
X039Y01691D02*
X03904D01*
Y01732*
X02717Y0063D02*
D01*
X02764*
X03237Y01444D02*
X03263D01*
X03288D02*
Y01507D01*
X03083Y01988D02*
D01*
X02984D02*
X03083D01*
Y02283D02*
D01*
X02984D02*
X03083D01*
X04109Y02102D02*
X0411Y02101D01*
X04028Y02102D02*
X04109D01*
X04028D02*
Y0213D01*
X03656Y02117D02*
Y02182D01*
X03567Y02101D02*
X03641D01*
X03567Y01948D02*
X03627D01*
X03567Y02383D02*
X03629D01*
X03957Y02559D02*
Y02583D01*
X01835Y02126D02*
X01895D01*
Y02106D02*
Y02126D01*
X0185Y01933D02*
X01906Y01878D01*
X02327*
X02339Y0189*
Y01941*
X0185Y01933D02*
Y02079D01*
X02799Y01886D02*
Y02008D01*
X0404Y01948D02*
X0411D01*
X04039Y01949D02*
X0404Y01948D01*
X04073Y01732D02*
X04106D01*
X0439Y02323D02*
X04437D01*
X04457Y02343*
X04189Y01913D02*
X04268Y01992D01*
Y02016*
X04394Y02094D02*
Y02161D01*
X0439Y02165D02*
X04394Y02161D01*
G54D39*
X02996Y00472D02*
X03004Y0048D01*
X01783Y02102D02*
Y0213D01*
X01768Y02087D02*
X01783Y02102D01*
X01727Y02087D02*
X01768D01*
X03008Y0065D02*
Y00685D01*
X03004Y00646D02*
X03008Y0065D01*
X03449Y01843D02*
Y02075D01*
X03437Y02299D02*
Y02307D01*
Y02299D02*
X03472Y02264D01*
X02795Y00905D02*
Y00961D01*
X02799Y00965*
X02803Y00969*
X02823*
X02902Y01563D02*
X03177D01*
X0248Y01433D02*
Y01642D01*
X02528Y01689*
X02543*
X02163Y01063D02*
D01*
Y01142*
Y01063D02*
X02319D01*
X02559Y0102D02*
X02622D01*
X02631Y01029*
Y01099*
X02598Y00894D02*
X02669Y00965D01*
X02598Y0085D02*
Y00894D01*
X02858Y01173D02*
X02861Y0117D01*
Y01099D02*
Y0117D01*
X02992Y00827D02*
Y00949D01*
X03592Y01186D02*
X03594Y01189D01*
X03527Y01186D02*
X03592D01*
X03416D02*
X03527D01*
X03043Y01099D02*
Y01098D01*
X03016Y01161D02*
X03024D01*
X0298Y01197D02*
X03016Y01161D01*
X0302Y01193D02*
X03024D01*
Y01201*
X03012Y01213D02*
X03024Y01201D01*
X02803Y01197D02*
X0298D01*
X03071Y00917D02*
X03091Y00937D01*
X03071Y00827D02*
Y00917D01*
X02938Y01099D02*
X03043D01*
X03031Y00465D02*
Y00709D01*
X02815Y00949D02*
X03047D01*
X02949Y0061D02*
Y00705D01*
X03047Y00949D02*
X03049Y00951D01*
X02949Y00705D02*
X02953Y00709D01*
X02563Y00902D02*
X02656Y00995D01*
X02563Y0085D02*
Y00902D01*
X02543Y01193D02*
X02552Y01184D01*
X02655D02*
X02682Y01156D01*
X02552Y01184D02*
X02655D01*
X02791Y01213D02*
X03012D01*
X02528Y01106D02*
X02534Y01099D01*
X02925Y01547D02*
X03476D01*
X03433Y01862D02*
Y02085D01*
X03374Y01854D02*
X03417Y01898D01*
X03327Y01854D02*
X03374D01*
X03406Y01835D02*
X03433Y01862D01*
X03406Y01835D02*
D01*
Y01799D02*
X03449Y01843D01*
X0287Y01579D02*
X03161D01*
X03327Y0189D02*
X03374D01*
X03402Y01917*
X03524Y01594D02*
Y0161D01*
X03476Y01547D02*
X03524Y01594D01*
X03177Y01563D02*
X03232Y01618D01*
X03161Y01579D02*
X03201Y01618D01*
X03134Y01594D02*
X03201Y01661D01*
X03114Y0161D02*
X03118D01*
X03169Y01661*
X03106Y01665D02*
X0311D01*
X03067Y01626D02*
X03106Y01665D01*
X02784Y0158D02*
X02815Y0161D01*
X02913Y01535D02*
X02925Y01547D01*
X02913Y01516D02*
Y01535D01*
X0289Y01551D02*
X02902Y01563D01*
X02858Y01567D02*
X0287Y01579D01*
X02858Y01551D02*
Y01567D01*
X02843Y01594D02*
X03134D01*
X02823Y01575D02*
X02843Y01594D01*
X02815Y0161D02*
X03118D01*
X02733Y01304D02*
Y01357D01*
X02724Y01295D02*
X02733Y01304D01*
X02681Y01421D02*
X02682Y0142D01*
Y01357D02*
Y0142D01*
X02759Y01436D02*
X0276Y01437D01*
X02759Y01357D02*
Y01436D01*
X02827Y01496D02*
X02858D01*
X02815Y01484D02*
X02827Y01496D01*
X03416Y01503D02*
X03417Y01504D01*
X03416Y01444D02*
Y01503D01*
X0411Y02204D02*
X04192D01*
X02784Y01357D02*
Y0158D01*
X02734Y01626D02*
X03067D01*
X02708Y01599D02*
X02734Y01626D01*
X03374Y02083D02*
X03402Y02055D01*
X03374Y02142D02*
X03409Y02177D01*
Y02323D02*
X03425Y02339D01*
X03402Y01917D02*
Y02055D01*
X03374Y02083D02*
Y02142D01*
X03409Y02177D02*
Y02323D01*
X03425Y02339D02*
X03488D01*
X03521Y02306*
X03567*
X03481Y02255D02*
X03567D01*
X03472Y02264D02*
X03481Y02255D01*
X02811Y00823D02*
X02819D01*
X02835Y00807*
Y00788D02*
Y00807D01*
X02811Y00823D02*
X02835Y00846D01*
X02853*
X02783Y01205D02*
X02791Y01213D01*
X02783Y01205D02*
D01*
X02759Y01153D02*
X02803Y01197D01*
X02708Y01357D02*
Y01599D01*
X0281Y01479D02*
X02815Y01484D01*
X0281Y01357D02*
Y01479D01*
X02575Y01441D02*
X02578Y01438D01*
X02656*
Y01357D02*
Y01438D01*
X03622Y01315D02*
Y01331D01*
X03606Y01346D02*
X03622Y01331D01*
X03365Y01387D02*
X03366Y01386D01*
X03365Y01387D02*
Y01444D01*
X03314Y01391D02*
X03358Y01346D01*
X03283Y01512D02*
X03288Y01507D01*
Y01186D02*
Y01296D01*
X03311Y01319*
X03409Y01256D02*
X03461D01*
X03391Y01237D02*
X03409Y01256D01*
X03391Y01186D02*
Y01237D01*
X03314Y01186D02*
Y01243D01*
X03325Y01254*
X03197Y0113D02*
X03217Y0111D01*
X03236*
X03263Y01137*
Y01186*
X0326Y01083D02*
X03299D01*
X0334Y01123*
Y01186*
X03406Y01083D02*
X03437D01*
X03365Y01123D02*
X03406Y01083D01*
X03365Y01123D02*
Y01186D01*
X03358Y01346D02*
X03606D01*
X03314Y01391D02*
Y01444D01*
X03024Y00457D02*
X03031Y00465D01*
X02799Y00457D02*
X03024D01*
X02764Y00492D02*
X02799Y00457D01*
X02764Y00492D02*
Y00543D01*
X03035Y00969D02*
X03102Y01035D01*
X02733Y01155D02*
X02783Y01205D01*
X02733Y01099D02*
Y01155D01*
X02759Y01099D02*
Y01153D01*
X0289Y0048D02*
X02898Y00472D01*
X0289Y0048D02*
Y00543D01*
X03004Y0048D02*
Y00646D01*
X02898Y00472D02*
X02996D01*
X02836Y01019D02*
Y01099D01*
X02682D02*
Y01156D01*
X02752Y01201D02*
Y01232D01*
X02708Y01156D02*
X02752Y01201D01*
X02708Y01099D02*
Y01156D01*
X02861Y01292D02*
X02882Y01272D01*
X03047Y00949D02*
X03118Y0102D01*
X03055Y01272D02*
X03087Y0124D01*
X03063Y01287D02*
X03102Y01248D01*
X02656Y00995D02*
Y01099D01*
X02776Y00984D02*
X0278Y00988D01*
X0281Y01023D02*
Y01099D01*
X03028Y00988D02*
X03087Y01047D01*
X0278Y00988D02*
X03028D01*
X03087Y01047D02*
Y0124D01*
X02882Y01272D02*
X03055D01*
X02861Y01292D02*
Y01357D01*
X02823Y00969D02*
X03035D01*
X03102Y01035D02*
Y01248D01*
X02894Y01287D02*
X03063D01*
X02887Y01294D02*
X02894Y01287D01*
X02887Y01294D02*
Y01357D01*
X03118Y0102D02*
Y01256D01*
X03071Y01303D02*
X03118Y01256D01*
X02917Y01303D02*
X03071D01*
X02912Y01308D02*
X02917Y01303D01*
X02912Y01308D02*
Y01357D01*
X03134Y01035D02*
Y01268D01*
X03044Y01357D02*
X03134Y01268D01*
X02938Y01357D02*
X03044D01*
X0285Y00824D02*
X02853Y00827D01*
X0285Y00748D02*
Y00824D01*
X02925Y00587D02*
X02949Y0061D01*
X02677Y00594D02*
Y00677D01*
X02665Y00689D02*
X02677Y00677D01*
X02563Y00689D02*
X02665D01*
X02815Y00905D02*
Y00949D01*
X02776Y00905D02*
Y00984D01*
X02705Y0085D02*
X02709Y00846D01*
X02737*
X02685Y00587D02*
X0276D01*
X02677Y00594D02*
X02685Y00587D01*
X04201Y02555D02*
Y0262D01*
X04188Y02255D02*
X04189Y02256D01*
X0411Y02255D02*
X04188D01*
X04252Y0262D02*
D01*
X04154D02*
X04252D01*
X0411Y02153D02*
X04209D01*
X0411Y02127D02*
X04111Y02126D01*
X04201*
X03394Y0213D02*
X03409Y02146D01*
X03394Y02098D02*
Y0213D01*
X03435Y02146D02*
X03439Y0215D01*
X03435Y02146D02*
X03493Y02204D01*
X03417Y01898D02*
Y02075D01*
X03394Y02098D02*
X03417Y02075D01*
X03409Y02146D02*
X03435D01*
X03425Y02114D02*
X03429D01*
X03493Y02178*
X03433Y02085D02*
X03501Y02153D01*
X03449Y02075D02*
X03501Y02127D01*
X03567*
X03501Y02153D02*
X03567D01*
X03493Y02178D02*
X03567D01*
X03493Y02204D02*
X03567D01*
X0411Y02178D02*
X04214D01*
X01895Y02047D02*
X01976D01*
X02028Y01996*
Y01937D02*
Y01996D01*
X01895Y02067D02*
X01976D01*
X02028Y02118*
Y02157*
X01729Y02049D02*
X01791D01*
X01727Y02047D02*
X01729Y02049D01*
X01638Y02067D02*
X01727D01*
X01626Y02055D02*
X01638Y02067D01*
X01626Y02031D02*
Y02055D01*
X01614Y02126D02*
X01727D01*
X01654Y02106D02*
X01727D01*
X01634Y02087D02*
X01654Y02106D01*
X01614Y02087D02*
X01634D01*
X01833Y02128D02*
X01835Y02126D01*
X01815Y02073D02*
Y02091D01*
X01791Y02049D02*
X01815Y02073D01*
X04252Y02695D02*
D01*
X03031Y00827D02*
Y00909D01*
X03106Y00984*
X0313*
X03063Y01051D02*
X03076Y01038D01*
Y01037D02*
Y01038D01*
X02534Y01099D02*
X02605D01*
X02528Y00882D02*
Y01106D01*
X02836Y01019D02*
X0285Y01004D01*
X03008*
X03028Y01024*
X02886Y01028D02*
Y01098D01*
X02887Y01099*
X02705Y0085D02*
Y01004D01*
X02756Y00992D02*
X02768Y01004D01*
X02791*
X0281Y01023*
X02756Y00905D02*
Y00992D01*
X02744Y00681D02*
X02886D01*
X02902Y00697*
X04214Y02178D02*
X04228Y02193D01*
Y02232*
X0439Y02283D02*
X04441D01*
X04457Y02299*
X0439Y02205D02*
X04457D01*
X0439Y02244D02*
X04449D01*
X04457Y02252*
X04209Y02153D02*
X04227D01*
X04228Y02154*
X04201Y02126D02*
X04244D01*
X04256Y02138*
Y02268*
X04244Y0228D02*
X04256Y02268D01*
X03134Y01035D02*
X03209Y00961D01*
X02163Y01142D02*
X02242D01*
X03669Y01063D02*
X03688Y01082D01*
X03678Y01073*
X03706Y01045*
X03697Y01091D02*
X03725Y01063D01*
X03711Y01077*
Y01086*
X0372Y01096*
X03729*
X03743Y01082*
X03766Y01105D02*
X03757Y01096D01*
X03748*
X03739Y01105*
Y01114*
X03748Y01124*
X03757*
X03762Y01119*
X03743Y011*
X03753Y01147D02*
X03762Y01156D01*
X03757Y01151*
X03785Y01124*
X0378Y01119*
X0379Y01128*
X03804Y01142D02*
X03785Y01161D01*
X03799Y01175*
X03808*
X03822Y01161*
X03831Y01207D02*
X03817Y01193D01*
Y01184*
X03827Y01175*
X03836*
X0385Y01188*
X03859Y01198D02*
X03855Y01202D01*
X03859Y01207*
X03864Y01202*
X03859Y01198*
X03873Y01267D02*
X03864Y01258D01*
X03868Y01263*
X03892Y0124*
Y0123*
X03887Y01226*
X03878*
X03906Y01291D02*
X03896D01*
X03887Y01281*
Y01272*
X03892Y01267*
X03901*
X0391Y01277*
X03919*
X03924Y01272*
Y01263*
X03915Y01253*
X03906*
X03933Y01318D02*
X03924D01*
X03915Y01309*
Y013*
X03933Y01281*
X03943*
X03952Y01291*
Y013*
X03943Y01309*
X03933Y013*
G54D40*
X0222Y00972D02*
X02244Y00949D01*
X02268D02*
X02291Y00972D01*
X02244Y00949D02*
X02268D01*
X02031Y01315D02*
X02055Y01339D01*
X02004Y01315D02*
X02031D01*
X01984Y01335D02*
X02004Y01315D01*
X01984Y01335D02*
Y01339D01*
X01972Y01059D02*
X02057Y00974D01*
X01969Y01063D02*
X01972Y01059D01*
X02059*
X01665Y01366D02*
X01667Y01368D01*
X01982*
X03961Y01791D02*
X03992Y01823D01*
X04067*
X03508Y01906D02*
Y02043D01*
Y01906D02*
X03563Y0185D01*
Y01772D02*
Y0185D01*
X04213Y0187D02*
X04323Y0198D01*
X03508Y02043D02*
X03515Y0205D01*
X03567*
X0411D02*
X04213D01*
X0411Y02306D02*
X04176D01*
X04067Y01823D02*
X04114Y0187D01*
X04213*
X02057Y00974D02*
X02219D01*
X0222Y00972*
X04214Y02344D02*
Y02458D01*
X04295Y02539*
X0439*
Y0252D02*
Y02559D01*
X04176Y02306D02*
X04214Y02344D01*
X04213Y0205D02*
X0428Y02117D01*
Y02449*
X04291Y02461*
X0439*
Y02441D02*
Y0248D01*
X04323Y0198D02*
Y02382D01*
X0439*
Y02362D02*
Y02402D01*
G54D41*
X01437Y0248D02*
X01539D01*
X01969Y01063D02*
D01*
X01437Y01594D02*
X01969Y01063D01*
X01437Y01594D02*
Y0248D01*
X03598Y02689D02*
X03602Y02693D01*
G54D42*
X02441Y00815D02*
X02535Y0072D01*
X02333Y00892D02*
X02335Y0089D01*
X02293Y00892D02*
X02333D01*
X02256Y01035D02*
D01*
Y00998D02*
Y01035D01*
X02217Y00894D02*
X02219Y00892D01*
X02173Y00894D02*
X02217D01*
X0198Y01264D02*
X01982Y01262D01*
X01937Y01264D02*
X0198D01*
X02728Y0078D02*
Y00818D01*
X02737Y00827*
X02728Y00875D02*
Y0089D01*
Y00875D02*
X02737Y00866D01*
X02535Y0072D02*
X02673D01*
X02717Y0063D02*
Y00677D01*
X02673Y0072D02*
X02717Y00677D01*
X0278Y00866D02*
X02853D01*
X02784Y01143D02*
X02803Y01161D01*
X02784Y01099D02*
Y01143D01*
X02921Y005D02*
Y00543D01*
D01*
X01858Y02087D02*
X01895D01*
X0185Y02079D02*
X01858Y02087D01*
X02366Y0089D02*
X02441Y00815D01*
X02335Y0089D02*
X02366D01*
G54D43*
X03602Y02693D02*
X03957D01*
X03335Y01988D02*
Y02496D01*
X03528Y02689*
X03598*
G54D44*
X01228Y02343D03*
G54D45*
X01228Y02244D03*
G54D46*
X0189Y02343D03*
X01705D03*
X0152Y02346D03*
G54D47*
X01965Y02718D03*
X01445D03*
G54D48*
X0374Y02067D03*
X03789D03*
X03839D03*
X03888D03*
X03937D03*
X03789Y01969D03*
X03839D03*
X03888D03*
X0374Y02165D03*
X03789D03*
X03839D03*
X03888D03*
X03937D03*
X0374Y02264D03*
X03789D03*
X03839D03*
X03888D03*
X03937D03*
X03839Y02362D03*
X03789D03*
X03888D03*
G54D49*
X04035Y01567D03*
X03965Y01496D03*
X04035Y01425D03*
X035Y01031D03*
X03429Y00961D03*
X03359Y0089D03*
X03429Y00819D03*
X035Y0089D03*
G54D50*
X04106Y01496D03*
X03571Y00961D03*
G54D51*
X02346Y01142D03*
X02319Y01177D03*
X0311Y01472D03*
X02272Y01669D03*
X02937Y01461D03*
X02921Y01705D03*
X02764D03*
X02614Y01642D03*
X02394Y01677D03*
X02323Y01795D03*
X02543Y01689D03*
X0248Y01433D03*
X02957Y01791D03*
X02799D03*
X0265D03*
X02059Y01059D03*
Y01138D03*
X02559Y0102D03*
X02335Y0089D03*
X0202Y01398D03*
X02256Y01035D03*
X02173Y00894D03*
X02291Y00972D03*
X0222D03*
X02055Y01339D03*
X01984D03*
X01937Y01264D03*
X02138Y01295D03*
X02177Y01256D03*
X02138Y01224D03*
X02669Y00965D03*
X02598Y0085D03*
X02728Y0089D03*
Y0078D03*
X02673Y0072D03*
X0278Y00866D03*
X03594Y01189D03*
X03209Y00961D03*
X03091Y00937D03*
X03071Y00827D03*
X03031D03*
Y00709D03*
X03008Y00685D03*
X02992Y00827D03*
X02953Y00709D03*
X02563Y0085D03*
X02543Y01193D03*
X03236Y01146D03*
X02528Y01106D03*
X03406Y01799D03*
Y01835D03*
X03327Y01854D03*
Y0189D03*
X03524Y0161D03*
X03232Y01618D03*
X03201D03*
Y01661D03*
X02913Y01516D03*
X0289Y01551D03*
X02858D03*
X02823Y01575D03*
X03169Y01661D03*
X0311Y01665D03*
X02724Y01295D03*
X02681Y01421D03*
X0276Y01437D03*
X02488Y01343D03*
X02795Y00657D03*
X02827D03*
X02921D03*
X0289D03*
X03024Y01193D03*
Y01161D03*
X02811Y00823D03*
X02858Y01173D03*
X02575Y01441D03*
X03622Y01315D03*
X03417Y01504D03*
X03366Y01386D03*
X03339Y01492D03*
X0322Y01441D03*
X03283Y01512D03*
X03311Y01319D03*
X03461Y01256D03*
X03325Y01254D03*
X03197Y0113D03*
X0326Y01083D03*
X03437D03*
X02705Y01004D03*
X02799Y00965D03*
X03043Y01098D03*
X02886Y01028D03*
X03028Y01024D03*
X02752Y01232D03*
X02909Y01161D03*
X02803D03*
X02913Y01051D03*
X0263Y01406D03*
X02835Y01307D03*
X02921Y01236D03*
X02567Y0126D03*
Y01217D03*
X0285Y00748D03*
X02563Y00689D03*
X02921Y005D03*
X02902Y00917D03*
X02937Y00886D03*
X02717Y00555D03*
Y0063D03*
X02976Y00551D03*
Y0063D03*
X02634Y00591D03*
X02563D03*
X0313Y00984D03*
X03063Y01051D03*
X02528Y00882D03*
X02744Y00681D03*
X02902Y00697D03*
X02575Y00516D03*
G54D52*
X03831Y01732D03*
X01457Y0248D03*
X01496D03*
X01539D03*
X01972Y01839D03*
X04457Y02343D03*
X04287Y02697D03*
X04118D03*
X01378Y01937D03*
X01575Y02244D03*
X01555Y02165D03*
Y02008D03*
Y01929D03*
X01228Y02063D03*
X02087Y02283D03*
X02008Y02244D03*
X01835Y02224D03*
X01642Y01945D03*
X01776Y02008D03*
X01555Y02087D03*
X01358Y0248D03*
X01232Y02398D03*
X02402Y02362D03*
X01783Y0213D03*
X02244Y02323D03*
X02165D03*
X02323D03*
X02835Y02441D03*
X02756D03*
X02913D03*
X02441D03*
X02992D03*
X0252D03*
X02677D03*
X03071D03*
X0315D03*
X03217D03*
Y02358D03*
X02598Y02441D03*
X04268Y02016D03*
X03654Y02004D03*
X03961Y01693D03*
Y01732D03*
Y01772D03*
X03563D03*
Y01811D03*
Y0185D03*
X039Y01691D03*
X04039Y01949D03*
X02319Y01063D03*
X02984Y01988D03*
Y02283D03*
X04201Y02555D03*
X04189Y02256D03*
X04106Y01732D03*
X04028Y0213D03*
X03656Y02182D03*
X04192Y02204D03*
X03213Y02047D03*
Y02126D03*
Y02205D03*
X03425Y02114D03*
X03437Y02307D03*
X03627Y01948D03*
X03629Y02383D03*
X0415Y02394D03*
X03213Y02283D03*
Y01969D03*
X01626Y02031D03*
X01614Y02087D03*
Y02126D03*
X01833Y02128D03*
X01752Y02224D03*
X01815Y02091D03*
X04228Y02232D03*
X04457Y02299D03*
Y02205D03*
Y02252D03*
X04228Y02154D03*
X04244Y0228D03*
X04394Y02094D03*
M02*