%FSTAX23Y23*%
%MOIN*%
%SFA1B1*%

%IPPOS*%
%AMD90*
4,1,8,0.042500,-0.030700,0.042500,0.030700,0.021200,0.052000,-0.021200,0.052000,-0.042500,0.030700,-0.042500,-0.030700,-0.021200,-0.052000,0.021200,-0.052000,0.042500,-0.030700,0.0*
%
%AMD91*
4,1,8,0.030700,0.042500,-0.030700,0.042500,-0.052000,0.021200,-0.052000,-0.021200,-0.030700,-0.042500,0.030700,-0.042500,0.052000,-0.021200,0.052000,0.021200,0.030700,0.042500,0.0*
%
%AMD95*
4,1,4,0.048400,0.000000,0.000000,0.048400,-0.048400,0.000000,0.000000,-0.048400,0.048400,0.000000,0.0*
%
%ADD52C,0.030000*%
%ADD68R,0.057000X0.065000*%
%ADD70R,0.077000X0.069000*%
%ADD71R,0.065000X0.057000*%
%ADD83R,0.053000X0.033000*%
%ADD88R,0.085000X0.085000*%
%ADD89C,0.085000*%
G04~CAMADD=90~4~0.0~0.0~1040.0~850.0~0.0~212.5~0~0.0~0.0~0.0~0.0~0~0.0~0.0~0.0~0.0~0~0.0~0.0~0.0~270.0~850.0~1040.0*
%ADD90D90*%
G04~CAMADD=91~4~0.0~0.0~1040.0~850.0~0.0~212.5~0~0.0~0.0~0.0~0.0~0~0.0~0.0~0.0~0.0~0~0.0~0.0~0.0~0.0~1040.0~850.0*
%ADD91D91*%
%ADD92C,0.045000*%
%ADD93C,0.006000*%
%ADD94C,0.069000*%
G04~CAMADD=95~10~0.0~685.9~0.0~0.0~0.0~0.0~0~0.0~0.0~0.0~0.0~0~0.0~0.0~0.0~0.0~0~0.0~0.0~0.0~315.0~685.9~0.0*
%ADD95D95*%
%ADD96C,0.035000*%
%ADD97R,0.028000X0.045000*%
%LNpendulum-1*%
%LPD*%
G54D52*
X02346Y01142D03*
X02319Y01177D03*
X0311Y01472D03*
X02272Y01669D03*
X02937Y01461D03*
X02921Y01705D03*
X02764D03*
X02614Y01642D03*
X02394Y01677D03*
X02323Y01795D03*
X02543Y01689D03*
X0248Y01433D03*
X02957Y01791D03*
X02799D03*
X0265D03*
X02059Y01059D03*
Y01138D03*
X02559Y0102D03*
X02335Y0089D03*
X0202Y01398D03*
X02256Y01035D03*
X02173Y00894D03*
X02291Y00972D03*
X0222D03*
X02055Y01339D03*
X01984D03*
X01937Y01264D03*
X02138Y01295D03*
X02177Y01256D03*
X02138Y01224D03*
X02669Y00965D03*
X02598Y0085D03*
X02728Y0089D03*
Y0078D03*
X02673Y0072D03*
X0278Y00866D03*
X03594Y01189D03*
X03209Y00961D03*
X03091Y00937D03*
X03071Y00827D03*
X03031D03*
Y00709D03*
X03008Y00685D03*
X02992Y00827D03*
X02953Y00709D03*
X02563Y0085D03*
X02543Y01193D03*
X03236Y01146D03*
X02528Y01106D03*
X03406Y01799D03*
Y01835D03*
X03327Y01854D03*
Y0189D03*
X03524Y0161D03*
X03232Y01618D03*
X03201D03*
Y01661D03*
X02913Y01516D03*
X0289Y01551D03*
X02858D03*
X02823Y01575D03*
X03169Y01661D03*
X0311Y01665D03*
X02724Y01295D03*
X02681Y01421D03*
X0276Y01437D03*
X02488Y01343D03*
X02795Y00657D03*
X02827D03*
X02921D03*
X0289D03*
X03024Y01193D03*
Y01161D03*
X02811Y00823D03*
X02858Y01173D03*
X02575Y01441D03*
X03622Y01315D03*
X03417Y01504D03*
X03366Y01386D03*
X03339Y01492D03*
X0322Y01441D03*
X03283Y01512D03*
X03311Y01319D03*
X03461Y01256D03*
X03325Y01254D03*
X03197Y0113D03*
X0326Y01083D03*
X03437D03*
X02705Y01004D03*
X02799Y00965D03*
X03043Y01098D03*
X02886Y01028D03*
X03028Y01024D03*
X02752Y01232D03*
X02909Y01161D03*
X02803D03*
X02913Y01051D03*
X0263Y01406D03*
X02835Y01307D03*
X02921Y01236D03*
X02567Y0126D03*
Y01217D03*
X0285Y00748D03*
X02563Y00689D03*
X02921Y005D03*
X02902Y00917D03*
X02937Y00886D03*
X02717Y00555D03*
Y0063D03*
X02976Y00551D03*
Y0063D03*
X02634Y00591D03*
X02563D03*
X0313Y00984D03*
X03063Y01051D03*
X02528Y00882D03*
X02744Y00681D03*
X02902Y00697D03*
X02575Y00516D03*
G54D68*
X03211Y01476D03*
X03285D03*
X03033Y02283D03*
X03108D03*
X01833Y02028D03*
X01907D03*
Y01949D03*
X01833D03*
X0175Y02106D03*
X01675D03*
X02419Y0111D03*
X02494D03*
X02419Y01307D03*
X02494D03*
X04549Y02409D03*
X04624D03*
X04549Y02311D03*
X04624D03*
X04549Y02213D03*
X04624D03*
X03033Y01988D03*
X03108D03*
X02675Y0128D03*
X026D03*
Y01201D03*
X02675D03*
X02892Y01122D03*
X02817D03*
X02892Y0124D03*
X02817D03*
X02494Y01209D03*
X02419D03*
X03325Y01197D03*
X0325D03*
X03384Y01083D03*
X03309D03*
X03388Y01319D03*
X03463D03*
X03191D03*
X03266D03*
X01833Y02185D03*
X01907D03*
X0175D03*
X01675D03*
X0175Y02028D03*
X01675D03*
X02793Y00591D03*
X02719D03*
X02738Y00748D03*
X02813D03*
X02675Y00843D03*
X0275D03*
X029Y00591D03*
X02974D03*
X0175Y01949D03*
X01675D03*
G54D70*
X04134Y02181D03*
Y02071D03*
X02374Y01D03*
Y0089D03*
X02138Y0137D03*
Y0126D03*
G54D71*
X02303Y0177D03*
Y01695D03*
X0298Y01691D03*
Y01766D03*
X02823Y01691D03*
Y01766D03*
X02673Y01691D03*
Y01766D03*
X03429Y02443D03*
Y02368D03*
X02772Y01486D03*
Y01561D03*
X0311Y01573D03*
Y01498D03*
X03524Y02065D03*
Y0199D03*
X02575Y01486D03*
Y01561D03*
X03524Y02187D03*
Y02262D03*
X03425Y0199D03*
Y02065D03*
X03528Y02368D03*
Y02443D03*
X02673Y01561D03*
Y01486D03*
X02902Y00809D03*
Y00884D03*
X02256Y00911D03*
Y00986D03*
X02138Y00982D03*
Y00907D03*
X0202Y01278D03*
Y01352D03*
X01902D03*
Y01278D03*
X04075Y01888D03*
Y01813D03*
G54D83*
X04049Y01732D03*
X03904D03*
G54D88*
X01228Y02343D03*
G54D89*
X01228Y02244D03*
G54D90*
X0189Y02343D03*
X01705D03*
X0152Y02346D03*
G54D91*
X01965Y02718D03*
X01445D03*
G54D92*
X0374Y02067D03*
X03789D03*
X03839D03*
X03888D03*
X03937D03*
X03789Y01969D03*
X03839D03*
X03888D03*
X0374Y02165D03*
X03789D03*
X03839D03*
X03888D03*
X03937D03*
X0374Y02264D03*
X03789D03*
X03839D03*
X03888D03*
X03937D03*
X03839Y02362D03*
X03789D03*
X03888D03*
G54D93*
X03189Y00689D03*
X02362D03*
X01307Y01732D03*
X04252D03*
G54D94*
X04035Y01567D03*
X03965Y01496D03*
X04035Y01425D03*
X035Y01031D03*
X03429Y00961D03*
X03359Y0089D03*
X03429Y00819D03*
X035Y0089D03*
G54D95*
X04106Y01496D03*
X03571Y00961D03*
G54D96*
X03831Y01732D03*
X01457Y0248D03*
X01496D03*
X01539D03*
X01972Y01839D03*
X04457Y02343D03*
X04287Y02697D03*
X04118D03*
X01378Y01937D03*
X01575Y02244D03*
X01555Y02165D03*
Y02008D03*
Y01929D03*
X01228Y02063D03*
X02087Y02283D03*
X02008Y02244D03*
X01835Y02224D03*
X01642Y01945D03*
X01776Y02008D03*
X01555Y02087D03*
X01358Y0248D03*
X01232Y02398D03*
X02402Y02362D03*
X01783Y0213D03*
X02244Y02323D03*
X02165D03*
X02323D03*
X02835Y02441D03*
X02756D03*
X02913D03*
X02441D03*
X02992D03*
X0252D03*
X02677D03*
X03071D03*
X0315D03*
X03217D03*
Y02358D03*
X02598Y02441D03*
X04268Y02016D03*
X03654Y02004D03*
X03961Y01693D03*
Y01732D03*
Y01772D03*
X03563D03*
Y01811D03*
Y0185D03*
X039Y01691D03*
X04039Y01949D03*
X02319Y01063D03*
X02984Y01988D03*
Y02283D03*
X04201Y02555D03*
X04189Y02256D03*
X04106Y01732D03*
X04028Y0213D03*
X03656Y02182D03*
X04192Y02204D03*
X03213Y02047D03*
Y02126D03*
Y02205D03*
X03425Y02114D03*
X03437Y02307D03*
X03627Y01948D03*
X03629Y02383D03*
X0415Y02394D03*
X03213Y02283D03*
Y01969D03*
X01626Y02031D03*
X01614Y02087D03*
Y02126D03*
X01833Y02128D03*
X01752Y02224D03*
X01815Y02091D03*
X04228Y02232D03*
X04457Y02299D03*
Y02205D03*
Y02252D03*
X04228Y02154D03*
X04244Y0228D03*
X04394Y02094D03*
G54D97*
X02561Y00537D03*
X02636D03*
X02563Y00644D03*
X02636D03*
X02598D03*
M02*