%FSTAX23Y23*%
%MOIN*%
%SFA1B1*%

%IPPOS*%
%ADD39C,0.008000*%
%ADD60R,0.022000X0.055000*%
%LNpendulum-1*%
%LPD*%
G54D39*
X03348Y00689D02*
D01*
X03347Y00699*
X03346Y0071*
X03344Y00721*
X03341Y00732*
X03338Y00742*
X03334Y00752*
X03329Y00762*
X03324Y00772*
X03318Y00781*
X03311Y00789*
X03303Y00798*
X03296Y00805*
X03287Y00812*
X03278Y00819*
X03269Y00824*
X03259Y0083*
X03249Y00834*
X03239Y00838*
X03228Y00841*
X03218Y00843*
X03207Y00845*
X03196Y00845*
X03185*
X03174Y00845*
X03163Y00843*
X03153Y00841*
X03142Y00838*
X03132Y00834*
X03122Y0083*
X03112Y00824*
X03103Y00819*
X03094Y00812*
X03085Y00805*
X03078Y00798*
X0307Y00789*
X03063Y00781*
X03057Y00772*
X03052Y00762*
X03047Y00752*
X03043Y00742*
X0304Y00732*
X03037Y00721*
X03035Y0071*
X03034Y00699*
X03034Y00689*
X03034Y00678*
X03035Y00667*
X03037Y00656*
X0304Y00645*
X03043Y00635*
X03047Y00625*
X03052Y00615*
X03057Y00605*
X03063Y00596*
X0307Y00588*
X03078Y00579*
X03085Y00572*
X03094Y00565*
X03103Y00558*
X03112Y00553*
X03122Y00547*
X03132Y00543*
X03142Y00539*
X03153Y00536*
X03163Y00534*
X03174Y00532*
X03185Y00532*
X03196*
X03207Y00532*
X03218Y00534*
X03228Y00536*
X03239Y00539*
X03249Y00543*
X03259Y00547*
X03269Y00553*
X03278Y00558*
X03287Y00565*
X03296Y00572*
X03303Y00579*
X03311Y00588*
X03318Y00596*
X03324Y00605*
X03329Y00615*
X03334Y00625*
X03338Y00635*
X03341Y00645*
X03344Y00656*
X03346Y00667*
X03347Y00678*
X03348Y00689*
X02521D02*
D01*
X0252Y00699*
X02519Y0071*
X02517Y00721*
X02514Y00732*
X02511Y00742*
X02507Y00752*
X02502Y00762*
X02497Y00772*
X02491Y00781*
X02484Y00789*
X02476Y00798*
X02469Y00805*
X0246Y00812*
X02451Y00819*
X02442Y00824*
X02432Y0083*
X02422Y00834*
X02412Y00838*
X02401Y00841*
X02391Y00843*
X0238Y00845*
X02369Y00845*
X02358*
X02347Y00845*
X02336Y00843*
X02326Y00841*
X02315Y00838*
X02305Y00834*
X02295Y0083*
X02285Y00824*
X02276Y00819*
X02267Y00812*
X02258Y00805*
X02251Y00798*
X02243Y00789*
X02236Y00781*
X0223Y00772*
X02225Y00762*
X0222Y00752*
X02216Y00742*
X02213Y00732*
X0221Y00721*
X02208Y0071*
X02207Y00699*
X02207Y00689*
X02207Y00678*
X02208Y00667*
X0221Y00656*
X02213Y00645*
X02216Y00635*
X0222Y00625*
X02225Y00615*
X0223Y00605*
X02236Y00596*
X02243Y00588*
X02251Y00579*
X02258Y00572*
X02267Y00565*
X02276Y00558*
X02285Y00553*
X02295Y00547*
X02305Y00543*
X02315Y00539*
X02326Y00536*
X02336Y00534*
X02347Y00532*
X02358Y00532*
X02369*
X0238Y00532*
X02391Y00534*
X02401Y00536*
X02412Y00539*
X02422Y00543*
X02432Y00547*
X02442Y00553*
X02451Y00558*
X0246Y00565*
X02469Y00572*
X02476Y00579*
X02484Y00588*
X02491Y00596*
X02497Y00605*
X02502Y00615*
X02507Y00625*
X02511Y00635*
X02514Y00645*
X02517Y00656*
X02519Y00667*
X0252Y00678*
X02521Y00689*
X01466Y01732D02*
D01*
X01465Y01742*
X01464Y01753*
X01462Y01764*
X01459Y01775*
X01456Y01785*
X01452Y01795*
X01447Y01805*
X01442Y01815*
X01436Y01824*
X01429Y01832*
X01421Y01841*
X01414Y01848*
X01405Y01855*
X01396Y01862*
X01387Y01867*
X01377Y01873*
X01367Y01877*
X01357Y01881*
X01346Y01884*
X01336Y01886*
X01325Y01888*
X01314Y01888*
X01303*
X01292Y01888*
X01281Y01886*
X01271Y01884*
X0126Y01881*
X0125Y01877*
X0124Y01873*
X0123Y01867*
X01221Y01862*
X01212Y01855*
X01203Y01848*
X01196Y01841*
X01188Y01832*
X01181Y01824*
X01175Y01815*
X0117Y01805*
X01165Y01795*
X01161Y01785*
X01158Y01775*
X01155Y01764*
X01153Y01753*
X01152Y01742*
X01152Y01732*
X01152Y01721*
X01153Y0171*
X01155Y01699*
X01158Y01688*
X01161Y01678*
X01165Y01668*
X0117Y01658*
X01175Y01648*
X01181Y01639*
X01188Y01631*
X01196Y01622*
X01203Y01615*
X01212Y01608*
X01221Y01601*
X0123Y01596*
X0124Y0159*
X0125Y01586*
X0126Y01582*
X01271Y01579*
X01281Y01577*
X01292Y01575*
X01303Y01575*
X01314*
X01325Y01575*
X01336Y01577*
X01346Y01579*
X01357Y01582*
X01367Y01586*
X01377Y0159*
X01387Y01596*
X01396Y01601*
X01405Y01608*
X01414Y01615*
X01421Y01622*
X01429Y01631*
X01436Y01639*
X01442Y01648*
X01447Y01658*
X01452Y01668*
X01456Y01678*
X01459Y01688*
X01462Y01699*
X01464Y0171*
X01465Y01721*
X01466Y01732*
X04411D02*
D01*
X0441Y01742*
X04409Y01753*
X04407Y01764*
X04404Y01775*
X04401Y01785*
X04397Y01795*
X04392Y01805*
X04387Y01815*
X04381Y01824*
X04374Y01832*
X04366Y01841*
X04359Y01848*
X0435Y01855*
X04341Y01862*
X04332Y01867*
X04322Y01873*
X04312Y01877*
X04302Y01881*
X04291Y01884*
X04281Y01886*
X0427Y01888*
X04259Y01888*
X04248*
X04237Y01888*
X04226Y01886*
X04216Y01884*
X04205Y01881*
X04195Y01877*
X04185Y01873*
X04175Y01867*
X04166Y01862*
X04157Y01855*
X04148Y01848*
X04141Y01841*
X04133Y01832*
X04126Y01824*
X0412Y01815*
X04115Y01805*
X0411Y01795*
X04106Y01785*
X04103Y01775*
X041Y01764*
X04098Y01753*
X04097Y01742*
X04097Y01732*
X04097Y01721*
X04098Y0171*
X041Y01699*
X04103Y01688*
X04106Y01678*
X0411Y01668*
X04115Y01658*
X0412Y01648*
X04126Y01639*
X04133Y01631*
X04141Y01622*
X04148Y01615*
X04157Y01608*
X04166Y01601*
X04175Y01596*
X04185Y0159*
X04195Y01586*
X04205Y01582*
X04216Y01579*
X04226Y01577*
X04237Y01575*
X04248Y01575*
X04259*
X0427Y01575*
X04281Y01577*
X04291Y01579*
X04302Y01582*
X04312Y01586*
X04322Y0159*
X04332Y01596*
X04341Y01601*
X0435Y01608*
X04359Y01615*
X04366Y01622*
X04374Y01631*
X04381Y01639*
X04387Y01648*
X04392Y01658*
X04397Y01668*
X04401Y01678*
X04404Y01688*
X04407Y01699*
X04409Y0171*
X0441Y01721*
X04411Y01732*
X04014Y01705D02*
Y0176D01*
X03935D02*
X04014D01*
X03935Y01705D02*
X04014D01*
X03177Y01439D02*
X03319D01*
X03177Y01514D02*
X03319D01*
X03177Y01439D02*
Y01514D01*
X03319Y01439D02*
Y01514D01*
X03Y02246D02*
X03142D01*
X03Y02321D02*
X03142D01*
X03Y02246D02*
Y02321D01*
X03142Y02246D02*
Y02321D01*
X02266Y01661D02*
Y01803D01*
X02341Y01661D02*
Y01803D01*
X02266D02*
X02341D01*
X02266Y01661D02*
X02341D01*
X01799Y0199D02*
X01941D01*
X01799Y02065D02*
X01941D01*
X01799Y0199D02*
Y02065D01*
X01941Y0199D02*
Y02065D01*
X01799Y01986D02*
X01941D01*
X01799Y01911D02*
X01941D01*
Y01986*
X01799Y01911D02*
Y01986D01*
X01642Y02144D02*
X01783D01*
X01642Y02069D02*
X01783D01*
Y02144*
X01642Y02069D02*
Y02144D01*
X03018Y01657D02*
Y01799D01*
X02943Y01657D02*
Y01799D01*
Y01657D02*
X03018D01*
X02943Y01799D02*
X03018D01*
X0286Y01657D02*
Y01799D01*
X02785Y01657D02*
Y01799D01*
Y01657D02*
X0286D01*
X02785Y01799D02*
X0286D01*
X02711Y01657D02*
Y01799D01*
X02636Y01657D02*
Y01799D01*
Y01657D02*
X02711D01*
X02636Y01799D02*
X02711D01*
X02386Y01073D02*
X02528D01*
X02386Y01148D02*
X02528D01*
X02386Y01073D02*
Y01148D01*
X02528Y01073D02*
Y01148D01*
X02386Y0127D02*
X02528D01*
X02386Y01344D02*
X02528D01*
X02386Y0127D02*
Y01344D01*
X02528Y0127D02*
Y01344D01*
X04516Y02372D02*
X04657D01*
X04516Y02447D02*
X04657D01*
X04516Y02372D02*
Y02447D01*
X04657Y02372D02*
Y02447D01*
X04516Y02274D02*
X04657D01*
X04516Y02348D02*
X04657D01*
X04516Y02274D02*
Y02348D01*
X04657Y02274D02*
Y02348D01*
X04516Y02175D02*
X04657D01*
X04516Y0225D02*
X04657D01*
X04516Y02175D02*
Y0225D01*
X04657Y02175D02*
Y0225D01*
X04091Y02031D02*
X04177D01*
X04091Y0222D02*
X04177D01*
X04091Y02031D02*
Y0222D01*
X04177Y02031D02*
Y0222D01*
X03392Y02335D02*
Y02476D01*
X03467Y02335D02*
Y02476D01*
X03392D02*
X03467D01*
X03392Y02335D02*
X03467D01*
X02809Y01453D02*
Y01594D01*
X02734Y01453D02*
Y01594D01*
Y01453D02*
X02809D01*
X02734Y01594D02*
X02809D01*
X03073Y01465D02*
Y01606D01*
X03148Y01465D02*
Y01606D01*
X03073D02*
X03148D01*
X03073Y01465D02*
X03148D01*
X03486Y01957D02*
Y02098D01*
X03561Y01957D02*
Y02098D01*
X03486D02*
X03561D01*
X03486Y01957D02*
X03561D01*
X02612Y01453D02*
Y01594D01*
X02537Y01453D02*
Y01594D01*
Y01453D02*
X02612D01*
X02537Y01594D02*
X02612D01*
X03Y01951D02*
X03142D01*
X03Y02026D02*
X03142D01*
X03Y01951D02*
Y02026D01*
X03142Y01951D02*
Y02026D01*
X02709Y01242D02*
Y01317D01*
X02567Y01242D02*
Y01317D01*
X02709*
X02567Y01242D02*
X02709D01*
X02567Y01163D02*
X02709D01*
X02567Y01238D02*
X02709D01*
X02567Y01163D02*
Y01238D01*
X02709Y01163D02*
Y01238D01*
X03561Y02154D02*
Y02295D01*
X03486Y02154D02*
Y02295D01*
Y02154D02*
X03561D01*
X03486Y02295D02*
X03561D01*
X03388Y01957D02*
X03463D01*
X03388Y02098D02*
X03463D01*
Y01957D02*
Y02098D01*
X03388Y01957D02*
Y02098D01*
X03565Y02335D02*
Y02476D01*
X0349Y02335D02*
Y02476D01*
Y02335D02*
X03565D01*
X0349Y02476D02*
X03565D01*
X02783Y01159D02*
X02925D01*
X02783Y01085D02*
X02925D01*
Y01159*
X02783Y01085D02*
Y01159D01*
Y01278D02*
X02925D01*
X02783Y01203D02*
X02925D01*
Y01278*
X02783Y01203D02*
Y01278D01*
X02528Y01171D02*
Y01246D01*
X02386Y01171D02*
Y01246D01*
X02528*
X02386Y01171D02*
X02528D01*
X03358Y01159D02*
Y01234D01*
X03217Y01159D02*
Y01234D01*
X03358*
X03217Y01159D02*
X03358D01*
X03417Y01045D02*
Y0112D01*
X03276Y01045D02*
Y0112D01*
X03417*
X03276Y01045D02*
X03417D01*
X03354Y01281D02*
Y01356D01*
X03496Y01281D02*
Y01356D01*
X03354Y01281D02*
X03496D01*
X03354Y01356D02*
X03496D01*
X03157Y01281D02*
Y01356D01*
X03299Y01281D02*
Y01356D01*
X03157Y01281D02*
X03299D01*
X03157Y01356D02*
X03299D01*
X02636Y01453D02*
Y01594D01*
X02711Y01453D02*
Y01594D01*
X02636D02*
X02711D01*
X02636Y01453D02*
X02711D01*
X01799Y02148D02*
Y02222D01*
X01941Y02148D02*
Y02222D01*
X01799Y02148D02*
X01941D01*
X01799Y02222D02*
X01941D01*
X01783Y02148D02*
Y02222D01*
X01642Y02148D02*
Y02222D01*
X01783*
X01642Y02148D02*
X01783D01*
Y0199D02*
Y02065D01*
X01642Y0199D02*
Y02065D01*
X01783*
X01642Y0199D02*
X01783D01*
X02827Y00553D02*
Y00628D01*
X02685Y00553D02*
Y00628D01*
X02827*
X02685Y00553D02*
X02827D01*
X02705Y00711D02*
Y00785D01*
X02846Y00711D02*
Y00785D01*
X02705Y00711D02*
X02846D01*
X02705Y00785D02*
X02846D01*
X02642Y00805D02*
Y0088D01*
X02783Y00805D02*
Y0088D01*
X02642Y00805D02*
X02783D01*
X02642Y0088D02*
X02783D01*
X02864Y00776D02*
X02939D01*
X02864Y00917D02*
X02939D01*
Y00776D02*
Y00917D01*
X02864Y00776D02*
Y00917D01*
X02866Y00553D02*
Y00628D01*
X03008Y00553D02*
Y00628D01*
X02866Y00553D02*
X03008D01*
X02866Y00628D02*
X03008D01*
X02545Y00565D02*
X02652D01*
Y00616*
X02545D02*
X02652D01*
X02545Y00565D02*
Y00616D01*
X02331Y0085D02*
Y01039D01*
X02417Y0085D02*
Y01039D01*
X02331Y0085D02*
X02417D01*
X02331Y01039D02*
X02417D01*
X02219Y00878D02*
X02293D01*
X02219Y0102D02*
X02293D01*
Y00878D02*
Y0102D01*
X02219Y00878D02*
Y0102D01*
X021Y01016D02*
X02175D01*
X021Y00874D02*
X02175D01*
X021D02*
Y01016D01*
X02175Y00874D02*
Y01016D01*
X02094Y0122D02*
Y01409D01*
X02181Y0122D02*
Y01409D01*
X02094Y0122D02*
X02181D01*
X02094Y01409D02*
X02181D01*
X01982Y01244D02*
X02057D01*
X01982Y01386D02*
X02057D01*
Y01244D02*
Y01386D01*
X01982Y01244D02*
Y01386D01*
X01864D02*
X01939D01*
X01864Y01244D02*
X01939D01*
X01864D02*
Y01386D01*
X01939Y01244D02*
Y01386D01*
X01642Y01986D02*
X01783D01*
X01642Y01911D02*
X01783D01*
Y01986*
X01642Y01911D02*
Y01986D01*
X04037Y01921D02*
X04112D01*
X04037Y0178D02*
X04112D01*
X04037D02*
Y01921D01*
X04112Y0178D02*
Y01921D01*
X04035Y0163D02*
X04169Y01496D01*
X04035Y01362D02*
X04169Y01496D01*
X03902D02*
X04035Y01362D01*
X03902Y01496D02*
X04035Y0163D01*
X03499Y01094D02*
X03633Y0096D01*
X0343Y00757D02*
X03633Y0096D01*
X03296Y0089D02*
X0343Y00757D01*
X03296Y0089D02*
X03499Y01094D01*
X03734Y01332D02*
X03873Y01193D01*
X04012Y01332*
X03734D02*
X03873Y01472D01*
X03803Y01402D02*
X03943Y01263D01*
X03873Y01472D02*
X04012Y01332D01*
X03803Y01263D02*
X03943Y01402D01*
X01753Y01883D02*
X0176Y0189D01*
X01773*
X0178Y01883*
Y01857*
X01773Y0185*
X0176*
X01753Y01857*
X0174Y01883D02*
X01734Y0189D01*
X0172*
X01714Y01883*
Y01877*
X0172Y0187*
X01727*
X0172*
X01714Y01864*
Y01857*
X0172Y0185*
X01734*
X0174Y01857*
X01701Y01883D02*
X01694Y0189D01*
X01681*
X01675Y01883*
Y01857*
X01681Y0185*
X01694*
X01701Y01857*
Y01883*
X01661D02*
X01655Y0189D01*
X01642*
X01635Y01883*
Y01877*
X01642Y0187*
X01635Y01864*
Y01857*
X01642Y0185*
X01655*
X01661Y01857*
Y01864*
X01655Y0187*
X01661Y01877*
Y01883*
X01655Y0187D02*
X01642D01*
X03612Y02365D02*
X03618Y02358D01*
Y02345*
X03612Y02339*
X03585*
X03579Y02345*
Y02358*
X03585Y02365*
X03579Y02378D02*
Y02391D01*
Y02385*
X03618*
X03612Y02378*
Y02411D02*
X03618Y02417D01*
Y0243*
X03612Y02437*
X03585*
X03579Y0243*
Y02417*
X03585Y02411*
X03612*
Y0245D02*
X03618Y02457D01*
Y0247*
X03612Y02476*
X03605*
X03598Y0247*
Y02463*
Y0247*
X03592Y02476*
X03585*
X03579Y0247*
Y02457*
X03585Y0245*
X04013Y01837D02*
X0402Y01831D01*
Y01818*
X04013Y01811*
X03987*
X0398Y01818*
Y01831*
X03987Y01837*
X0398Y0185D02*
Y01863D01*
Y01857*
X0402*
X04013Y0185*
Y01883D02*
X0402Y0189D01*
Y01903*
X04013Y01909*
X03987*
X0398Y01903*
Y0189*
X03987Y01883*
X04013*
X0402Y01949D02*
X04013Y01936D01*
X04Y01923*
X03987*
X0398Y01929*
Y01942*
X03987Y01949*
X03993*
X04Y01942*
Y01923*
X03612Y02184D02*
X03618Y02177D01*
Y02164*
X03612Y02157*
X03585*
X03579Y02164*
Y02177*
X03585Y02184*
X03579Y02197D02*
Y0221D01*
Y02203*
X03618*
X03612Y02197*
Y0223D02*
X03618Y02236D01*
Y02249*
X03612Y02256*
X03585*
X03579Y02249*
Y02236*
X03585Y0223*
X03612*
X03618Y02269D02*
Y02295D01*
X03612*
X03585Y02269*
X03579*
X01915Y02277D02*
X01921Y02283D01*
X01934*
X01941Y02277*
Y02251*
X01934Y02244*
X01921*
X01915Y02251*
X01902Y02277D02*
X01895Y02283D01*
X01882*
X01875Y02277*
Y0227*
X01882Y02264*
X01888*
X01882*
X01875Y02257*
Y02251*
X01882Y02244*
X01895*
X01902Y02251*
X01862Y02277D02*
X01856Y02283D01*
X01843*
X01836Y02277*
Y02251*
X01843Y02244*
X01856*
X01862Y02251*
Y02277*
X01823D02*
X01816Y02283D01*
X01803*
X01797Y02277*
Y02251*
X01803Y02244*
X01816*
X01823Y02251*
Y02277*
X0156Y02206D02*
X01567Y02213D01*
X0158*
X01587Y02206*
Y0218*
X0158Y02173*
X01567*
X0156Y0218*
X01547Y02206D02*
X01541Y02213D01*
X01528*
X01521Y02206*
Y02199*
X01528Y02193*
X01534*
X01528*
X01521Y02186*
Y0218*
X01528Y02173*
X01541*
X01547Y0218*
X01508Y02206D02*
X01501Y02213D01*
X01488*
X01482Y02206*
Y0218*
X01488Y02173*
X01501*
X01508Y0218*
Y02206*
X01469Y02173D02*
X01455D01*
X01462*
Y02213*
X01469Y02206*
X0208Y009D02*
X02087Y00894D01*
Y00881*
X0208Y00874*
X02054*
X02047Y00881*
Y00894*
X02054Y009*
X0208Y00913D02*
X02087Y0092D01*
Y00933*
X0208Y0094*
X02073*
X02067Y00933*
Y00926*
Y00933*
X0206Y0094*
X02054*
X02047Y00933*
Y0092*
X02054Y00913*
X0208Y00953D02*
X02087Y00959D01*
Y00972*
X0208Y00979*
X02054*
X02047Y00972*
Y00959*
X02054Y00953*
X0208*
X02047Y01018D02*
Y00992D01*
X02073Y01018*
X0208*
X02087Y01012*
Y00999*
X0208Y00992*
X0156Y02037D02*
X01567Y02043D01*
X0158*
X01587Y02037*
Y0201*
X0158Y02004*
X01567*
X0156Y0201*
X01547Y02037D02*
X01541Y02043D01*
X01528*
X01521Y02037*
Y0203*
X01528Y02024*
X01534*
X01528*
X01521Y02017*
Y0201*
X01528Y02004*
X01541*
X01547Y0201*
X01508Y02037D02*
X01501Y02043D01*
X01488*
X01482Y02037*
Y0201*
X01488Y02004*
X01501*
X01508Y0201*
Y02037*
X01469D02*
X01462Y02043D01*
X01449*
X01442Y02037*
Y0203*
X01449Y02024*
X01455*
X01449*
X01442Y02017*
Y0201*
X01449Y02004*
X01462*
X01469Y0201*
X02025Y009D02*
X02031Y00894D01*
Y00881*
X02025Y00874*
X01999*
X01992Y00881*
Y00894*
X01999Y009*
X02025Y00913D02*
X02031Y0092D01*
Y00933*
X02025Y0094*
X02018*
X02012Y00933*
Y00926*
Y00933*
X02005Y0094*
X01999*
X01992Y00933*
Y0092*
X01999Y00913*
X02025Y00953D02*
X02031Y00959D01*
Y00972*
X02025Y00979*
X01999*
X01992Y00972*
Y00959*
X01999Y00953*
X02025*
X02031Y01018D02*
Y00992D01*
X02012*
X02018Y01005*
Y01012*
X02012Y01018*
X01999*
X01992Y01012*
Y00999*
X01999Y00992*
X0247Y00888D02*
X02476Y00882D01*
Y00869*
X0247Y00862*
X02444*
X02437Y00869*
Y00882*
X02444Y00888*
X0247Y00902D02*
X02476Y00908D01*
Y00921*
X0247Y00928*
X02463*
X02457Y00921*
Y00915*
Y00921*
X0245Y00928*
X02444*
X02437Y00921*
Y00908*
X02444Y00902*
X0247Y00941D02*
X02476Y00947D01*
Y00961*
X0247Y00967*
X02444*
X02437Y00961*
Y00947*
X02444Y00941*
X0247*
X02476Y01007D02*
X0247Y00993D01*
X02457Y0098*
X02444*
X02437Y00987*
Y01*
X02444Y01007*
X0245*
X02457Y01*
Y0098*
X01832Y01278D02*
X01839Y01272D01*
Y01259*
X01832Y01252*
X01806*
X01799Y01259*
Y01272*
X01806Y01278*
X01832Y01291D02*
X01839Y01298D01*
Y01311*
X01832Y01318*
X01825*
X01819Y01311*
Y01304*
Y01311*
X01812Y01318*
X01806*
X01799Y01311*
Y01298*
X01806Y01291*
X01799Y01331D02*
Y01344D01*
Y01337*
X01839*
X01832Y01331*
Y01363D02*
X01839Y0137D01*
Y01383*
X01832Y0139*
X01806*
X01799Y01383*
Y0137*
X01806Y01363*
X01832*
X01769Y01282D02*
X01776Y01276D01*
Y01262*
X01769Y01256*
X01743*
X01736Y01262*
Y01276*
X01743Y01282*
X01769Y01295D02*
X01776Y01302D01*
Y01315*
X01769Y01322*
X01762*
X01756Y01315*
Y01308*
Y01315*
X01749Y01322*
X01743*
X01736Y01315*
Y01302*
X01743Y01295*
X01736Y01335D02*
Y01348D01*
Y01341*
X01776*
X01769Y01335*
X01736Y01367D02*
Y01381D01*
Y01374*
X01776*
X01769Y01367*
X02234Y01298D02*
X0224Y01291D01*
Y01278*
X02234Y01272*
X02207*
X02201Y01278*
Y01291*
X02207Y01298*
X02234Y01311D02*
X0224Y01318D01*
Y01331*
X02234Y01337*
X02227*
X0222Y01331*
Y01324*
Y01331*
X02214Y01337*
X02207*
X02201Y01331*
Y01318*
X02207Y01311*
X02201Y0135D02*
Y01363D01*
Y01357*
X0224*
X02234Y0135*
X02201Y01409D02*
Y01383D01*
X02227Y01409*
X02234*
X0224Y01403*
Y0139*
X02234Y01383*
X02675Y00926D02*
X02681Y00933D01*
X02694*
X02701Y00926*
Y009*
X02694Y00894*
X02681*
X02675Y009*
X02642Y00894D02*
Y00933D01*
X02661Y00913*
X02635*
X02622Y00926D02*
X02616Y00933D01*
X02602*
X02596Y00926*
Y009*
X02602Y00894*
X02616*
X02622Y009*
Y00926*
X02583D02*
X02576Y00933D01*
X02563*
X02556Y00926*
Y009*
X02563Y00894*
X02576*
X02583Y009*
Y00926*
X02797Y00533D02*
X02803Y00539D01*
X02816*
X02823Y00533*
Y00507*
X02816Y005*
X02803*
X02797Y00507*
X02764Y005D02*
Y00539D01*
X02783Y0052*
X02757*
X02744Y00533D02*
X02738Y00539D01*
X02724*
X02718Y00533*
Y00507*
X02724Y005*
X02738*
X02744Y00507*
Y00533*
X02705Y005D02*
X02692D01*
X02698*
Y00539*
X02705Y00533*
X02993Y00806D02*
X03Y00799D01*
Y00786*
X02993Y0078*
X02967*
X02961Y00786*
Y00799*
X02967Y00806*
X02961Y00839D02*
X03D01*
X0298Y00819*
Y00845*
X02993Y00858D02*
X03Y00865D01*
Y00878*
X02993Y00884*
X02967*
X02961Y00878*
Y00865*
X02967Y00858*
X02993*
X02961Y00924D02*
Y00898D01*
X02987Y00924*
X02993*
X03Y00917*
Y00904*
X02993Y00898*
X02982Y00525D02*
X02988Y00531D01*
X03001*
X03008Y00525*
Y00499*
X03001Y00492*
X02988*
X02982Y00499*
X02949Y00492D02*
Y00531D01*
X02969Y00512*
X02942*
X02929Y00525D02*
X02923Y00531D01*
X02909*
X02903Y00525*
Y00499*
X02909Y00492*
X02923*
X02929Y00499*
Y00525*
X0289D02*
X02883Y00531D01*
X0287*
X02864Y00525*
Y00518*
X0287Y00512*
X02877*
X0287*
X02864Y00505*
Y00499*
X0287Y00492*
X02883*
X0289Y00499*
X02663Y00777D02*
X02669Y00783D01*
X02682*
X02689Y00777*
Y00751*
X02682Y00744*
X02669*
X02663Y00751*
X0263Y00744D02*
Y00783D01*
X0265Y00764*
X02623*
X0261Y00777D02*
X02604Y00783D01*
X02591*
X02584Y00777*
Y00751*
X02591Y00744*
X02604*
X0261Y00751*
Y00777*
X02551Y00744D02*
Y00783D01*
X02571Y00764*
X02545*
X03331Y02339D02*
X0337D01*
Y02358*
X03364Y02365*
X0335*
X03344Y02358*
Y02339*
Y02352D02*
X03331Y02365D01*
Y02378D02*
Y02391D01*
Y02385*
X0337*
X03364Y02378*
Y02411D02*
X0337Y02417D01*
Y0243*
X03364Y02437*
X03337*
X03331Y0243*
Y02417*
X03337Y02411*
X03364*
X0337Y02476D02*
Y0245D01*
X0335*
X03357Y02463*
Y0247*
X0335Y02476*
X03337*
X03331Y0247*
Y02457*
X03337Y0245*
X04098Y02236D02*
X04138D01*
Y02256*
X04131Y02262*
X04118*
X04112Y02256*
Y02236*
Y02249D02*
X04098Y02262D01*
Y02276D02*
Y02289D01*
Y02282*
X04138*
X04131Y02276*
Y02308D02*
X04138Y02315D01*
Y02328*
X04131Y02335*
X04105*
X04098Y02328*
Y02315*
X04105Y02308*
X04131*
X04138Y02374D02*
X04131Y02361D01*
X04118Y02348*
X04105*
X04098Y02354*
Y02367*
X04105Y02374*
X04112*
X04118Y02367*
Y02348*
X04657Y02118D02*
Y02157D01*
X04638*
X04631Y02151*
Y02138*
X04638Y02131*
X04657*
X04644D02*
X04631Y02118D01*
X04618D02*
X04605D01*
X04612*
Y02157*
X04618Y02151*
X04585D02*
X04579Y02157D01*
X04566*
X04559Y02151*
Y02125*
X04566Y02118*
X04579*
X04585Y02125*
Y02151*
X04546D02*
X04539Y02157D01*
X04526*
X0452Y02151*
Y02144*
X04526Y02138*
X0452Y02131*
Y02125*
X04526Y02118*
X04539*
X04546Y02125*
Y02131*
X04539Y02138*
X04546Y02144*
Y02151*
X04539Y02138D02*
X04526D01*
X04681Y02252D02*
X0472D01*
Y02272*
X04714Y02278*
X04701*
X04694Y02272*
Y02252*
Y02265D02*
X04681Y02278D01*
Y02291D02*
Y02304D01*
Y02298*
X0472*
X04714Y02291*
X04681Y02324D02*
Y02337D01*
Y02331*
X0472*
X04714Y02324*
X04681Y02357D02*
Y0237D01*
Y02363*
X0472*
X04714Y02357*
X04654Y02465D02*
Y02504D01*
X04634*
X04627Y02497*
Y02484*
X04634Y02478*
X04654*
X0464D02*
X04627Y02465D01*
X04614D02*
X04601D01*
X04608*
Y02504*
X04614Y02497*
X04581Y02465D02*
X04568D01*
X04575*
Y02504*
X04581Y02497*
X04549D02*
X04542Y02504D01*
X04529*
X04522Y02497*
Y02491*
X04529Y02484*
X04535*
X04529*
X04522Y02478*
Y02471*
X04529Y02465*
X04542*
X04549Y02471*
X02728Y01657D02*
X02768D01*
Y01677*
X02761Y01684*
X02748*
X02741Y01677*
Y01657*
Y01671D02*
X02728Y01684D01*
Y01723D02*
Y01697D01*
X02755Y01723*
X02761*
X02768Y01717*
Y01703*
X02761Y01697*
Y01736D02*
X02768Y01743D01*
Y01756*
X02761Y01762*
X02735*
X02728Y01756*
Y01743*
X02735Y01736*
X02761*
X02728Y01802D02*
Y01776D01*
X02755Y01802*
X02761*
X02768Y01795*
Y01782*
X02761Y01776*
X02878Y01657D02*
X02917D01*
Y01677*
X02911Y01684*
X02898*
X02891Y01677*
Y01657*
Y01671D02*
X02878Y01684D01*
Y01723D02*
Y01697D01*
X02904Y01723*
X02911*
X02917Y01717*
Y01703*
X02911Y01697*
Y01736D02*
X02917Y01743D01*
Y01756*
X02911Y01762*
X02885*
X02878Y01756*
Y01743*
X02885Y01736*
X02911*
Y01776D02*
X02917Y01782D01*
Y01795*
X02911Y01802*
X02904*
X02898Y01795*
Y01789*
Y01795*
X02891Y01802*
X02885*
X02878Y01795*
Y01782*
X02885Y01776*
X03039Y01657D02*
X03079D01*
Y01677*
X03072Y01684*
X03059*
X03052Y01677*
Y01657*
Y01671D02*
X03039Y01684D01*
Y01723D02*
Y01697D01*
X03066Y01723*
X03072*
X03079Y01717*
Y01703*
X03072Y01697*
Y01736D02*
X03079Y01743D01*
Y01756*
X03072Y01762*
X03046*
X03039Y01756*
Y01743*
X03046Y01736*
X03072*
X03039Y01795D02*
X03079D01*
X03059Y01776*
Y01802*
X01587Y02094D02*
Y02134D01*
X01567*
X0156Y02127*
Y02114*
X01567Y02108*
X01587*
X01573D02*
X0156Y02094D01*
X01547Y02127D02*
X01541Y02134D01*
X01528*
X01521Y02127*
Y02121*
X01528Y02114*
X01534*
X01528*
X01521Y02108*
Y02101*
X01528Y02094*
X01541*
X01547Y02101*
X01508Y02127D02*
X01501Y02134D01*
X01488*
X01482Y02127*
Y02101*
X01488Y02094*
X01501*
X01508Y02101*
Y02127*
X01469D02*
X01462Y02134D01*
X01449*
X01442Y02127*
Y02101*
X01449Y02094*
X01462*
X01469Y02101*
Y02127*
X02102Y01921D02*
Y01961D01*
X02083*
X02076Y01954*
Y01941*
X02083Y01934*
X02102*
X02089D02*
X02076Y01921D01*
X02063Y01954D02*
X02056Y01961D01*
X02043*
X02037Y01954*
Y01947*
X02043Y01941*
X0205*
X02043*
X02037Y01934*
Y01928*
X02043Y01921*
X02056*
X02063Y01928*
X02024Y01954D02*
X02017Y01961D01*
X02004*
X01997Y01954*
Y01928*
X02004Y01921*
X02017*
X02024Y01928*
Y01954*
X01958Y01921D02*
X01984D01*
X01958Y01947*
Y01954*
X01965Y01961*
X01978*
X01984Y01954*
X02106Y02012D02*
Y02051D01*
X02087*
X0208Y02045*
Y02031*
X02087Y02025*
X02106*
X02093D02*
X0208Y02012D01*
X02067Y02045D02*
X0206Y02051D01*
X02047*
X02041Y02045*
Y02038*
X02047Y02031*
X02054*
X02047*
X02041Y02025*
Y02018*
X02047Y02012*
X0206*
X02067Y02018*
X02028Y02045D02*
X02021Y02051D01*
X02008*
X02001Y02045*
Y02018*
X02008Y02012*
X02021*
X02028Y02018*
Y02045*
X01988D02*
X01982Y02051D01*
X01969*
X01962Y02045*
Y02038*
X01969Y02031*
X01975*
X01969*
X01962Y02025*
Y02018*
X01969Y02012*
X01982*
X01988Y02018*
X02209Y01661D02*
X02248D01*
Y01681*
X02241Y01688*
X02228*
X02222Y01681*
Y01661*
Y01675D02*
X02209Y01688D01*
X02241Y01701D02*
X02248Y01707D01*
Y0172*
X02241Y01727*
X02235*
X02228Y0172*
Y01714*
Y0172*
X02222Y01727*
X02215*
X02209Y0172*
Y01707*
X02215Y01701*
X02241Y0174D02*
X02248Y01747D01*
Y0176*
X02241Y01766*
X02215*
X02209Y0176*
Y01747*
X02215Y0174*
X02241*
X02209Y01799D02*
X02248D01*
X02228Y01779*
Y01806*
X02646Y00496D02*
Y00463D01*
X02639Y00457*
X02626*
X02619Y00463*
Y00496*
X02587Y00457D02*
Y00496D01*
X02606Y00476*
X0258*
X02567Y00489D02*
X0256Y00496D01*
X02547*
X02541Y00489*
Y00463*
X02547Y00457*
X0256*
X02567Y00463*
Y00489*
X02501Y00457D02*
X02528D01*
X02501Y00483*
Y00489*
X02508Y00496*
X02521*
X02528Y00489*
X0336Y01987D02*
X03366Y0198D01*
Y01967*
X0336Y01961*
X03333*
X03327Y01967*
Y0198*
X03333Y01987*
X03327Y02D02*
Y02013D01*
Y02007*
X03366*
X0336Y02*
Y02033D02*
X03366Y02039D01*
Y02052*
X0336Y02059*
X03333*
X03327Y02052*
Y02039*
X03333Y02033*
X0336*
Y02072D02*
X03366Y02079D01*
Y02092*
X0336Y02098*
X03333*
X03327Y02092*
Y02079*
X03333Y02072*
X0336*
X0286Y01487D02*
X02866Y0148D01*
Y01467*
X0286Y01461*
X02833*
X02827Y01467*
Y0148*
X02833Y01487*
X02827Y015D02*
Y01513D01*
Y01507*
X02866*
X0286Y015*
Y01533D02*
X02866Y01539D01*
Y01552*
X0286Y01559*
X02833*
X02827Y01552*
Y01539*
X02833Y01533*
X0286*
X02827Y01572D02*
Y01585D01*
Y01579*
X02866*
X0286Y01572*
X0234Y01226D02*
X02346Y01232D01*
X0236*
X02366Y01226*
Y01199*
X0236Y01193*
X02346*
X0234Y01199*
X02301Y01193D02*
X02327D01*
X02301Y01219*
Y01226*
X02307Y01232*
X0232*
X02327Y01226*
X02287D02*
X02281Y01232D01*
X02268*
X02261Y01226*
Y01199*
X02268Y01193*
X02281*
X02287Y01199*
Y01226*
X02248D02*
X02242Y01232D01*
X02228*
X02222Y01226*
Y01199*
X02228Y01193*
X02242*
X02248Y01199*
Y01226*
X02836Y01064D02*
X02843Y01071D01*
X02856*
X02862Y01064*
Y01038*
X02856Y01031*
X02843*
X02836Y01038*
X02797Y01031D02*
X02823D01*
X02797Y01058*
Y01064*
X02803Y01071*
X02816*
X02823Y01064*
X02783D02*
X02777Y01071D01*
X02764*
X02757Y01064*
Y01038*
X02764Y01031*
X02777*
X02783Y01038*
Y01064*
X02718Y01031D02*
X02744D01*
X02718Y01058*
Y01064*
X02724Y01071*
X02738*
X02744Y01064*
X02899Y01328D02*
X02906Y01335D01*
X02919*
X02925Y01328*
Y01302*
X02919Y01295*
X02906*
X02899Y01302*
X0286Y01295D02*
X02886D01*
X0286Y01322*
Y01328*
X02866Y01335*
X02879*
X02886Y01328*
X02846D02*
X0284Y01335D01*
X02827*
X0282Y01328*
Y01302*
X02827Y01295*
X0284*
X02846Y01302*
Y01328*
X02807D02*
X02801Y01335D01*
X02787*
X02781Y01328*
Y01322*
X02787Y01315*
X02794*
X02787*
X02781Y01308*
Y01302*
X02787Y01295*
X02801*
X02807Y01302*
X02678Y01139D02*
X02685Y01146D01*
X02698*
X02705Y01139*
Y01113*
X02698Y01106*
X02685*
X02678Y01113*
X02639Y01106D02*
X02665D01*
X02639Y01133*
Y01139*
X02646Y01146*
X02659*
X02665Y01139*
X02626D02*
X02619Y01146D01*
X02606*
X026Y01139*
Y01113*
X02606Y01106*
X02619*
X02626Y01113*
Y01139*
X02567Y01106D02*
Y01146D01*
X02587Y01126*
X0256*
X02682Y01364D02*
X02689Y0137D01*
X02702*
X02709Y01364*
Y01337*
X02702Y01331*
X02689*
X02682Y01337*
X02643Y01331D02*
X02669D01*
X02643Y01357*
Y01364*
X0265Y0137*
X02663*
X02669Y01364*
X0263D02*
X02623Y0137D01*
X0261*
X02604Y01364*
Y01337*
X0261Y01331*
X02623*
X0263Y01337*
Y01364*
X02564Y0137D02*
X02591D01*
Y0135*
X02577Y01357*
X02571*
X02564Y0135*
Y01337*
X02571Y01331*
X02584*
X02591Y01337*
X03206Y01096D02*
X03213Y01102D01*
X03226*
X03232Y01096*
Y0107*
X03226Y01063*
X03213*
X03206Y0107*
X03167Y01063D02*
X03193D01*
X03167Y01089*
Y01096*
X03173Y01102*
X03186*
X03193Y01096*
X03154D02*
X03147Y01102D01*
X03134*
X03127Y01096*
Y0107*
X03134Y01063*
X03147*
X03154Y0107*
Y01096*
X03088Y01102D02*
X03101Y01096D01*
X03114Y01083*
Y0107*
X03108Y01063*
X03095*
X03088Y0107*
Y01076*
X03095Y01083*
X03114*
X03175Y01214D02*
X03181Y0122D01*
X03194*
X03201Y01214*
Y01188*
X03194Y01181*
X03181*
X03175Y01188*
X03135Y01181D02*
X03161D01*
X03135Y01207*
Y01214*
X03142Y0122*
X03155*
X03161Y01214*
X03122D02*
X03116Y0122D01*
X03102*
X03096Y01214*
Y01188*
X03102Y01181*
X03116*
X03122Y01188*
Y01214*
X03083Y0122D02*
X03056D01*
Y01214*
X03083Y01188*
Y01181*
X03297Y01568D02*
X03303Y01575D01*
X03316*
X03323Y01568*
Y01542*
X03316Y01535*
X03303*
X03297Y01542*
X03257Y01535D02*
X03283D01*
X03257Y01562*
Y01568*
X03264Y01575*
X03277*
X03283Y01568*
X03244D02*
X03238Y01575D01*
X03224*
X03218Y01568*
Y01542*
X03224Y01535*
X03238*
X03244Y01542*
Y01568*
X03205D02*
X03198Y01575D01*
X03185*
X03179Y01568*
Y01562*
X03185Y01555*
X03179Y01549*
Y01542*
X03185Y01535*
X03198*
X03205Y01542*
Y01549*
X03198Y01555*
X03205Y01562*
Y01568*
X03198Y01555D02*
X03185D01*
X03505Y01403D02*
X03512Y01409D01*
X03525*
X03531Y01403*
Y01377*
X03525Y0137*
X03512*
X03505Y01377*
X03466Y0137D02*
X03492D01*
X03466Y01396*
Y01403*
X03472Y01409*
X03486*
X03492Y01403*
X03453D02*
X03446Y01409D01*
X03433*
X03427Y01403*
Y01377*
X03433Y0137*
X03446*
X03453Y01377*
Y01403*
X03413Y01377D02*
X03407Y0137D01*
X03394*
X03387Y01377*
Y01403*
X03394Y01409*
X03407*
X03413Y01403*
Y01396*
X03407Y0139*
X03387*
X03112Y01336D02*
X03118Y01343D01*
X03131*
X03138Y01336*
Y0131*
X03131Y01303*
X03118*
X03112Y0131*
X03072Y01303D02*
X03098D01*
X03072Y01329*
Y01336*
X03079Y01343*
X03092*
X03098Y01336*
X03059Y01303D02*
X03046D01*
X03053*
Y01343*
X03059Y01336*
X03026D02*
X0302Y01343D01*
X03007*
X03Y01336*
Y0131*
X03007Y01303*
X0302*
X03026Y0131*
Y01336*
X02476Y01457D02*
X02516D01*
Y01476*
X02509Y01483*
X02496*
X02489Y01476*
Y01457*
Y0147D02*
X02476Y01483D01*
Y01496D02*
Y01509D01*
Y01503*
X02516*
X02509Y01496*
Y01529D02*
X02516Y01535D01*
Y01549*
X02509Y01555*
X02483*
X02476Y01549*
Y01535*
X02483Y01529*
X02509*
Y01568D02*
X02516Y01575D01*
Y01588*
X02509Y01594*
X02483*
X02476Y01588*
Y01575*
X02483Y01568*
X02509*
X03579Y01972D02*
X03618D01*
Y01992*
X03612Y01999*
X03598*
X03592Y01992*
Y01972*
Y01986D02*
X03579Y01999D01*
Y02012D02*
Y02025D01*
Y02018*
X03618*
X03612Y02012*
Y02045D02*
X03618Y02051D01*
Y02064*
X03612Y02071*
X03585*
X03579Y02064*
Y02051*
X03585Y02045*
X03612*
X03579Y02084D02*
Y02097D01*
Y02091*
X03618*
X03612Y02084*
X03016Y01465D02*
X03055D01*
Y01484*
X03049Y01491*
X03035*
X03029Y01484*
Y01465*
Y01478D02*
X03016Y01491D01*
Y01504D02*
Y01517D01*
Y0151*
X03055*
X03049Y01504*
Y01537D02*
X03055Y01543D01*
Y01556*
X03049Y01563*
X03022*
X03016Y01556*
Y01543*
X03022Y01537*
X03049*
X03016Y01602D02*
Y01576D01*
X03042Y01602*
X03049*
X03055Y01596*
Y01583*
X03049Y01576*
X02886Y01465D02*
X02925D01*
Y01484*
X02919Y01491*
X02906*
X02899Y01484*
Y01465*
Y01478D02*
X02886Y01491D01*
Y01504D02*
Y01517D01*
Y0151*
X02925*
X02919Y01504*
Y01537D02*
X02925Y01543D01*
Y01556*
X02919Y01563*
X02892*
X02886Y01556*
Y01543*
X02892Y01537*
X02919*
Y01576D02*
X02925Y01583D01*
Y01596*
X02919Y01602*
X02912*
X02906Y01596*
Y01589*
Y01596*
X02899Y01602*
X02892*
X02886Y01596*
Y01583*
X02892Y01576*
X02524Y0137D02*
Y01409D01*
X02504*
X02497Y01403*
Y0139*
X02504Y01383*
X02524*
X02511D02*
X02497Y0137D01*
X02458D02*
X02484D01*
X02458Y01396*
Y01403*
X02465Y01409*
X02478*
X02484Y01403*
X02445D02*
X02438Y01409D01*
X02425*
X02419Y01403*
Y01377*
X02425Y0137*
X02438*
X02445Y01377*
Y01403*
X02406D02*
X02399Y01409D01*
X02386*
X02379Y01403*
Y01377*
X02386Y0137*
X02399*
X02406Y01377*
Y01403*
X02362Y01094D02*
Y01134D01*
X02343*
X02336Y01127*
Y01114*
X02343Y01108*
X02362*
X02349D02*
X02336Y01094D01*
X02297D02*
X02323D01*
X02297Y01121*
Y01127*
X02303Y01134*
X02316*
X02323Y01127*
X02283D02*
X02277Y01134D01*
X02264*
X02257Y01127*
Y01101*
X02264Y01094*
X02277*
X02283Y01101*
Y01127*
X02244Y01094D02*
X02231D01*
X02238*
Y01134*
X02244Y01127*
X03112Y02371D02*
X03118Y02378D01*
X03131*
X03138Y02371*
Y02345*
X03131Y02339*
X03118*
X03112Y02345*
X03098Y02339D02*
X03085D01*
X03092*
Y02378*
X03098Y02371*
X03066D02*
X03059Y02378D01*
X03046*
X03039Y02371*
Y02345*
X03046Y02339*
X03059*
X03066Y02345*
Y02371*
X03Y02378D02*
X03026D01*
Y02358*
X03013Y02365*
X03007*
X03Y02358*
Y02345*
X03007Y02339*
X0302*
X03026Y02345*
X03112Y0208D02*
X03118Y02087D01*
X03131*
X03138Y0208*
Y02054*
X03131Y02047*
X03118*
X03112Y02054*
X03098Y0208D02*
X03092Y02087D01*
X03079*
X03072Y0208*
Y02073*
X03079Y02067*
X03085*
X03079*
X03072Y0206*
Y02054*
X03079Y02047*
X03092*
X03098Y02054*
X03059Y0208D02*
X03053Y02087D01*
X03039*
X03033Y0208*
Y02054*
X03039Y02047*
X03053*
X03059Y02054*
Y0208*
X0302Y02054D02*
X03013Y02047D01*
X03*
X02993Y02054*
Y0208*
X03Y02087*
X03013*
X0302Y0208*
Y02073*
X03013Y02067*
X02993*
X0385Y01752D02*
Y01713D01*
X03831*
X03824Y01719*
Y01745*
X03831Y01752*
X0385*
X03811Y01713D02*
X03798D01*
X03804*
Y01752*
X03811Y01745*
X03778D02*
X03772Y01752D01*
X03759*
X03752Y01745*
Y01719*
X03759Y01713*
X03772*
X03778Y01719*
Y01745*
X03739Y01713D02*
X03726D01*
X03732*
Y01752*
X03739Y01745*
X03875Y01557D02*
X03884Y01566D01*
X0388Y01561*
X03903Y01538*
X03912*
X03917Y01543*
Y01552*
X03875Y01501D02*
X03893Y01519D01*
X03856*
X03852Y01524*
Y01533*
X03861Y01543*
X0387*
X03842Y01515D02*
X03833D01*
X03824Y01505*
Y01496*
X03842Y01478*
X03852*
X03861Y01487*
Y01496*
X03842Y01515*
X03815Y01487D02*
X03805D01*
X03796Y01478*
Y01468*
X03815Y0145*
X03824*
X03833Y01459*
Y01468*
X03815Y01487*
X03646Y0098D02*
X03673Y01008D01*
X0366Y01022*
X0365*
X03641Y01013*
Y01004*
X03655Y0099*
X03599Y01027D02*
X03618Y01008D01*
Y01045*
X03622Y0105*
X03632*
X03641Y01041*
Y01031*
X03613Y01059D02*
Y01068D01*
X03604Y01078*
X03595*
X03576Y01059*
Y0105*
X03585Y01041*
X03595*
X03613Y01059*
X03585Y01087D02*
Y01096D01*
X03576Y01106*
X03567*
X03548Y01087*
Y01078*
X03558Y01068*
X03567*
X03585Y01087*
X038Y0135D02*
X0379D01*
X03781Y01341*
Y01331*
X038Y01313*
X03809*
X03818Y01322*
Y01331*
X038Y0135*
X03954Y01369D02*
X03935Y0135D01*
X03944Y01359*
X03972Y01331*
X03935D02*
Y01294D01*
Y01313*
X03917*
X03954*
X03912Y01271D02*
X03884Y01299D01*
X0387Y01285*
Y01276*
X03879Y01266*
X03889*
X03903Y0128*
X03893Y01271D02*
Y01253D01*
X03866Y01262D02*
Y01225D01*
Y01243*
X03847*
X03884*
X03898Y0143D02*
X03879Y01411D01*
Y0143D02*
X03898Y01411D01*
X03861D02*
X03852D01*
X03842Y01402*
Y01393*
X03847Y01388*
X03856*
X03861Y01393*
X03856Y01388*
Y01379*
X03861Y01374*
X0387*
X03879Y01383*
Y01393*
G54D60*
X04003Y01732D03*
M02*