%FSTAX23Y23*%
%MOIN*%
%SFA1B1*%

%IPPOS*%
%AMD46*
4,1,8,0.039500,-0.029200,0.039500,0.029200,0.019700,0.049000,-0.019700,0.049000,-0.039500,0.029200,-0.039500,-0.029200,-0.019700,-0.049000,0.019700,-0.049000,0.039500,-0.029200,0.0*
%
%AMD47*
4,1,8,0.029200,0.039500,-0.029200,0.039500,-0.049000,0.019700,-0.049000,-0.019700,-0.029200,-0.039500,0.029200,-0.039500,0.049000,-0.019700,0.049000,0.019700,0.029200,0.039500,0.0*
%
%AMD50*
4,1,4,0.044400,0.000000,0.000000,0.044400,-0.044400,0.000000,0.000000,-0.044400,0.044400,0.000000,0.0*
%
%ADD17R,0.051000X0.059000*%
%ADD19R,0.071000X0.063000*%
%ADD20R,0.059000X0.051000*%
%ADD32R,0.047000X0.028000*%
%ADD38C,0.016000*%
%ADD39C,0.008000*%
%ADD40C,0.020000*%
%ADD41C,0.039000*%
%ADD42C,0.012000*%
%ADD44R,0.079000X0.079000*%
%ADD45C,0.079000*%
G04~CAMADD=46~4~0.0~0.0~980.0~790.0~0.0~197.5~0~0.0~0.0~0.0~0.0~0~0.0~0.0~0.0~0.0~0~0.0~0.0~0.0~270.0~790.0~980.0*
%ADD46D46*%
G04~CAMADD=47~4~0.0~0.0~980.0~790.0~0.0~197.5~0~0.0~0.0~0.0~0.0~0~0.0~0.0~0.0~0.0~0~0.0~0.0~0.0~0.0~980.0~790.0*
%ADD47D47*%
%ADD48C,0.039000*%
%ADD49C,0.063000*%
G04~CAMADD=50~10~0.0~629.3~0.0~0.0~0.0~0.0~0~0.0~0.0~0.0~0.0~0~0.0~0.0~0.0~0.0~0~0.0~0.0~0.0~315.0~629.3~0.0*
%ADD50D50*%
%ADD51C,0.024000*%
%ADD52C,0.030000*%
%ADD53R,0.022000X0.039000*%
%LNpendulum-1*%
%LPD*%
G36*
X0476Y02008D02*
X04524Y01772D01*
X04513*
X04511Y01776*
X04641Y01906*
X04646Y01914*
X04648Y01923*
Y02167*
X04665*
Y02258*
X04648*
Y02266*
X04665*
Y02356*
X04648*
Y02364*
X04665*
Y02455*
X04508*
Y02425*
X04505Y02424*
X0449Y02408*
X04485Y02401*
X04484Y02394*
Y02351*
X04462Y02329*
X04457Y0233*
X04449Y02329*
X04441Y02326*
X04435Y02321*
X0443Y02315*
X04427Y02307*
X04426Y023*
X04267*
X04266Y02301*
X04259Y02306*
X04252Y02309*
X04244Y0231*
X04236Y02309*
X04229Y02306*
X04222Y02301*
X04217Y02295*
X04214Y02287*
Y02286*
Y02285*
X04209Y02287*
Y0235*
X04246Y02387*
X04251Y02394*
X04252Y02402*
Y02524*
X04251Y02531*
X04246Y02538*
X04231Y02553*
X04232Y02555*
X04231Y02563*
X04227Y02571*
X04223Y02577*
X04216Y02582*
X04209Y02585*
X04201Y02586*
X04193Y02585*
X04185Y02582*
X04179Y02577*
X04174Y02571*
X04171Y02563*
X0417Y02555*
X04171Y02547*
X04174Y0254*
X04179Y02533*
X04185Y02528*
X04193Y02525*
X04201Y02524*
X04203Y02525*
X04212Y02515*
Y0241*
X04175Y02372*
X0417Y02366*
X04169Y02358*
Y02279*
X04167Y02278*
X04162Y02271*
X04159Y02264*
X04158Y02256*
X04159Y02248*
X04162Y02241*
X04167Y02234*
X04169Y02233*
X04167Y02228*
X04083*
Y02205*
X04028*
X04018Y02203*
X04011Y02198*
X04005Y0219*
X04003Y02181*
Y02149*
X04001Y02145*
X03998Y02138*
X03997Y0213*
X03998Y02122*
X04001Y02115*
X04006Y02108*
X04012Y02103*
X0402Y021*
X04028Y02099*
X04036Y021*
X04043Y02103*
X04048Y02107*
X04052Y02104*
X03982Y02034*
X03978Y02027*
X03976Y0202*
Y01803*
X03972Y018*
X03969Y01801*
X03961Y01802*
X03953Y01801*
X03945Y01798*
X03939Y01793*
X03934Y01787*
X03931Y0178*
X0393Y01772*
X03735*
X03615Y01891*
X03599Y01908*
Y02097*
X03604Y02099*
X03629Y02073*
Y02023*
X03627Y02019*
X03624Y02012*
X03623Y02004*
X03624Y01996*
X03627Y01989*
X03632Y01982*
X03638Y01977*
X03646Y01974*
X03654Y01973*
X03662Y01974*
X03669Y01977*
X03675Y01982*
X0368Y01989*
X03683Y01996*
X03684Y02004*
X03683Y02012*
X0368Y02019*
X03678Y02023*
Y02083*
X03676Y02092*
X03671Y021*
X03569Y02201*
Y02213*
X03574Y02215*
X03624Y02165*
X03632Y0216*
X03637Y02159*
X03641Y02155*
X03649Y02152*
X03656Y02151*
X03664Y02152*
X03672Y02155*
X03678Y0216*
X03683Y02167*
X03686Y02174*
X03687Y02182*
X03686Y0219*
X03683Y02197*
X03678Y02204*
X03672Y02209*
X03664Y02212*
X03656Y02213*
X03649Y02212*
X03646Y02211*
X03578Y02279*
X0357Y02284*
X03569*
Y02303*
X03478*
Y0228*
X03477Y02279*
X03455Y02257*
X0345Y02249*
X03448Y0224*
Y02146*
X0345Y0214*
X03445Y02137*
X03441Y02141*
X03433Y02144*
X03425Y02145*
X03417Y02144*
X0341Y02141*
X03403Y02136*
X03399Y0213*
X03395Y02122*
X03394Y02114*
X03395Y0211*
X03392Y02106*
X0338*
Y02024*
X03438*
X03456Y02005*
Y01772*
X03423*
X03421Y01776*
X03425Y0178*
X0343Y01785*
X03432Y01792*
X03433Y01799*
X03432Y01806*
X0343Y01813*
X03427Y01817*
X0343Y01821*
X03432Y01827*
X03433Y01835*
X03432Y01842*
X0343Y01849*
X03425Y01854*
X03419Y01859*
X03413Y01861*
X03406Y01862*
X03398Y01861*
X03392Y01859*
X03386Y01855*
X03374*
X03366Y01853*
X0336Y01849*
X03358Y01847*
X03354Y0185*
X03355Y01854*
X03354Y01862*
X03351Y01868*
X03348Y01872*
X03351Y01876*
X03354Y01883*
X03355Y0189*
X03354Y01897*
X03351Y01904*
X03346Y01909*
X03341Y01914*
X03334Y01917*
X03327Y01918*
X0332Y01917*
X03313Y01914*
X03308Y0191*
X03305*
X03297Y01908*
X03291Y01904*
X03159Y01772*
X03163*
X03165Y01767*
X03102Y01703*
X03099Y01699*
X03098Y01695*
Y01681*
X03096Y0168*
X03092Y01673*
X0309Y01665*
X03092Y01658*
X03096Y01651*
X03098Y0165*
Y01606*
X03073*
Y01547*
X03063*
X03058*
X03054Y01544*
X03047Y01536*
X03044Y01532*
X03043Y01528*
Y01229*
X03026Y01212*
X03024Y01213*
X03016Y01211*
X03009Y01207*
X03005Y01201*
X03004Y01193*
X03005Y01185*
X03008Y01181*
X03009Y01177*
X03008Y01174*
X03005Y01169*
X03004Y01161*
X03005Y01154*
X03009Y01147*
X03016Y01143*
X03024Y01141*
X03031Y01143*
X03038Y01147*
X0304Y0115*
X03044Y01153*
X03115Y01224*
X03117Y01228*
X03118Y01232*
Y0133*
X03162Y01374*
X03351*
X03352Y01372*
X03358Y01367*
X03366Y01366*
X03374Y01367*
X0338Y01372*
X03385Y01378*
X03386Y01386*
X03385Y01394*
X0338Y014*
X03374Y01404*
X03366Y01406*
X03358Y01404*
X03352Y014*
X03351Y01398*
X03157*
X03153Y01397*
X03149Y01394*
X03098Y01343*
X03095Y01339*
X03094Y01335*
Y01237*
X03051Y01194*
X03049*
X03046Y01196*
Y01198*
X03064Y01216*
X03066Y0122*
X03067Y01224*
Y01518*
X03068Y01519*
X03073Y01517*
Y01465*
X03092*
X03096Y01458*
X03103Y01454*
X0311Y01452*
X03118Y01454*
X03124Y01458*
X03129Y01465*
X03148*
Y01523*
X03262*
X03265Y01518*
X03263Y01514*
X03252*
Y0148*
X03285*
Y01476*
X03289*
Y01439*
X03319*
Y01477*
X03324Y01479*
Y01478*
X03331Y01474*
X03335Y01473*
Y01492*
Y01511*
X03331*
X03324Y01506*
X03319Y01507*
Y01514*
X03304*
X03302Y01518*
X03305Y01523*
X03381*
X03398Y01506*
X03397Y01504*
X03399Y01496*
X03403Y0149*
X0341Y01485*
X03417Y01484*
X03425Y01485*
X03432Y0149*
X03436Y01496*
X03437Y01504*
X03436Y01512*
X03432Y01518*
X03425Y01522*
X03417Y01524*
X03415*
X03394Y01544*
X0339Y01547*
X03386*
X03148*
Y01606*
X03122*
Y0165*
X03124Y01651*
X03129Y01658*
X0313Y01665*
X03129Y01673*
X03124Y0168*
X03122Y01681*
Y0169*
X03204Y01772*
X03248*
X0325Y01767*
X03163Y0168*
X03162*
X03155Y01676*
X03151Y01669*
X03149Y01661*
X03151Y01654*
X03155Y01647*
X03162Y01643*
X03169Y01641*
X03177Y01643*
X03183Y01647*
X03187*
X03193Y01643*
X03196Y01642*
Y01637*
X03193*
X03187Y01632*
X03182Y01626*
X03181Y01618*
X03182Y0161*
X03187Y01604*
X03193Y016*
X03201Y01598*
X03208Y016*
X03213Y01603*
X03217Y01604*
X0322Y01603*
X03225Y016*
X03232Y01598*
X0324Y016*
X03246Y01604*
X03248Y01606*
X03467*
X03511Y01562*
X03515Y0156*
X0352Y01559*
X03937*
X03942Y0156*
X03946Y01562*
X04005Y01621*
X04007Y01625*
X04008Y0163*
Y01772*
X04016*
Y02011*
X04078Y02073*
X04083Y02071*
Y02024*
X0411*
Y01969*
Y01957*
X04082Y01929*
X0403*
Y01846*
Y01772*
X04041*
X04043Y01767*
X04038Y01763*
X04034Y01758*
Y01754*
X04018*
Y01711*
X04081*
Y01716*
X0409*
X04097Y01711*
X04106Y01709*
X04115Y01711*
X04123Y01716*
X04128Y01723*
X04129Y01732*
X04128Y01741*
X04123Y01749*
X04122*
Y01772*
X04144*
X04147Y01767*
Y01766*
X04143Y0175*
X04141Y01732*
X04143Y01715*
X04147Y01698*
X04153Y01682*
X04163Y01667*
X04174Y01654*
X04187Y01643*
X04202Y01634*
X04218Y01627*
X04235Y01623*
X04252Y01622*
X04269Y01623*
X04286Y01627*
X04302Y01634*
X04317Y01643*
X0433Y01654*
X04341Y01667*
X0435Y01682*
X04357Y01698*
X04361Y01715*
X04363Y01732*
X04361Y0175*
X04357Y01766*
Y01767*
X04359Y01772*
X04509*
X04511Y01767*
X03205Y00472*
X02362*
X01068Y01767*
X0107Y01772*
X01063*
X00787Y02047*
Y02717*
X0138*
Y0269*
X01407Y02662*
X01482*
X0151Y0269*
Y02717*
X019*
Y0269*
X01927Y02662*
X02002*
X0203Y0269*
Y02717*
X0476*
Y02008*
G37*
%LNpendulum-2*%
%LPC*%
G36*
X0237Y00996D02*
X02331D01*
Y00961*
X0237*
Y00996*
G37*
G36*
X02417D02*
X02378D01*
Y00961*
X02417*
Y00996*
G37*
G36*
X02275Y01031D02*
X02237D01*
Y01028*
X02239Y01025*
X02237Y0102*
X02219*
Y00992*
X02213Y00991*
X02206Y00987*
X02202Y0098*
X022Y00972*
X02202Y00965*
X02206Y00958*
X02213Y00954*
X02219Y00953*
X0222Y00952*
X02222Y00953*
X02224*
X02288*
X02289*
X02291Y00952*
X02293Y00953*
X02299Y00954*
X02306Y00958*
X0231Y00965*
X02311Y00972*
X0231Y0098*
X02306Y00987*
X02299Y00991*
X02293Y00992*
Y0102*
X02275*
X02272Y01025*
X02274Y01028*
X02275Y01031*
G37*
G36*
X02134Y00978D02*
X021D01*
Y00949*
X02134*
Y00978*
G37*
G36*
X02175D02*
X02142D01*
Y00949*
X02175*
Y00978*
G37*
G36*
X03063Y01071D02*
X03055Y0107D01*
X03049Y01065*
X03044Y01059*
X03043Y01051*
X03044Y01043*
X03049Y01037*
X03055Y01033*
X03063Y01031*
X03066Y01032*
X0311Y00987*
Y00984*
X03111Y00977*
X03116Y0097*
X03122Y00966*
X0313Y00964*
X03138Y00966*
X03144Y0097*
X03148Y00977*
X0315Y00984*
X03148Y00992*
X03144Y00998*
X03138Y01003*
X0313Y01004*
X03127*
X03083Y01049*
Y01051*
X03082Y01059*
X03077Y01065*
X03071Y0107*
X03063Y01071*
G37*
G36*
X035D02*
X0349Y0107D01*
X0348Y01066*
X03472Y01059*
X03466Y01051*
X03462Y01042*
X0346Y01031*
X03462Y01021*
X03466Y01011*
X03472Y01003*
X0348Y00997*
X0349Y00993*
X035Y00992*
X0351Y00993*
X0352Y00997*
X03528Y01003*
X03534Y01011*
X03538Y01021*
X0354Y01031*
X03538Y01042*
X03534Y01051*
X03528Y01059*
X0352Y01066*
X0351Y0107*
X035Y01071*
G37*
G36*
X02378Y01039D02*
Y01004D01*
X02417*
Y01039*
X02378*
G37*
G36*
X02175Y01016D02*
X02142D01*
Y00986*
X02175*
Y01016*
G37*
G36*
X02799Y00985D02*
X02792Y00983D01*
X02785Y00979*
X02784Y00977*
X02685*
X02683Y00979*
X02677Y00983*
X02669Y00985*
X02662Y00983*
X02655Y00979*
X02651Y00972*
X02649Y00965*
X02651Y00957*
X02655Y0095*
X02662Y00946*
X02669Y00944*
X02677Y00946*
X02683Y0095*
X02685Y00953*
X02784*
X02785Y0095*
X02792Y00946*
X02799Y00944*
X02807Y00946*
X02813Y0095*
X02818Y00957*
X02819Y00965*
X02818Y00972*
X02813Y00979*
X02807Y00983*
X02799Y00985*
G37*
G36*
X02134Y01016D02*
X021D01*
Y00986*
X02134*
Y01016*
G37*
G36*
X02293Y00907D02*
X0226D01*
Y00878*
X02293*
Y00907*
G37*
G36*
X0278Y00886D02*
X02772Y00885D01*
X02765Y0088*
X02751*
X02747Y00885*
X02748Y00886*
X02709*
Y00885*
X02706Y0088*
X02679*
Y00843*
Y00805*
X02686*
X02688Y008*
X02663Y00776*
X0266Y00771*
X02659Y00766*
Y00735*
X02655Y00728*
X02653Y0072*
X02655Y00713*
X02659Y00706*
X02666Y00702*
X02673Y007*
X02681Y00702*
X02687Y00706*
X02692Y00713*
X02693Y0072*
X02692Y00728*
X02687Y00735*
Y0076*
X027Y00773*
X02705Y00771*
Y00752*
X02772*
Y00785*
X02747*
Y00787*
X02743Y00794*
X02737Y00797*
X02736Y008*
X02735Y00803*
X02736Y00805*
X02783*
Y00847*
X02787Y00848*
X02794Y00852*
X02798Y00858*
X028Y00866*
X02798Y00874*
X02794Y0088*
X02787Y00885*
X0278Y00886*
G37*
G36*
X02252Y00907D02*
X02219D01*
Y00878*
X02252*
Y00907*
G37*
G36*
X0353Y00915D02*
X03505Y0089D01*
X0353Y00865*
X03534Y0087*
X03538Y0088*
X0354Y0089*
X03538Y009*
X03534Y0091*
X0353Y00915*
G37*
G36*
X02175Y00941D02*
X021D01*
Y00874*
X0217*
X02171*
X02173*
X02175*
X02181Y00875*
X02187Y0088*
X02192Y00886*
X02193Y00894*
X02192Y00901*
X02187Y00908*
X02181Y00912*
X02175Y00913*
Y00941*
G37*
G36*
X02724Y00909D02*
X02721Y00908D01*
X02714Y00904*
X0271Y00897*
X02709Y00894*
X02724*
Y00909*
G37*
G36*
X02293Y00945D02*
X0226D01*
Y00915*
X02293*
Y00945*
G37*
G36*
X03028Y01044D02*
X0302Y01042D01*
X03013Y01038*
X03009Y01031*
X03007Y01024*
X03009Y01016*
X03013Y01009*
X0302Y01005*
X03028Y01004*
X0303*
X03077Y00957*
Y00951*
X03076*
X03072Y00945*
X0307Y00937*
X03072Y00929*
X03076Y00923*
X03083Y00918*
X03091Y00917*
X03098Y00918*
X03105Y00923*
X03109Y00929*
X03111Y00937*
X03109Y00945*
X03105Y00951*
X03103Y00953*
Y00961*
X03102Y00965*
X03099Y00969*
X03047Y01021*
X03048Y01024*
X03046Y01031*
X03042Y01038*
X03035Y01042*
X03028Y01044*
G37*
G36*
X02252Y00945D02*
X02219D01*
Y00915*
X02252*
Y00945*
G37*
G36*
X02732Y00909D02*
Y00894D01*
X02748*
X02747Y00897*
X02743Y00904*
X02736Y00908*
X02732Y00909*
G37*
G36*
X035Y0093D02*
X0349Y00928D01*
X0348Y00924*
X03475Y0092*
X035Y00895*
X03525Y0092*
X0352Y00924*
X0351Y00928*
X035Y0093*
G37*
G36*
X02059Y01079D02*
X02051Y01078D01*
X02045Y01073*
X02041Y01067*
X02039Y01059*
X02041Y01051*
X02045Y01045*
X02051Y01041*
X02059Y01039*
X02067Y01041*
X02073Y01045*
X02078Y01051*
X02079Y01059*
X02078Y01067*
X02073Y01073*
X02067Y01078*
X02059Y01079*
G37*
G36*
X03256Y01142D02*
X0324D01*
Y01126*
X03244Y01127*
X0325Y01131*
X03255Y01138*
X03256Y01142*
G37*
G36*
X02055Y01157D02*
X02051Y01156D01*
X02045Y01152*
X02041Y01145*
X0204Y01142*
X02055*
Y01157*
G37*
G36*
X03283Y01234D02*
X03217D01*
Y01209*
X03205*
X032Y01208*
X03196Y01205*
X03188Y01197*
X03186Y01194*
X03185Y01189*
Y01146*
X03183Y01144*
X03178Y01138*
X03177Y0113*
X03178Y01122*
X03183Y01116*
X03184Y01115*
X03182Y0111*
X03181*
X03059*
X03057Y01113*
X03051Y01117*
X03043Y01118*
X03036Y01117*
X03029Y01113*
X03025Y01106*
X03023Y01098*
X03025Y01091*
X03029Y01084*
X03036Y0108*
X03043Y01078*
X03051Y0108*
X03057Y01084*
X03059Y01086*
X03176*
X03188Y01074*
X0331Y00952*
X03314Y00949*
X03319*
X03392*
X03395Y00941*
X03401Y00932*
X03409Y00926*
X03419Y00922*
X03429Y00921*
X03439Y00922*
X03449Y00926*
X03457Y00932*
X03464Y00941*
X03468Y0095*
X03469Y00961*
X03468Y00971*
X03464Y0098*
X03457Y00989*
X03449Y00995*
X03439Y00999*
X03429Y01*
X03419Y00999*
X03409Y00995*
X03401Y00989*
X03395Y0098*
X03392Y00973*
X03324*
X03205Y01091*
X03191Y01106*
X03193Y01111*
X03197Y0111*
X03205Y01111*
X03211Y01116*
X03215Y01122*
X03217Y0113*
X03222Y01132*
Y01131*
X03229Y01127*
X03232Y01126*
Y01146*
X03236*
Y0115*
X03256*
X03255Y01153*
X03254Y01155*
X03256Y01159*
X03283*
Y01234*
G37*
G36*
X02343Y01138D02*
X02327D01*
X02328Y01134*
X02332Y01128*
X02339Y01123*
X02343Y01122*
Y01138*
G37*
G36*
X02366D02*
X0235D01*
Y01122*
X02354Y01123*
X02361Y01128*
X02365Y01134*
X02366Y01138*
G37*
G36*
X02063Y01157D02*
Y01142D01*
X02078*
Y01145*
X02073Y01152*
X02067Y01156*
X02063Y01157*
G37*
G36*
X02338Y01173D02*
X02323D01*
Y01158*
X02327Y01159*
X02333Y01163*
X02337Y01169*
X02338Y01173*
G37*
G36*
X03325Y01274D02*
X03317Y01272D01*
X03311Y01268*
X03306Y01262*
X03305Y01254*
X03306Y01246*
X03311Y0124*
Y01239*
X0331Y01234*
X03291*
Y01159*
X03358*
Y01234*
X0334*
X03338Y01239*
X03339Y0124*
X03343Y01246*
X03345Y01254*
X03343Y01262*
X03339Y01268*
X03332Y01272*
X03325Y01274*
G37*
G36*
X02315Y01173D02*
X023D01*
Y01169*
X02305Y01163*
X02311Y01159*
X02315Y01158*
Y01173*
G37*
G36*
X02343Y01161D02*
X02339Y0116D01*
X02332Y01156*
X02328Y01149*
X02327Y01146*
X02343*
Y01161*
G37*
G36*
X0235D02*
Y01146D01*
X02366*
X02365Y01149*
X02361Y01156*
X02354Y0116*
X0235Y01161*
G37*
G36*
X03417Y0112D02*
X0335D01*
Y01045*
X03417*
Y01068*
X03422Y01069*
X03423Y01068*
X03429Y01064*
X03437Y01063*
X03445Y01064*
X03451Y01068*
X03456Y01075*
X03457Y01083*
X03456Y0109*
X03451Y01097*
X03445Y01101*
X03437Y01103*
X03429Y01101*
X03423Y01097*
X03422Y01096*
X03417Y01098*
Y0112*
G37*
G36*
X02528Y01148D02*
X02461D01*
Y01073*
X02528*
Y01086*
X02535Y01088*
X02542Y01092*
X02546Y01099*
X02548Y01106*
X02546Y01114*
X02542Y0112*
X02535Y01125*
X02528Y01126*
Y01148*
G37*
G36*
X02913Y01071D02*
X02906Y0107D01*
X02899Y01065*
X02895Y01059*
X02893Y01051*
X02889Y01047*
X02886Y01048*
X02878Y01046*
X02872Y01042*
X0287Y0104*
X02709*
X02704Y01039*
X027Y01036*
X02696Y01032*
X02694Y01028*
X02693Y01024*
Y0102*
X02691Y01018*
X02686Y01012*
X02685Y01004*
X02686Y00996*
X02691Y0099*
X02697Y00985*
X02705Y00984*
X02712Y00985*
X02719Y0099*
X02723Y00996*
X02725Y01004*
X02723Y01011*
X02726Y01016*
X0287*
X02872Y01013*
X02878Y01009*
X02886Y01007*
X02894Y01009*
X029Y01013*
X02904Y0102*
X02906Y01028*
X0291Y01032*
X02913Y01031*
X02921Y01033*
X02928Y01037*
X02932Y01043*
X02933Y01051*
X02932Y01059*
X02928Y01065*
X02921Y0107*
X02913Y01071*
G37*
G36*
X02252Y01055D02*
X02248Y01054D01*
X02242Y0105*
X02237Y01043*
Y01039*
X02252*
Y01055*
G37*
G36*
X0226D02*
Y01039D01*
X02275*
X02274Y01043*
X0227Y0105*
X02264Y01054*
X0226Y01055*
G37*
G36*
X02453Y01344D02*
X02386D01*
Y0127*
X02407*
Y01246*
X02386*
Y01171*
X02407*
Y01148*
X02386*
Y01075*
X02338*
X02335Y01079*
X02328Y01084*
X02319Y01086*
X0231Y01084*
X02303Y01079*
X02298Y01072*
X02296Y01063*
X02298Y01054*
X02303Y01047*
X0231Y01042*
X02319Y0104*
X02323Y01041*
X02328*
X02331Y01038*
Y01035*
Y01004*
X0237*
Y01039*
X02335*
X02333*
X02332Y01043*
X02335Y01047*
X02338Y01051*
X02436*
X02476Y01011*
X0248Y01009*
X02484Y01008*
X02543*
X02545Y01005*
X02551Y01001*
X02559Y01*
X02567Y01001*
X02573Y01005*
X02578Y01012*
X02579Y0102*
X02578Y01027*
X02573Y01034*
X02567Y01038*
X02559Y0104*
X02551Y01038*
X02545Y01034*
X02543Y01032*
X02489*
X02453Y01068*
Y01073*
Y01148*
X02431*
Y01171*
X02453*
Y01246*
X02431*
Y0127*
X02453*
Y01344*
G37*
G36*
X02055Y01134D02*
X0204D01*
X02041Y0113*
X02045Y01124*
X02051Y01119*
X02055*
Y01134*
G37*
G36*
X02078D02*
X02063D01*
Y01119*
X02067*
X02073Y01124*
X02078Y0113*
Y01134*
G37*
G36*
X03343Y0112D02*
X03276D01*
Y01102*
X03271Y01099*
X03268Y01101*
X0326Y01103*
X03252Y01101*
X03246Y01097*
X03241Y0109*
X0324Y01083*
X03241Y01075*
X03246Y01068*
X03252Y01064*
X0326Y01063*
X03268Y01064*
X03271Y01066*
X03276Y01064*
Y01045*
X03343*
Y0112*
G37*
G36*
X02813Y01118D02*
X02783D01*
Y01085*
X02813*
Y01118*
G37*
G36*
X0285D02*
X02821D01*
Y01085*
X0285*
Y01118*
G37*
G36*
X03469Y00915D02*
X03466Y0091D01*
X03462Y009*
X0346Y0089*
X03462Y0088*
X03466Y0087*
X03469Y00865*
X03494Y0089*
X03469Y00915*
G37*
G36*
X02567Y0061D02*
Y00594D01*
X02582*
Y00598*
X02577Y00605*
X02571Y00609*
X02567Y0061*
G37*
G36*
X0263D02*
X02626Y00609D01*
X0262Y00605*
X02615Y00598*
Y00594*
X0263*
Y0061*
G37*
G36*
X02559D02*
X02555Y00609D01*
X02549Y00605*
X02544Y00598*
Y00594*
X02559*
Y0061*
G37*
G36*
X02362Y008D02*
X02345Y00798D01*
X02328Y00794*
X02312Y00788*
X02297Y00778*
X02284Y00767*
X02273Y00754*
X02264Y00739*
X02257Y00723*
X02253Y00706*
X02252Y00689*
X02253Y00672*
X02257Y00655*
X02264Y00639*
X02273Y00624*
X02284Y00611*
X02297Y006*
X02312Y0059*
X02328Y00584*
X02345Y0058*
X02362Y00578*
X0238Y0058*
X02396Y00584*
X02412Y0059*
X02427Y006*
X0244Y00611*
X02452Y00624*
X02461Y00639*
X02467Y00655*
X02471Y00672*
X02473Y00689*
X02471Y00706*
X02467Y00723*
X02461Y00739*
X02452Y00754*
X0244Y00767*
X02427Y00778*
X02412Y00788*
X02396Y00794*
X0238Y00798*
X02362Y008*
G37*
G36*
X03189D02*
X03172Y00798D01*
X03155Y00794*
X03139Y00788*
X03124Y00778*
X03111Y00767*
X031Y00754*
X0309Y00739*
X03084Y00723*
X0308Y00706*
X03078Y00689*
X0308Y00672*
X03084Y00655*
X0309Y00639*
X031Y00624*
X03111Y00611*
X03124Y006*
X03139Y0059*
X03155Y00584*
X03172Y0058*
X03189Y00578*
X03206Y0058*
X03223Y00584*
X03239Y0059*
X03254Y006*
X03267Y00611*
X03278Y00624*
X03288Y00639*
X03294Y00655*
X03298Y00672*
X033Y00689*
X03298Y00706*
X03294Y00723*
X03288Y00739*
X03278Y00754*
X03267Y00767*
X03254Y00778*
X03239Y00788*
X03223Y00794*
X03206Y00798*
X03189Y008*
G37*
G36*
X02638Y0061D02*
Y00594D01*
X02653*
X02652Y00598*
X02648Y00605*
X02642Y00609*
X02638Y0061*
G37*
G36*
X02933Y00628D02*
X02904D01*
Y00594*
X02933*
Y00628*
G37*
G36*
X02655Y0064D02*
X0264D01*
Y00616*
X02655*
Y0064*
G37*
G36*
X02896Y00628D02*
X02866D01*
Y00594*
X02896*
Y00628*
G37*
G36*
X02789D02*
X0276D01*
Y00594*
X02789*
Y00628*
G37*
G36*
X02827D02*
X02797D01*
Y00594*
X02827*
Y00628*
G37*
G36*
X02789Y00587D02*
X0276D01*
Y00553*
X02789*
Y00587*
G37*
G36*
X02827D02*
X02797D01*
Y00553*
X02827*
Y00587*
G37*
G36*
X02717Y0065D02*
X02709Y00648D01*
X02702Y00644*
X02698Y00638*
X02696Y0063*
X02695Y00628*
X02685*
Y00553*
X02697*
X02698Y00547*
X02702Y00541*
X02709Y00537*
X02717Y00535*
X02724Y00537*
X02731Y00541*
X02735Y00547*
X02736Y00553*
X02752*
Y00628*
X02738*
X02737Y0063*
X02735Y00638*
X02731Y00644*
X02724Y00648*
X02717Y0065*
G37*
G36*
X02655Y00565D02*
X02617D01*
Y0051*
X02655*
Y00523*
X02665*
X02699Y0049*
X02703Y00487*
X02709Y00486*
X02907*
X02914Y00481*
X02921Y0048*
X02929Y00481*
X02935Y00486*
X0294Y00492*
X02941Y005*
X0294Y00508*
X02935Y00514*
X02929Y00519*
X02921Y0052*
X02914Y00519*
X02907Y00514*
X02714*
X02681Y00547*
X02677Y0055*
X02671Y00551*
X02655*
Y00565*
G37*
G36*
X0258D02*
X02542D01*
Y0051*
X02556*
Y00508*
X02561Y00502*
X02567Y00497*
X02575Y00496*
X02582Y00497*
X02589Y00502*
X02593Y00508*
X02595Y00516*
X02593Y00523*
X02589Y0053*
X02582Y00534*
X0258Y00535*
Y00565*
G37*
G36*
X02896Y00587D02*
X02866D01*
Y00553*
X02896*
Y00587*
G37*
G36*
X0263D02*
X02615D01*
Y00583*
X0262Y00576*
X02626Y00572*
X0263Y00571*
Y00587*
G37*
G36*
X02653D02*
X02638D01*
Y00571*
X02642Y00572*
X02648Y00576*
X02652Y00583*
X02653Y00587*
G37*
G36*
X02582D02*
X02567D01*
Y00571*
X02571Y00572*
X02577Y00576*
X02582Y00583*
Y00587*
G37*
G36*
X02933D02*
X02904D01*
Y00553*
X02933*
Y00587*
G37*
G36*
X02559D02*
X02544D01*
Y00583*
X02549Y00576*
X02555Y00572*
X02559Y00571*
Y00587*
G37*
G36*
X02791Y00654D02*
X02776D01*
X02777Y0065*
X02781Y00643*
X02788Y00639*
X02791Y00638*
Y00654*
G37*
G36*
X0283Y00819D02*
X02815D01*
Y00804*
X02819*
X02825Y00809*
X0283Y00815*
Y00819*
G37*
G36*
X02898Y00843D02*
X02864D01*
Y00813*
X02898*
Y00843*
G37*
G36*
X02807Y00819D02*
X02792D01*
Y00815*
X02797Y00809*
X02803Y00804*
X02807*
Y00819*
G37*
G36*
X02939Y00805D02*
X02906D01*
Y00776*
X02939*
Y00805*
G37*
G36*
X03209Y00981D02*
X03201Y00979D01*
X03194Y00975*
X0319Y00968*
X03189Y00961*
X0319Y00953*
X03194Y00946*
X03201Y00942*
X03209Y00941*
X03211*
X03342Y00811*
X03346Y00808*
X0335Y00807*
X03392*
X03395Y00799*
X03401Y00791*
X03409Y00785*
X03419Y00781*
X03429Y00779*
X03439Y00781*
X03449Y00785*
X03457Y00791*
X03464Y00799*
X03468Y00809*
X03469Y00819*
X03468Y00829*
X03464Y00839*
X03457Y00847*
X03449Y00854*
X03439Y00857*
X03429Y00859*
X03419Y00857*
X03409Y00854*
X03401Y00847*
X03395Y00839*
X03392Y00831*
X03355*
X03332Y00854*
X03336Y00858*
X03339Y00855*
X03348Y00851*
X03359Y0085*
X03369Y00851*
X03378Y00855*
X03387Y00862*
X03393Y0087*
X03397Y0088*
X03398Y0089*
X03397Y009*
X03393Y0091*
X03387Y00918*
X03378Y00924*
X03369Y00928*
X03359Y0093*
X03348Y00928*
X03339Y00924*
X0333Y00918*
X03324Y0091*
X0332Y009*
X03319Y0089*
X0332Y0088*
X03324Y0087*
X03326Y00867*
X03323Y00864*
X03228Y00958*
X03229Y00961*
X03227Y00968*
X03223Y00975*
X03216Y00979*
X03209Y00981*
G37*
G36*
X02939Y00843D02*
X02906D01*
Y00813*
X02939*
Y00843*
G37*
G36*
X02902Y00937D02*
X02894Y00936D01*
X02887Y00932*
X02883Y00925*
X02882Y00917*
X02864*
Y0085*
X02939*
Y00866*
X02945Y00867*
X02951Y00872*
X02956Y00878*
X02957Y00886*
X02956Y00894*
X02951Y009*
X02945Y00904*
X02939Y00906*
Y00917*
X02922*
X0292Y00925*
X02916Y00932*
X02909Y00936*
X02902Y00937*
G37*
G36*
X02417Y00929D02*
X02331D01*
Y00909*
X02327Y00908*
X0232Y00904*
X02316Y00897*
X02315Y0089*
X02316Y00882*
X0232Y00876*
X02327Y00871*
X02331Y0087*
Y0085*
X02417*
Y00929*
G37*
G36*
X035Y00884D02*
X03475Y00859D01*
X0348Y00855*
X0349Y00851*
X035Y0085*
X0351Y00851*
X0352Y00855*
X03525Y00859*
X035Y00884*
G37*
G36*
X02807Y00842D02*
X02803Y00841D01*
X02797Y00837*
X02792Y00831*
Y00827*
X02807*
Y00842*
G37*
G36*
X02815D02*
Y00827D01*
X0283*
Y00831*
X02825Y00837*
X02819Y00841*
X02815Y00842*
G37*
G36*
X02791Y00677D02*
X02788Y00676D01*
X02781Y00672*
X02777Y00665*
X02776Y00661*
X02791*
Y00677*
G37*
G36*
X02831D02*
Y00661D01*
X02846*
X02845Y00665*
X02841Y00672*
X02834Y00676*
X02831Y00677*
G37*
G36*
X02528Y00902D02*
X0252Y009D01*
X02513Y00896*
X02509Y0089*
X02507Y00882*
X02509Y00874*
X02513Y00868*
X0252Y00863*
X02528Y00862*
X02535Y00863*
X02542Y00868*
X02543Y0087*
X02548Y00869*
X02549Y00865*
X02544Y00858*
X02543Y0085*
X02544Y00843*
X02549Y00836*
X02551Y00835*
Y00705*
X02549Y00703*
X02544Y00697*
X02543Y00689*
X02544Y00681*
X02548Y00676*
X02546Y00672*
Y00671*
X02544*
Y00616*
X02617*
X02632*
Y00644*
X02636*
Y00648*
X02655*
Y00667*
X02657Y00669*
X02728*
X0273Y00667*
X02736Y00663*
X02744Y00661*
X02752Y00663*
X02758Y00667*
X02763Y00673*
X02764Y00681*
X02763Y00689*
X02758Y00695*
X02752Y007*
X02744Y00701*
X02736Y007*
X0273Y00695*
X02728Y00693*
X02662*
X02642Y00714*
Y00805*
X02671*
Y00843*
Y0088*
X02642*
X02637*
X02627Y0089*
X02623Y00893*
X02618Y00894*
X02543*
X02542Y00896*
X02535Y009*
X02528Y00902*
G37*
G36*
X02846Y00654D02*
X02831D01*
Y00638*
X02834Y00639*
X02841Y00643*
X02845Y0065*
X02846Y00654*
G37*
G36*
X02886D02*
X0287D01*
X02871Y0065*
X02876Y00643*
X02882Y00639*
X02886Y00638*
Y00654*
G37*
G36*
X02823Y00677D02*
X02819Y00676D01*
X02815Y00673*
X02811Y00672*
X02807Y00673*
X02803Y00676*
X02799Y00677*
Y00657*
Y00638*
X02803Y00639*
X02807Y00642*
X02811Y00643*
X02815Y00642*
X02819Y00639*
X02823Y00638*
Y00657*
Y00677*
G37*
G36*
X02846Y00785D02*
X0278D01*
Y00711*
X02846*
Y00725*
X0285Y00728*
X02858Y00729*
X02865Y00734*
X02869Y0074*
X0287Y00748*
X02869Y00756*
X02865Y00762*
X02858Y00767*
X0285Y00768*
X02846Y00771*
Y00785*
G37*
G36*
X02898Y00805D02*
X02864D01*
Y00776*
X02898*
Y00805*
G37*
G36*
X02772Y00744D02*
X02742D01*
Y00711*
X02772*
Y00744*
G37*
G36*
X03571Y01016D02*
X03515Y00961D01*
X03571Y00905*
X0359Y00924*
X03592Y00923*
X03593Y00917*
X03243Y00567*
X03107*
X03013Y00661*
X03014Y00666*
X03016*
X03022Y00671*
X03026Y00677*
X03028Y00684*
X03029Y00686*
X03031Y00689*
X03039Y0069*
X03046Y00694*
X0305Y00701*
X03052Y00709*
X0305Y00716*
X03046Y00723*
X03044Y00724*
Y00743*
X03079Y00779*
X03082Y00783*
X03083Y00787*
Y00811*
X03085Y00813*
X03089Y00819*
X03091Y00827*
X03089Y00834*
X03085Y00841*
X03079Y00845*
X03071Y00847*
X03063Y00845*
X03057Y00841*
X03054Y00837*
X03048*
X03046Y00841*
X03039Y00845*
X03031Y00847*
X03024Y00845*
X03017Y00841*
X03015Y00837*
X03009*
X03006Y00841*
X03Y00845*
X02992Y00847*
X02984Y00845*
X02978Y00841*
X02974Y00834*
X02972Y00827*
X02974Y00819*
X02978Y00813*
X0298Y00811*
Y00792*
X02944Y00757*
X02942Y00753*
X02941Y00748*
Y00724*
X02939Y00723*
X02934Y00716*
X02933Y00709*
X02931Y00708*
X02928Y00707*
X02926Y00708*
X02921Y00709*
X02917*
X02916Y00711*
X02909Y00715*
X02902Y00717*
X02894Y00715*
X02887Y00711*
X02883Y00705*
X02882Y00697*
X02883Y00689*
X02887Y00683*
X02888Y00682*
X02887Y00677*
X02882Y00676*
X02876Y00672*
X02871Y00665*
X0287Y00661*
X0289*
Y00657*
X02894*
Y00638*
X02897Y00639*
X02902Y00642*
X02906Y00643*
X02909Y00642*
X02914Y00639*
X02921Y00637*
X02929Y00639*
X02935Y00643*
X0294Y0065*
X02941Y00657*
X0294Y00664*
X02943Y00669*
X02971*
X0299Y00651*
X02987Y00647*
X02984Y00648*
X02976Y0065*
X02969Y00648*
X02962Y00644*
X02958Y00638*
X02956Y0063*
X02955Y00628*
X02941*
Y00553*
X02955*
X02956Y00551*
X02958Y00544*
X02962Y00537*
X02969Y00533*
X02976Y00531*
X02984Y00533*
X02991Y00537*
X02995Y00544*
X02996Y00551*
X02998Y00553*
X03008*
Y00624*
Y00626*
X03013Y00628*
X03094Y00547*
X03098Y00544*
X03102Y00543*
X03248*
X03253Y00544*
X03257Y00547*
X03623Y00913*
X03625Y00917*
X03626Y00921*
X03625Y00926*
X03623Y0093*
X03609Y00943*
X03626Y00961*
X03571Y01016*
G37*
G36*
X02734Y00744D02*
X02705D01*
Y00711*
X02734*
Y00744*
G37*
G36*
X02711Y0152D02*
X02677D01*
Y0149*
X02711*
Y0152*
G37*
G36*
X02768D02*
X02734D01*
Y0149*
X02768*
Y0152*
G37*
G36*
X02669D02*
X02636D01*
Y0149*
X02669*
Y0152*
G37*
G36*
X03358Y01488D02*
X03343D01*
Y01473*
X03346Y01474*
X03353Y01478*
X03357Y01484*
X03358Y01488*
G37*
G36*
X04106Y01552D02*
X04063Y01508D01*
X04035*
X04031Y01507*
X04027Y01505*
X04008Y01486*
X04003Y01488*
X04004Y01496*
X04003Y01506*
X03999Y01516*
X03995Y01521*
X03968Y01493*
X0394Y01466*
X03945Y01462*
X03954Y01458*
X03965Y01456*
X03973Y01457*
X03975Y01453*
X0392Y01398*
X03693*
X03688Y01397*
X03684Y01394*
X03625Y01335*
X03622*
X03614Y01334*
X03608Y01329*
X03604Y01323*
X03602Y01315*
X03604Y01307*
X03608Y01301*
X03614Y01296*
X03622Y01295*
X0363Y01296*
X03636Y01301*
X03641Y01307*
X03642Y01315*
Y01317*
X03698Y01374*
X03757*
X03758Y01373*
Y01369*
X03755Y01367*
X03597Y01209*
X03594*
X03587Y01208*
X0358Y01203*
X03576Y01197*
X03574Y01189*
X03576Y01181*
X0358Y01175*
X03587Y0117*
X03594Y01169*
X03602Y0117*
X03609Y01175*
X03613Y01181*
X03615Y01189*
X03614Y01192*
X03769Y01346*
X03969*
X03973Y01347*
X03977Y0135*
X04017Y0139*
X04025Y01387*
X04035Y01386*
X04046Y01387*
X04055Y01391*
X04064Y01397*
X0407Y01405*
X04074Y01415*
X04075Y01425*
X04074Y01436*
X0407Y01445*
X04064Y01453*
X04055Y0146*
X04046Y01464*
X04035Y01465*
X04027Y01464*
X04025Y01469*
X0404Y01484*
X04063*
X04106Y0144*
X04162Y01496*
X04106Y01552*
G37*
G36*
X02809Y0152D02*
X02776D01*
Y0149*
X02809*
Y0152*
G37*
G36*
X01307Y01851D02*
X01289Y01849D01*
X0127Y01845*
X01253Y01838*
X01237Y01828*
X01223Y01816*
X01211Y01802*
X01202Y01786*
X01196Y01772*
X012*
X01202Y01767*
Y01766*
X01198Y0175*
X01197Y01732*
X01198Y01715*
X01202Y01698*
X01209Y01682*
X01218Y01667*
X01229Y01654*
X01242Y01643*
X01257Y01634*
X01273Y01627*
X0129Y01623*
X01307Y01622*
X01324Y01623*
X01341Y01627*
X01357Y01634*
X01372Y01643*
X01385Y01654*
X01397Y01667*
X01406Y01682*
X01412Y01698*
X01416Y01715*
X01418Y01732*
X01416Y0175*
X01412Y01766*
Y01767*
X01415Y01772*
X01419*
X01413Y01786*
X01403Y01802*
X01391Y01816*
X01377Y01828*
X01361Y01838*
X01344Y01845*
X01326Y01849*
X01307Y01851*
G37*
G36*
X0261Y01638D02*
X02595D01*
X02596Y01634*
X026Y01628*
X02606Y01623*
X0261Y01622*
Y01638*
G37*
G36*
X04035Y01606D02*
X04025Y01605D01*
X04016Y01601*
X04007Y01595*
X04001Y01587*
X03997Y01577*
X03996Y01567*
X03997Y01556*
X04001Y01547*
X04007Y01539*
X04016Y01532*
X04025Y01528*
X04035Y01527*
X04046Y01528*
X04055Y01532*
X04064Y01539*
X0407Y01547*
X04074Y01556*
X04075Y01567*
X04074Y01577*
X0407Y01587*
X04064Y01595*
X04055Y01601*
X04046Y01605*
X04035Y01606*
G37*
G36*
X03343Y01511D02*
Y01496D01*
X03358*
X03357Y015*
X03353Y01506*
X03346Y01511*
X03343*
G37*
G36*
X03965Y01536D02*
X03954Y01534D01*
X03945Y0153*
X0394Y01527*
X03965Y01502*
X0399Y01527*
X03985Y0153*
X03975Y01534*
X03965Y01536*
G37*
G36*
X02612Y0152D02*
X02537D01*
Y01453*
X02553*
X02556Y01448*
X02555Y01441*
X02556Y01433*
X02561Y01427*
X02567Y01422*
X02575Y01421*
X02582Y01422*
X02589Y01427*
X02593Y01433*
X02595Y01441*
X02594Y01448*
X02596Y01453*
X02612*
Y0152*
G37*
G36*
X03244Y01514D02*
X03177D01*
Y01439*
X03201*
X03202Y01433*
X03206Y01427*
X03213Y01422*
X0322Y01421*
X03228Y01422*
X03235Y01427*
X03239Y01433*
X0324Y01439*
X03244*
Y01514*
G37*
G36*
X02634Y01425D02*
Y01409D01*
X02649*
X02648Y01413*
X02644Y0142*
X02638Y01424*
X02634Y01425*
G37*
G36*
X02024Y01417D02*
Y01402D01*
X02039*
X02038Y01405*
X02034Y01412*
X02027Y01416*
X02024Y01417*
G37*
G36*
X02626Y01425D02*
X02622Y01424D01*
X02616Y0142*
X02611Y01413*
Y01409*
X02626*
Y01425*
G37*
G36*
X03281Y01472D02*
X03252D01*
Y01439*
X03281*
Y01472*
G37*
G36*
X02933Y0148D02*
X02929Y01479D01*
X02923Y01475*
X02918Y01468*
Y01465*
X02933*
Y0148*
G37*
G36*
X03934Y01521D02*
X0393Y01516D01*
X03926Y01506*
X03925Y01496*
X03926Y01486*
X0393Y01476*
X03934Y01471*
X03959Y01496*
X03934Y01521*
G37*
G36*
X02711Y01482D02*
X02677D01*
Y01453*
X02711*
Y01482*
G37*
G36*
X02933Y01457D02*
X02918D01*
Y01453*
X02923Y01446*
X02929Y01442*
X02933Y01441*
Y01457*
G37*
G36*
X02669Y01482D02*
X02636D01*
Y01453*
X02669*
Y01482*
G37*
G36*
X02633Y01638D02*
X02618D01*
Y01622*
X02622Y01623*
X02628Y01628*
X02633Y01634*
Y01638*
G37*
G36*
X02323Y01823D02*
X02316Y01822D01*
X02309Y01819*
X02303Y01815*
X023Y01811*
X02258*
Y01772*
X02266*
Y01736*
X02341*
Y01772*
X02348*
Y01785*
X0235Y01788*
X02351Y01795*
X0235Y01802*
X02348Y01806*
Y01811*
X02345*
X02342Y01815*
X02337Y01819*
X0233Y01822*
X02323Y01823*
G37*
G36*
X03075Y02033D02*
X02992D01*
Y02022*
X02988Y02018*
X02984Y02019*
X02976Y02018*
X02969Y02015*
X02962Y0201*
X02958Y02004*
X02955Y01996*
X02953Y01988*
X02955Y0198*
X02958Y01973*
X02962Y01966*
X02969Y01962*
X02976Y01958*
X02984Y01957*
X02988Y01958*
X02992Y01955*
Y01943*
X03075*
Y02033*
G37*
G36*
X02957Y01819D02*
X02949Y01818D01*
X02943Y01815*
X02937Y01811*
X02933Y01805*
X0293Y01799*
X02929Y01791*
X0293Y01784*
X02933Y01777*
X02934Y01776*
X02931Y01772*
X02943*
Y01732*
X03018*
Y01772*
X03026*
Y01807*
X02979*
X02976Y01811*
X02971Y01815*
X02964Y01818*
X02957Y01819*
G37*
G36*
X0265D02*
X02642Y01818D01*
X02636Y01815*
X0263Y01811*
X02626Y01805*
X02623Y01799*
X02622Y01791*
X02623Y01784*
X02626Y01777*
X02627Y01776*
X02624Y01772*
X02636*
Y01732*
X02711*
Y01772*
X02719*
Y01807*
X02672*
X02669Y01811*
X02664Y01815*
X02657Y01818*
X0265Y01819*
G37*
G36*
X02799D02*
X02792Y01818D01*
X02785Y01815*
X0278Y01811*
X02775Y01805*
X02772Y01799*
X02771Y01791*
X02772Y01784*
X02775Y01777*
X02776Y01776*
X02774Y01772*
X02785*
Y01732*
X0286*
Y01772*
X02868*
Y01807*
X02822*
X02819Y01811*
X02813Y01815*
X02806Y01818*
X02799Y01819*
G37*
G36*
X01228Y023D02*
X01214Y02298D01*
X01201Y02292*
X01189Y02283*
X0118Y02272*
X01175Y02258*
X01173Y02244*
X01175Y0223*
X0118Y02216*
X01189Y02205*
X01201Y02196*
X01214Y0219*
X01228Y02189*
X01243Y0219*
X01256Y02196*
X01268Y02205*
X01276Y02216*
X01282Y0223*
X01284Y02244*
X01282Y02258*
X01276Y02272*
X01268Y02283*
X01256Y02292*
X01243Y02298*
X01228Y023*
G37*
G36*
X03075Y02329D02*
X02992D01*
Y02317*
X02988Y02314*
X02984*
X02976Y02313*
X02969Y0231*
X02962Y02305*
X02958Y02299*
X02955Y02291*
X02953Y02283*
X02955Y02275*
X02958Y02268*
X02962Y02262*
X02969Y02257*
X02976Y02254*
X02984Y02253*
X02988*
X02992Y0225*
Y02238*
X03075*
Y02329*
G37*
G36*
X03573Y02409D02*
X03482D01*
Y02388*
X03474*
Y02409*
X03384*
Y02327*
X03408*
X0341Y02322*
X03407Y02315*
X03406Y02307*
X03407Y02299*
X0341Y02292*
X03415Y02285*
X03422Y0228*
X03429Y02277*
X03437Y02276*
X03445Y02277*
X03452Y0228*
X03459Y02285*
X03464Y02292*
X03467Y02299*
X03468Y02307*
X03467Y02315*
X03464Y02322*
X03466Y02327*
X03474*
Y02348*
X03482*
Y02327*
X03573*
Y02409*
G37*
G36*
X01898Y02516D02*
X01457D01*
X01447Y02515*
X01439Y02511*
X01431Y02506*
X01426Y02498*
X01422Y0249*
X01421Y0248*
X01422Y02471*
X01426Y02462*
X01431Y02455*
X01439Y02449*
X01447Y02446*
X01457Y02445*
X01883*
X01915Y02412*
X01913Y02407*
X01862*
X01835Y0238*
Y02305*
X01862Y02278*
X01883*
Y0223*
X01866*
Y02152*
X01851*
X01848Y02155*
X01841Y02158*
X01833Y02159*
X01825Y02158*
X01817Y02155*
X01811Y0215*
X01806Y02143*
X01803Y02136*
X01802Y02128*
X01803Y0212*
Y02119*
X018Y02117*
X01793Y02112*
X01788Y02106*
X01785Y02099*
X01784Y02091*
X01785Y02083*
X01788Y02075*
X01791Y02071*
Y01994*
X01717*
Y02073*
Y0214*
Y0223*
X01634*
Y02172*
X01626Y02164*
X01618Y02156*
X01614Y02157*
X01606Y02156*
X01599Y02153*
X01592Y02148*
X01588Y02141*
X01584Y02134*
X01583Y02126*
X01584Y02118*
X01588Y02111*
X01591Y02106*
X01588Y02102*
X01584Y02095*
X01583Y02087*
X01584Y02079*
X01588Y02071*
X01592Y02065*
X01599Y0206*
X01604Y02053*
X01599Y02047*
X01596Y02039*
X01595Y02031*
X01596Y02024*
X01599Y02016*
X01604Y0201*
X01611Y02005*
X01618Y02002*
X01626Y02001*
X0163*
X01634Y01998*
Y01982*
X01709*
Y01904*
X01791*
X01874*
Y01982*
X01919*
X01929Y01972*
Y01858*
X01931Y01849*
X01936Y01841*
X01942Y01835*
X01943Y01831*
X01946Y01823*
X01951Y01817*
X01957Y01812*
X01964Y01809*
X01972Y01808*
X0198Y01809*
X01988Y01812*
X01994Y01817*
X01999Y01823*
X02002Y01831*
X02003Y01839*
X02002Y01847*
X01999Y01854*
X01994Y0186*
X01988Y01865*
X0198Y01868*
X01977Y01869*
Y01982*
X01975Y01992*
X0197Y01999*
X01949Y0202*
Y02073*
X01845*
X01842Y02077*
X01845Y02083*
X01846Y02091*
X01845Y02099*
Y021*
X01848Y02101*
X01851Y02104*
X01892*
X01901Y02106*
X01909Y02111*
X01925Y02127*
X0193Y02134*
X01931Y0214*
X01949*
Y0223*
X01932*
Y02272*
X01967Y02307*
X01969*
X01978Y02308*
X01986Y02312*
X01994Y02317*
X01999Y02325*
X02003Y02333*
X02004Y02343*
Y02409*
X02003Y02419*
X01999Y02427*
X01994Y02435*
X01923Y02506*
X01916Y02511*
X01907Y02515*
X01898Y02516*
G37*
G36*
X01732Y02407D02*
X01677D01*
X0165Y0238*
Y02305*
X01677Y02278*
X01732*
X0176Y02305*
Y0238*
X01732Y02407*
G37*
G36*
X01547Y02411D02*
X01492D01*
X01465Y02384*
Y02309*
X01492Y02281*
X01547*
X01575Y02309*
Y02384*
X01547Y02411*
G37*
G36*
X0239Y01673D02*
X02374D01*
X02375Y01669*
X0238Y01663*
X02386Y01659*
X0239Y01658*
Y01673*
G37*
G36*
X02413D02*
X02398D01*
Y01658*
X02401Y01659*
X02408Y01663*
X02412Y01669*
X02413Y01673*
G37*
G36*
X02341Y01728D02*
X02266D01*
Y01688*
X02264*
X02257Y01683*
X02253Y01677*
X02252Y01669*
X02253Y01662*
X02257Y01655*
X02264Y01651*
X02272Y01649*
X02279Y01651*
X02286Y01655*
X0229Y01661*
X02341*
Y01728*
G37*
G36*
X0261Y01661D02*
X02606Y0166D01*
X026Y01656*
X02596Y01649*
X02595Y01646*
X0261*
Y01661*
G37*
G36*
X02618D02*
Y01646D01*
X02633*
Y01649*
X02628Y01656*
X02622Y0166*
X02618Y01661*
G37*
G36*
X0239Y01696D02*
X02386D01*
X0238Y01691*
X02375Y01685*
X02374Y01681*
X0239*
Y01696*
G37*
G36*
X0276Y01724D02*
X02756Y01723D01*
X0275Y01719*
X02745Y01712*
X02744Y01709*
X0276*
Y01724*
G37*
G36*
X03018D02*
X02943D01*
Y01717*
X02938Y01715*
X02935Y01719*
X02929Y01723*
X02925Y01724*
Y01705*
X02917*
Y01724*
X02914Y01723*
X02907Y01719*
X02903Y01712*
X02901Y01705*
X02897Y01702*
X02896*
X02892Y01703*
X0286*
Y01724*
X02785*
Y01717*
X0278Y01715*
X02778Y01719*
X02771Y01723*
X02768Y01724*
Y01705*
Y01685*
X02771Y01686*
X02778Y01691*
X0278Y01694*
X02785Y01693*
Y01657*
X0286*
Y01679*
X02887*
X02949Y01617*
Y01567*
Y01482*
X02944Y01479*
X02941Y0148*
Y01461*
Y01441*
X02944Y01442*
X02949Y01439*
Y01371*
X02948Y0137*
X0288*
Y01371*
Y01375*
X02883Y01377*
X02885Y01381*
X02886Y01386*
Y01471*
X02911Y01496*
X02913*
X02921Y01497*
X02928Y01502*
X02932Y01508*
X02933Y01516*
X02932Y01523*
X02928Y0153*
X02921Y01534*
X02913Y01536*
X02909Y01535*
X02906Y01539*
X02908Y01543*
X0291Y01551*
X02908Y01559*
X02904Y01565*
X02897Y0157*
X0289Y01571*
X02882Y0157*
X02878Y01567*
X02874Y01566*
X0287Y01567*
X02866Y0157*
X02858Y01571*
X02851Y0157*
X02846Y01567*
X02842Y0157*
X02843Y01575*
X02841Y01582*
X02837Y01589*
X02831Y01593*
X02823Y01595*
X02815Y01593*
X02813Y01592*
X02809Y01594*
X02734*
Y01573*
X02711*
Y01594*
X02636*
Y01573*
X02612*
Y01594*
X02537*
Y01528*
X02612*
Y01549*
X02636*
Y01528*
X02711*
Y01549*
X02734*
Y01528*
X02809*
Y01549*
X02814Y0155*
X02818Y01553*
X0282Y01555*
X02823*
X02831Y01556*
X02835Y01559*
X02839Y01556*
X02838Y01551*
X02839Y01549*
X02818Y01528*
X02816Y01524*
X02815Y0152*
Y01465*
X02814Y01464*
X02809Y01467*
Y01482*
X02734*
Y01453*
X02741*
X02743Y01448*
X02741Y01445*
X0274Y01437*
X02741Y0143*
X02738Y01425*
X027*
Y01429*
X02695Y01435*
X02689Y0144*
X02681Y01441*
X02673Y0144*
X02667Y01435*
X02663Y01429*
X02661Y01421*
X02663Y01414*
X02667Y01407*
X02673Y01403*
X02681Y01401*
X02685Y01402*
X02689Y01401*
X02753*
X02754*
Y01396*
X02751Y01394*
X02716Y01359*
X02713Y01355*
X02712Y0135*
Y0132*
X02709Y01317*
X02679*
Y0128*
X02675*
Y01276*
X02642*
Y01243*
Y01242*
Y01238*
Y01237*
Y01205*
X02709*
Y01237*
Y01238*
Y01242*
Y01243*
Y01276*
X02714Y01279*
X02717Y01277*
X02724Y01275*
X02732Y01277*
X02735Y01279*
X0274Y01276*
Y01248*
X02738Y01246*
X02733Y0124*
X02732Y01232*
X02733Y01225*
X02738Y01218*
X02744Y01214*
X02752Y01212*
X0276Y01214*
X02766Y01218*
X02771Y01225*
X02772Y01232*
X02771Y0124*
X02766Y01246*
X02764Y01248*
Y0131*
X028Y01346*
X02953*
X02957Y01347*
X02961Y0135*
X02964Y01352*
X02968Y0135*
Y01233*
X02932Y01197*
X0287*
X02865Y01196*
X02862Y01194*
X02861Y01193*
X02858*
X02851Y01192*
X02844Y01187*
X0284Y01181*
X02838Y01173*
X0284Y01166*
X02841Y01164*
X02838Y01159*
X02825*
X02823Y01161*
X02822Y01169*
X02817Y01176*
X02811Y0118*
X02807Y01181*
Y01161*
X02803*
Y01157*
X02783*
Y01126*
X0285*
Y01148*
X02855Y01151*
X02858Y0115*
Y01085*
X02925*
Y0115*
X02928Y01154*
X0293Y01161*
X02928Y01168*
X02931Y01173*
X02937*
X02942Y01174*
X02946Y01177*
X02989Y0122*
X02991Y01224*
X02992Y01228*
Y01657*
X03018*
Y01724*
G37*
G36*
X02711D02*
X02636D01*
Y01701*
X02559*
X02557Y01703*
X02551Y01708*
X02543Y01709*
X02536Y01708*
X02529Y01703*
X02525Y01697*
X02523Y01689*
X02525Y01681*
X02529Y01675*
X02536Y0167*
X02543Y01669*
X02551Y0167*
X02557Y01675*
X02559Y01677*
X02636*
Y01657*
X02711*
Y01724*
G37*
G36*
X02398Y01696D02*
Y01681D01*
X02413*
X02412Y01685*
X02408Y01691*
X02401Y01696*
X02398*
G37*
G36*
X0276Y01701D02*
X02744D01*
X02745Y01697*
X0275Y01691*
X02756Y01686*
X0276Y01685*
Y01701*
G37*
G36*
X02016Y01417D02*
X02012Y01416D01*
X02005Y01412*
X02001Y01405*
X02Y01402*
X02016*
Y01417*
G37*
G36*
X0285Y01278D02*
X02821D01*
Y01244*
X0285*
Y01278*
G37*
G36*
X02016Y01274D02*
X01982D01*
Y01244*
X02016*
Y01274*
G37*
G36*
X02813Y01278D02*
X02783D01*
Y01244*
X02813*
Y01278*
G37*
G36*
X03496Y01356D02*
X03429D01*
Y01281*
X03449*
Y01272*
X03446Y0127*
X03442Y01264*
X03441Y01256*
X03442Y01248*
X03446Y01242*
X03453Y01237*
X03461Y01236*
X03468Y01237*
X03475Y01242*
X03479Y01248*
X03481Y01256*
X03479Y01264*
X03475Y0127*
X03473Y01272*
Y01281*
X03496*
Y01356*
G37*
G36*
X01939Y01311D02*
X01864D01*
Y01244*
X01934*
X01935*
X01937*
X01939*
X01945Y01245*
X01951Y0125*
X01956Y01256*
X01957Y01264*
X01956Y01271*
X01951Y01278*
X01945Y01282*
X01939Y01283*
Y01311*
G37*
G36*
X02057Y01274D02*
X02024D01*
Y01244*
X02057*
Y01274*
G37*
G36*
X03224Y01315D02*
X03195D01*
Y01281*
X03224*
Y01315*
G37*
G36*
X03384D02*
X03354D01*
Y01281*
X03384*
Y01315*
G37*
G36*
X03187D02*
X03157D01*
Y01281*
X03187*
Y01315*
G37*
G36*
X02016Y01311D02*
X01982D01*
Y01281*
X02016*
Y01311*
G37*
G36*
X02057D02*
X02024D01*
Y01281*
X02057*
Y01311*
G37*
G36*
X0249Y01205D02*
X02461D01*
Y01171*
X0249*
Y01205*
G37*
G36*
X02315Y01196D02*
X02311D01*
X02305Y01191*
X023Y01185*
Y01181*
X02315*
Y01196*
G37*
G36*
X02799Y01181D02*
X02795Y0118D01*
X02789Y01176*
X02785Y01169*
X02784Y01165*
X02799*
Y01181*
G37*
G36*
X02671Y01197D02*
X02642D01*
Y01163*
X02671*
Y01197*
G37*
G36*
X02709D02*
X02679D01*
Y01163*
X02709*
Y01197*
G37*
G36*
X02323Y01196D02*
Y01181D01*
X02338*
X02337Y01185*
X02333Y01191*
X02327Y01196*
X02323*
G37*
G36*
X02138Y01315D02*
X0213Y01314D01*
X02124Y01309*
X02119Y01303*
Y01299*
X02094*
Y0122*
X02119*
Y01217*
X02124Y0121*
X0213Y01206*
X02138Y01204*
X02145Y01206*
X02152Y0121*
X02156Y01217*
X02157Y0122*
X02181*
Y01237*
X02185*
X02191Y01242*
X02196Y01248*
X02197Y01256*
X02196Y01264*
X02191Y0127*
X02185Y01274*
X02181Y01275*
Y01299*
X02157*
X02156Y01303*
X02152Y01309*
X02145Y01314*
X02138Y01315*
G37*
G36*
X0249Y01246D02*
X02461D01*
Y01213*
X0249*
Y01246*
G37*
G36*
X02925Y01278D02*
X02858D01*
Y01203*
X02925*
Y01217*
X02929Y01218*
X02935Y01222*
X0294Y01229*
X02941Y01236*
X0294Y01244*
X02935Y0125*
X02929Y01255*
X02925Y01256*
Y01278*
G37*
G36*
X02813Y01236D02*
X02783D01*
Y01203*
X02813*
Y01236*
G37*
G36*
X0285D02*
X02821D01*
Y01203*
X0285*
Y01236*
G37*
G36*
X03421Y01315D02*
X03392D01*
Y01281*
X03421*
Y01315*
G37*
G36*
X02181Y01366D02*
X02142D01*
Y01331*
X02181*
Y01366*
G37*
G36*
X0248Y01453D02*
X02473Y01452D01*
X02466Y01447*
X02462Y01441*
X0246Y01433*
X02462Y01425*
X02466Y01419*
X02473Y01415*
X0248Y01413*
X02483Y01414*
X02531Y01365*
Y01348*
X02528Y01344*
X02526*
X02508*
X02507Y0135*
X02502Y01357*
X02496Y01361*
X02488Y01363*
X02481Y01361*
X02474Y01357*
X0247Y0135*
X02469Y01344*
X02461*
Y0127*
X02526*
X02528*
X02531Y01267*
Y01249*
X02528Y01246*
X02498*
Y01209*
Y01171*
X02528*
Y01174*
X02533Y01176*
X02536Y01174*
X02543Y01173*
X02551Y01174*
X02557Y01179*
X02562Y01185*
Y01186*
X02567Y01185*
Y01163*
X02634*
Y01238*
Y01242*
Y01243*
Y01317*
X02567*
Y0128*
X0256Y01279*
X02555Y01281*
Y0137*
X02554Y01375*
X02552Y01379*
X025Y01431*
Y01433*
X02499Y01441*
X02495Y01447*
X02488Y01452*
X0248Y01453*
G37*
G36*
X02134Y01366D02*
X02094D01*
Y01331*
X02134*
Y01366*
G37*
G36*
X03384Y01356D02*
X03354D01*
Y01323*
X03384*
Y01356*
G37*
G36*
X03421D02*
X03392D01*
Y01323*
X03421*
Y01356*
G37*
G36*
X01898Y01386D02*
X01864D01*
Y01356*
X01898*
Y01386*
G37*
G36*
X02626Y01402D02*
X02611D01*
Y01398*
X02616Y01391*
X02622Y01387*
X02626Y01386*
Y01402*
G37*
G36*
X02649D02*
X02634D01*
Y01386*
X02638Y01387*
X02644Y01391*
X02648Y01398*
X02649Y01402*
G37*
G36*
X02181Y01409D02*
X02142D01*
Y01374*
X02181*
Y01409*
G37*
G36*
X01939Y01386D02*
X01906D01*
Y01356*
X01939*
Y01386*
G37*
G36*
X02134Y01409D02*
X02094D01*
Y01374*
X02134*
Y01409*
G37*
G36*
X03299Y01356D02*
X03232D01*
Y01281*
X03299*
Y01298*
X03304Y013*
X03311Y01299*
X03319Y013*
X03325Y01305*
X0333Y01311*
X03331Y01319*
X0333Y01327*
X03325Y01333*
X03319Y01337*
X03311Y01339*
X03304Y01338*
X03299Y0134*
Y01356*
G37*
G36*
X02831Y01326D02*
X02827D01*
X0282Y01321*
X02816Y01315*
X02815Y01311*
X02831*
Y01326*
G37*
G36*
X02854Y01303D02*
X02839D01*
Y01288*
X02842Y01289*
X02849Y01293*
X02853Y01299*
X02854Y01303*
G37*
G36*
X02671Y01317D02*
X02642D01*
Y01283*
X02671*
Y01317*
G37*
G36*
X02831Y01303D02*
X02815D01*
X02816Y01299*
X0282Y01293*
X02827Y01289*
X02831Y01288*
Y01303*
G37*
G36*
X02839Y01326D02*
Y01311D01*
X02854*
X02853Y01315*
X02849Y01321*
X02842Y01326*
X02839*
G37*
G36*
X03187Y01356D02*
X03157D01*
Y01323*
X03187*
Y01356*
G37*
G36*
X03224D02*
X03195D01*
Y01323*
X03224*
Y01356*
G37*
G36*
X01939Y01348D02*
X01906D01*
Y01319*
X01939*
Y01348*
G37*
G36*
X02039Y01394D02*
X02D01*
X02001Y01391*
X01998Y01386*
X01982*
Y01358*
X01977Y01357*
X0197Y01353*
X01966Y01346*
X01964Y01339*
X01966Y01331*
X0197Y01324*
X01977Y0132*
X01982Y01319*
X01984*
X01986*
X01987*
X02052*
X02053*
X02055*
X02057*
X02063Y0132*
X02069Y01324*
X02074Y01331*
X02075Y01339*
X02074Y01346*
X02069Y01353*
X02063Y01357*
X02057Y01358*
Y01386*
X02041*
X02038Y01391*
X02039Y01394*
G37*
G36*
X01898Y01348D02*
X01864D01*
Y01319*
X01898*
Y01348*
G37*
%LNpendulum-3*%
%LPD*%
G54D17*
X03211Y01476D03*
X03285D03*
X03033Y02283D03*
X03108D03*
X01833Y02028D03*
X01907D03*
Y01949D03*
X01833D03*
X0175Y02106D03*
X01675D03*
X02419Y0111D03*
X02494D03*
X02419Y01307D03*
X02494D03*
X04549Y02409D03*
X04624D03*
X04549Y02311D03*
X04624D03*
X04549Y02213D03*
X04624D03*
X03033Y01988D03*
X03108D03*
X02675Y0128D03*
X026D03*
Y01201D03*
X02675D03*
X02892Y01122D03*
X02817D03*
X02892Y0124D03*
X02817D03*
X02494Y01209D03*
X02419D03*
X03325Y01197D03*
X0325D03*
X03384Y01083D03*
X03309D03*
X03388Y01319D03*
X03463D03*
X03191D03*
X03266D03*
X01833Y02185D03*
X01907D03*
X0175D03*
X01675D03*
X0175Y02028D03*
X01675D03*
X02793Y00591D03*
X02719D03*
X02738Y00748D03*
X02813D03*
X02675Y00843D03*
X0275D03*
X029Y00591D03*
X02974D03*
X0175Y01949D03*
X01675D03*
G54D19*
X04134Y02181D03*
Y02071D03*
X02374Y01D03*
Y0089D03*
X02138Y0137D03*
Y0126D03*
G54D20*
X02303Y0177D03*
Y01695D03*
X0298Y01691D03*
Y01766D03*
X02823Y01691D03*
Y01766D03*
X02673Y01691D03*
Y01766D03*
X03429Y02443D03*
Y02368D03*
X02772Y01486D03*
Y01561D03*
X0311Y01573D03*
Y01498D03*
X03524Y02065D03*
Y0199D03*
X02575Y01486D03*
Y01561D03*
X03524Y02187D03*
Y02262D03*
X03425Y0199D03*
Y02065D03*
X03528Y02368D03*
Y02443D03*
X02673Y01561D03*
Y01486D03*
X02902Y00809D03*
Y00884D03*
X02256Y00911D03*
Y00986D03*
X02138Y00982D03*
Y00907D03*
X0202Y01278D03*
Y01352D03*
X01902D03*
Y01278D03*
X04075Y01888D03*
Y01813D03*
G54D32*
X04049Y01732D03*
X03904D03*
G54D38*
X03831Y01732D02*
X03904D01*
X04049Y01738D02*
Y01752D01*
Y01738D02*
X04055Y01732D01*
X04106*
X03551Y02185D02*
X03654Y02083D01*
X03575Y01898D02*
Y02114D01*
X03472Y02146D02*
X03488Y0213D01*
X03559*
X03575Y02114*
X03494Y02262D02*
X03524D01*
X03472Y0224D02*
X03494Y02262D01*
X03472Y02146D02*
Y0224D01*
X03531Y02185D02*
X03551D01*
X03575Y01898D02*
X03598Y01874D01*
X03781Y01691*
X039*
X02984Y01988D02*
X03033D01*
X02984Y02283D02*
X03033D01*
X03128Y01969D02*
X03213D01*
X03108Y01988D02*
X03128Y01969D01*
X03108Y02283D02*
X03213D01*
X03524Y02177D02*
X03531Y02185D01*
X03524Y02177D02*
Y02187D01*
X03561Y02262D02*
X03641Y02182D01*
X03524Y02262D02*
X03561D01*
X03641Y02182D02*
X03656D01*
X04134Y01969D02*
Y02071D01*
X04028Y0213D02*
Y02181D01*
X04134*
X03652Y02187D02*
X03656Y02182D01*
X03528Y02443D02*
D01*
X01907Y02028D02*
X01953Y01982D01*
Y01858D02*
Y01982D01*
Y01858D02*
X01972Y01839D01*
X01833Y02128D02*
X01892D01*
X01907Y02144*
X03654Y02004D02*
Y02083D01*
X04134Y01947D02*
Y01969D01*
X04075Y01888D02*
X04134Y01947D01*
X04075Y01813D02*
X04106Y01781D01*
Y01732D02*
Y01781D01*
X04624Y02213D02*
Y02311D01*
Y02409*
X04268Y02016D02*
X04346Y02094D01*
X04394*
X01907Y02185D02*
Y02325D01*
X0189Y02343D02*
X01907Y02325D01*
Y02144D02*
Y02185D01*
X04624Y02409D02*
Y02455D01*
X0461Y02469D02*
X04624Y02455D01*
X0448Y02469D02*
X0461D01*
X04457Y02445D02*
X0448Y02469D01*
X04457Y02343D02*
Y02445D01*
G54D39*
X03024Y01193D02*
X03055Y01224D01*
X03106Y01335D02*
X03157Y01386D01*
X03106Y01232D02*
Y01335D01*
X01833Y01949D02*
D01*
Y02028*
Y01949D02*
D01*
X0175D02*
X01833D01*
X03008Y00764D02*
X03012Y00768D01*
X03008Y00685D02*
Y00764D01*
X03201Y01618D02*
X03382Y01799D01*
X03429Y02368D02*
X03437Y0236D01*
Y02307D02*
Y0236D01*
X03031Y00709D02*
Y00748D01*
X03071Y00787D02*
Y00827D01*
X03031Y00748D02*
X03071Y00787D01*
X03031D02*
Y00827D01*
X03008Y00764D02*
X03031Y00787D01*
X03102Y00555D02*
X03248D01*
X02976Y00681D02*
X03102Y00555D01*
X02937Y00681D02*
X02976D01*
X02854Y01413D02*
Y01516D01*
X02671Y01689D02*
X02673Y01691D01*
X02543Y01689D02*
X02671D01*
X0248Y01433D02*
X02543Y0137D01*
X02319Y01063D02*
X02441D01*
X02484Y0102*
X02559*
X02669Y00965D02*
X02799D01*
X02858Y01173D02*
X0287Y01185D01*
X03055Y01224D02*
Y01528D01*
X03035Y01161D02*
X03106Y01232D01*
X03024Y01161D02*
X03035D01*
X02992Y00787D02*
Y00827D01*
X02953Y00748D02*
X02992Y00787D01*
X02953Y00709D02*
Y00748D01*
X02563Y00689D02*
Y0085D01*
X02543Y01193D02*
Y0137D01*
X0311Y01573D02*
Y01665D01*
Y01695*
X02874Y01386D02*
Y01476D01*
X03305Y0189D02*
X03327D01*
X0311Y01695D02*
X03305Y0189D01*
X03327Y01827D02*
Y01854D01*
X03169Y01669D02*
X03327Y01827D01*
X03169Y01661D02*
Y01669D01*
X03406Y01835D02*
D01*
X03374D02*
X03406D01*
X03201Y01661D02*
X03374Y01835D01*
X03382Y01799D02*
X03406D01*
X03472Y01618D02*
X03476Y01614D01*
X03232Y01618D02*
X03472D01*
X02874Y01476D02*
X02913Y01516D01*
X02854D02*
X0289Y01551D01*
X02827Y01456D02*
Y0152D01*
X02858Y01551*
X02809Y01561D02*
X02823Y01575D01*
Y01691D02*
X02892D01*
X02961Y01622*
Y01567D02*
Y01622D01*
X02953Y01358D02*
X02961Y01366D01*
X0298Y01228D02*
Y01691D01*
X02812Y01441D02*
X02827Y01456D01*
X02724Y0135D02*
X0276Y01386D01*
X02874*
X02724Y01295D02*
Y0135D01*
X02689Y01413D02*
X02854D01*
X02681Y01421D02*
X02689Y01413D01*
X0276Y01437D02*
X02764Y01441D01*
X02812*
X03063Y01535D02*
X03386D01*
X03055Y01528D02*
X03063Y01535D01*
X03386D02*
X03417Y01504D01*
X02961Y01366D02*
Y01567D01*
X02795Y01358D02*
X02953D01*
X02752Y01315D02*
X02795Y01358D01*
X02752Y01232D02*
Y01315D01*
X02937Y01185D02*
X0298Y01228D01*
X02813Y00748D02*
X0285D01*
X02772Y01561D02*
X02809D01*
X02575D02*
X02772D01*
X03476Y01614D02*
X0352Y01571D01*
X03476Y01614D02*
Y02014D01*
X0287Y01185D02*
X02937D01*
X02772Y01486D02*
D01*
X02673D02*
X02772D01*
X02575Y01441D02*
Y01486D01*
X03157Y01386D02*
X03366D01*
X03266Y01319D02*
X03311D01*
X03461Y01317D02*
X03463Y01319D01*
X03461Y01256D02*
Y01317D01*
X03325Y01197D02*
Y01254D01*
X03205Y01197D02*
X0325D01*
X03197Y01189D02*
X03205Y01197D01*
X03197Y0113D02*
Y01189D01*
X0326Y01083D02*
X03309D01*
X03384D02*
X03437D01*
X03181Y01098D02*
X03197Y01083D01*
X02705Y01004D02*
Y01024D01*
X02709Y01028*
X02886*
X03091Y00937D02*
Y00961D01*
X03028Y01024D02*
X03091Y00961D01*
X02598Y00644D02*
Y0085D01*
X02419Y0111D02*
Y01307D01*
X03043Y01098D02*
X03181D01*
X04161Y02118D02*
X04192Y02149D01*
X0352Y01571D02*
X03937D01*
X04094Y02118D02*
X04161D01*
X04192Y02149D02*
Y02204D01*
X03425Y02065D02*
X03476Y02014D01*
X03425Y02065D02*
X03524D01*
Y0161D02*
Y0199D01*
X04201Y02555D02*
X04232Y02524D01*
Y02402D02*
Y02524D01*
X04189Y02358D02*
X04232Y02402D01*
X03425Y02065D02*
Y02114D01*
X0348Y02368D02*
X03528D01*
X03429D02*
X0348D01*
X03528D02*
D01*
X0175Y02106D02*
D01*
Y02028D02*
D01*
X01626Y02031D02*
X01671D01*
X01675Y02028*
X0164Y0215D02*
X01675Y02185D01*
X01614Y02126D02*
X01616D01*
X0164Y0215*
X01656Y02087D02*
X01675Y02106D01*
X01614Y02087D02*
X01656D01*
X01815Y02045D02*
Y02091D01*
Y02045D02*
X01833Y02028D01*
X03937Y01571D02*
X03996Y0163D01*
Y0202D02*
X04094Y02118D01*
X03063Y01051D02*
X0313Y00984D01*
X0263Y00709D02*
Y0087D01*
Y00709D02*
X02657Y00681D01*
X02618Y00882D02*
X0263Y0087D01*
X02528Y00882D02*
X02618D01*
X02657Y00681D02*
X02744D01*
X02902Y00697D02*
X02921D01*
X02937Y00681*
X03996Y0163D02*
Y0202D01*
X04228Y02232D02*
X04248Y02252D01*
X04457Y02205D02*
X04541D01*
X04549Y02213*
X04457Y02252D02*
X0449D01*
X04549Y02311*
X04457Y02299D02*
X04461D01*
X04504Y02343*
Y02394*
X0452Y02409*
X04549*
X04248Y02252D02*
X04457D01*
X04228Y02154D02*
X0428Y02205D01*
X04457*
X04437Y0228D02*
X04457Y02299D01*
X04244Y0228D02*
X04437D01*
X04189Y02256D02*
Y02358D01*
X03594Y01189D02*
X03764Y01358D01*
X03969*
X04035Y01425*
X03693Y01386D02*
X03925D01*
X04035Y01496D02*
X04106D01*
X03925Y01386D02*
X04035Y01496D01*
X03622Y01315D02*
X03693Y01386D01*
X03248Y00555D02*
X03614Y00921D01*
X03575Y00961D02*
X03614Y00921D01*
X03571Y00961D02*
X03575D01*
X03197Y01083D02*
X03319Y00961D01*
X03429*
X03209D02*
X0335Y00819D01*
X03429*
G54D40*
X03961Y01654D02*
Y01772D01*
X03937Y0163D02*
X03961Y01654D01*
X03669Y0163D02*
X03937D01*
X03563Y01736D02*
X03669Y0163D01*
X03563Y01736D02*
Y0185D01*
G54D41*
X01457Y0248D02*
X01496D01*
X01898D02*
X01969Y02409D01*
Y02343D02*
Y02409D01*
X01496Y0248D02*
X01898D01*
X0189Y02343D02*
X01969D01*
G54D42*
X02673Y00766D02*
X0275Y00843D01*
X02673Y0072D02*
Y00766D01*
X02709Y005D02*
X02921D01*
X02563Y00689D02*
D01*
Y00644D02*
Y00689D01*
X02636Y00537D02*
X02671D01*
X02709Y005*
G54D44*
X01228Y02343D03*
G54D45*
X01228Y02244D03*
G54D46*
X0189Y02343D03*
X01705D03*
X0152Y02346D03*
G54D47*
X01965Y02718D03*
X01445D03*
G54D48*
X0374Y02067D03*
X03789D03*
X03839D03*
X03888D03*
X03937D03*
X03789Y01969D03*
X03839D03*
X03888D03*
X0374Y02165D03*
X03789D03*
X03839D03*
X03888D03*
X03937D03*
X0374Y02264D03*
X03789D03*
X03839D03*
X03888D03*
X03937D03*
X03839Y02362D03*
X03789D03*
X03888D03*
G54D49*
X04035Y01567D03*
X03965Y01496D03*
X04035Y01425D03*
X035Y01031D03*
X03429Y00961D03*
X03359Y0089D03*
X03429Y00819D03*
X035Y0089D03*
G54D50*
X04106Y01496D03*
X03571Y00961D03*
G54D51*
X02346Y01142D03*
X02319Y01177D03*
X0311Y01472D03*
X02272Y01669D03*
X02937Y01461D03*
X02921Y01705D03*
X02764D03*
X02614Y01642D03*
X02394Y01677D03*
X02323Y01795D03*
X02543Y01689D03*
X0248Y01433D03*
X02957Y01791D03*
X02799D03*
X0265D03*
X02059Y01059D03*
Y01138D03*
X02559Y0102D03*
X02335Y0089D03*
X0202Y01398D03*
X02256Y01035D03*
X02173Y00894D03*
X02291Y00972D03*
X0222D03*
X02055Y01339D03*
X01984D03*
X01937Y01264D03*
X02138Y01295D03*
X02177Y01256D03*
X02138Y01224D03*
X02669Y00965D03*
X02598Y0085D03*
X02728Y0089D03*
Y0078D03*
X02673Y0072D03*
X0278Y00866D03*
X03594Y01189D03*
X03209Y00961D03*
X03091Y00937D03*
X03071Y00827D03*
X03031D03*
Y00709D03*
X03008Y00685D03*
X02992Y00827D03*
X02953Y00709D03*
X02563Y0085D03*
X02543Y01193D03*
X03236Y01146D03*
X02528Y01106D03*
X03406Y01799D03*
Y01835D03*
X03327Y01854D03*
Y0189D03*
X03524Y0161D03*
X03232Y01618D03*
X03201D03*
Y01661D03*
X02913Y01516D03*
X0289Y01551D03*
X02858D03*
X02823Y01575D03*
X03169Y01661D03*
X0311Y01665D03*
X02724Y01295D03*
X02681Y01421D03*
X0276Y01437D03*
X02488Y01343D03*
X02795Y00657D03*
X02827D03*
X02921D03*
X0289D03*
X03024Y01193D03*
Y01161D03*
X02811Y00823D03*
X02858Y01173D03*
X02575Y01441D03*
X03622Y01315D03*
X03417Y01504D03*
X03366Y01386D03*
X03339Y01492D03*
X0322Y01441D03*
X03283Y01512D03*
X03311Y01319D03*
X03461Y01256D03*
X03325Y01254D03*
X03197Y0113D03*
X0326Y01083D03*
X03437D03*
X02705Y01004D03*
X02799Y00965D03*
X03043Y01098D03*
X02886Y01028D03*
X03028Y01024D03*
X02752Y01232D03*
X02909Y01161D03*
X02803D03*
X02913Y01051D03*
X0263Y01406D03*
X02835Y01307D03*
X02921Y01236D03*
X02567Y0126D03*
Y01217D03*
X0285Y00748D03*
X02563Y00689D03*
X02921Y005D03*
X02902Y00917D03*
X02937Y00886D03*
X02717Y00555D03*
Y0063D03*
X02976Y00551D03*
Y0063D03*
X02634Y00591D03*
X02563D03*
X0313Y00984D03*
X03063Y01051D03*
X02528Y00882D03*
X02744Y00681D03*
X02902Y00697D03*
X02575Y00516D03*
G54D52*
X03831Y01732D03*
X01457Y0248D03*
X01496D03*
X01539D03*
X01972Y01839D03*
X04457Y02343D03*
X04287Y02697D03*
X04118D03*
X01378Y01937D03*
X01575Y02244D03*
X01555Y02165D03*
Y02008D03*
Y01929D03*
X01228Y02063D03*
X02087Y02283D03*
X02008Y02244D03*
X01835Y02224D03*
X01642Y01945D03*
X01776Y02008D03*
X01555Y02087D03*
X01358Y0248D03*
X01232Y02398D03*
X02402Y02362D03*
X01783Y0213D03*
X02244Y02323D03*
X02165D03*
X02323D03*
X02835Y02441D03*
X02756D03*
X02913D03*
X02441D03*
X02992D03*
X0252D03*
X02677D03*
X03071D03*
X0315D03*
X03217D03*
Y02358D03*
X02598Y02441D03*
X04268Y02016D03*
X03654Y02004D03*
X03961Y01693D03*
Y01732D03*
Y01772D03*
X03563D03*
Y01811D03*
Y0185D03*
X039Y01691D03*
X04039Y01949D03*
X02319Y01063D03*
X02984Y01988D03*
Y02283D03*
X04201Y02555D03*
X04189Y02256D03*
X04106Y01732D03*
X04028Y0213D03*
X03656Y02182D03*
X04192Y02204D03*
X03213Y02047D03*
Y02126D03*
Y02205D03*
X03425Y02114D03*
X03437Y02307D03*
X03627Y01948D03*
X03629Y02383D03*
X0415Y02394D03*
X03213Y02283D03*
Y01969D03*
X01626Y02031D03*
X01614Y02087D03*
Y02126D03*
X01833Y02128D03*
X01752Y02224D03*
X01815Y02091D03*
X04228Y02232D03*
X04457Y02299D03*
Y02205D03*
Y02252D03*
X04228Y02154D03*
X04244Y0228D03*
X04394Y02094D03*
G54D53*
X02561Y00537D03*
X02636D03*
X02563Y00644D03*
X02636D03*
X02598D03*
M02*