%FSTAX23Y23*%
%MOIN*%
%SFA1B1*%

%IPPOS*%
%ADD17R,0.051000X0.059000*%
%ADD19R,0.071000X0.063000*%
%ADD20R,0.059000X0.051000*%
%ADD32R,0.047000X0.028000*%
%ADD53R,0.022000X0.039000*%
%LNpendulum-1*%
%LPD*%
G54D17*
X03211Y01476D03*
X03285D03*
X03033Y02283D03*
X03108D03*
X01833Y02028D03*
X01907D03*
Y01949D03*
X01833D03*
X0175Y02106D03*
X01675D03*
X02419Y0111D03*
X02494D03*
X02419Y01307D03*
X02494D03*
X04549Y02409D03*
X04624D03*
X04549Y02311D03*
X04624D03*
X04549Y02213D03*
X04624D03*
X03033Y01988D03*
X03108D03*
X02675Y0128D03*
X026D03*
Y01201D03*
X02675D03*
X02892Y01122D03*
X02817D03*
X02892Y0124D03*
X02817D03*
X02494Y01209D03*
X02419D03*
X03325Y01197D03*
X0325D03*
X03384Y01083D03*
X03309D03*
X03388Y01319D03*
X03463D03*
X03191D03*
X03266D03*
X01833Y02185D03*
X01907D03*
X0175D03*
X01675D03*
X0175Y02028D03*
X01675D03*
X02793Y00591D03*
X02719D03*
X02738Y00748D03*
X02813D03*
X02675Y00843D03*
X0275D03*
X029Y00591D03*
X02974D03*
X0175Y01949D03*
X01675D03*
G54D19*
X04134Y02181D03*
Y02071D03*
X02374Y01D03*
Y0089D03*
X02138Y0137D03*
Y0126D03*
G54D20*
X02303Y0177D03*
Y01695D03*
X0298Y01691D03*
Y01766D03*
X02823Y01691D03*
Y01766D03*
X02673Y01691D03*
Y01766D03*
X03429Y02443D03*
Y02368D03*
X02772Y01486D03*
Y01561D03*
X0311Y01573D03*
Y01498D03*
X03524Y02065D03*
Y0199D03*
X02575Y01486D03*
Y01561D03*
X03524Y02187D03*
Y02262D03*
X03425Y0199D03*
Y02065D03*
X03528Y02368D03*
Y02443D03*
X02673Y01561D03*
Y01486D03*
X02902Y00809D03*
Y00884D03*
X02256Y00911D03*
Y00986D03*
X02138Y00982D03*
Y00907D03*
X0202Y01278D03*
Y01352D03*
X01902D03*
Y01278D03*
X04075Y01888D03*
Y01813D03*
G54D32*
X04049Y01732D03*
X03904D03*
G54D53*
X02561Y00537D03*
X02636D03*
X02563Y00644D03*
X02636D03*
X02598D03*
M02*